<?xml version="1.0" encoding="UTF-8" standalone="no"?>
<!DOCTYPE svg PUBLIC "-//W3C//DTD SVG 1.1//EN"
 "http://www.w3.org/Graphics/SVG/1.1/DTD/svg11.dtd">
<!-- Generated by graphviz version 2.40.1 (20161225.0304)
 -->
<!-- Title: RedHeadDuck Pages: 1 -->
<svg width="220pt" height="376pt"
 viewBox="0.00 0.00 219.50 376.00" xmlns="http://www.w3.org/2000/svg" xmlns:xlink="http://www.w3.org/1999/xlink">
<g id="graph0" class="graph" transform="scale(1 1) rotate(0) translate(4 372)">
<title>RedHeadDuck</title>
<polygon fill="#ffffff" stroke="transparent" points="-4,4 -4,-372 215.5,-372 215.5,4 -4,4"/>
<!-- Node2 -->
<g id="node1" class="node">
<title>Node2</title>
<polygon fill="#bfbfbf" stroke="#000000" points="59,-.5 59,-79.5 159,-79.5 159,-.5 59,-.5"/>
<text text-anchor="middle" x="109" y="-67.5" font-family="Helvetica,sans-Serif" font-size="10.00" fill="#000000">RedHeadDuck</text>
<polyline fill="none" stroke="#000000" points="59,-60.5 159,-60.5 "/>
<text text-anchor="middle" x="109" y="-48.5" font-family="Helvetica,sans-Serif" font-size="10.00" fill="#000000"> </text>
<polyline fill="none" stroke="#000000" points="59,-41.5 159,-41.5 "/>
<text text-anchor="start" x="67" y="-29.5" font-family="Helvetica,sans-Serif" font-size="10.00" fill="#000000">+ RedHeadDuck()</text>
<text text-anchor="start" x="67" y="-18.5" font-family="Helvetica,sans-Serif" font-size="10.00" fill="#000000">+ ~RedHeadDuck()</text>
<text text-anchor="start" x="67" y="-7.5" font-family="Helvetica,sans-Serif" font-size="10.00" fill="#000000">+ Display()</text>
</g>
<!-- Node3 -->
<g id="node2" class="node">
<title>Node3</title>
<g id="a_node2"><a xlink:href="classDuck.html" target="_top" xlink:title="{Duck\n||+ Duck()\l+ ~Duck()\l+ PerformQuack()\l+ Swim()\l+ PerformFly()\l+ Display()\l+ SetFlyBehavior()\l+ SetQuackBehavior()\l}">
<polygon fill="#ffffff" stroke="#000000" points="52.5,-117.5 52.5,-251.5 165.5,-251.5 165.5,-117.5 52.5,-117.5"/>
<text text-anchor="middle" x="109" y="-239.5" font-family="Helvetica,sans-Serif" font-size="10.00" fill="#000000">Duck</text>
<polyline fill="none" stroke="#000000" points="52.5,-232.5 165.5,-232.5 "/>
<text text-anchor="middle" x="109" y="-220.5" font-family="Helvetica,sans-Serif" font-size="10.00" fill="#000000"> </text>
<polyline fill="none" stroke="#000000" points="52.5,-213.5 165.5,-213.5 "/>
<text text-anchor="start" x="60.5" y="-201.5" font-family="Helvetica,sans-Serif" font-size="10.00" fill="#000000">+ Duck()</text>
<text text-anchor="start" x="60.5" y="-190.5" font-family="Helvetica,sans-Serif" font-size="10.00" fill="#000000">+ ~Duck()</text>
<text text-anchor="start" x="60.5" y="-179.5" font-family="Helvetica,sans-Serif" font-size="10.00" fill="#000000">+ PerformQuack()</text>
<text text-anchor="start" x="60.5" y="-168.5" font-family="Helvetica,sans-Serif" font-size="10.00" fill="#000000">+ Swim()</text>
<text text-anchor="start" x="60.5" y="-157.5" font-family="Helvetica,sans-Serif" font-size="10.00" fill="#000000">+ PerformFly()</text>
<text text-anchor="start" x="60.5" y="-146.5" font-family="Helvetica,sans-Serif" font-size="10.00" fill="#000000">+ Display()</text>
<text text-anchor="start" x="60.5" y="-135.5" font-family="Helvetica,sans-Serif" font-size="10.00" fill="#000000">+ SetFlyBehavior()</text>
<text text-anchor="start" x="60.5" y="-124.5" font-family="Helvetica,sans-Serif" font-size="10.00" fill="#000000">+ SetQuackBehavior()</text>
</a>
</g>
</g>
<!-- Node3&#45;&gt;Node2 -->
<g id="edge1" class="edge">
<title>Node3&#45;&gt;Node2</title>
<path fill="none" stroke="#191970" d="M109,-107.0923C109,-97.6753 109,-88.3757 109,-79.8379"/>
<polygon fill="none" stroke="#191970" points="105.5001,-107.3263 109,-117.3264 112.5001,-107.3264 105.5001,-107.3263"/>
</g>
<!-- Node4 -->
<g id="node3" class="node">
<title>Node4</title>
<g id="a_node3"><a xlink:href="classQuackBehavior.html" target="_top" xlink:title="{QuackBehavior\n||+ ~QuackBehavior()\l+ quack()\l}">
<polygon fill="#ffffff" stroke="#000000" points="0,-299.5 0,-367.5 104,-367.5 104,-299.5 0,-299.5"/>
<text text-anchor="middle" x="52" y="-355.5" font-family="Helvetica,sans-Serif" font-size="10.00" fill="#000000">QuackBehavior</text>
<polyline fill="none" stroke="#000000" points="0,-348.5 104,-348.5 "/>
<text text-anchor="middle" x="52" y="-336.5" font-family="Helvetica,sans-Serif" font-size="10.00" fill="#000000"> </text>
<polyline fill="none" stroke="#000000" points="0,-329.5 104,-329.5 "/>
<text text-anchor="start" x="8" y="-317.5" font-family="Helvetica,sans-Serif" font-size="10.00" fill="#000000">+ ~QuackBehavior()</text>
<text text-anchor="start" x="8" y="-306.5" font-family="Helvetica,sans-Serif" font-size="10.00" fill="#000000">+ quack()</text>
</a>
</g>
</g>
<!-- Node4&#45;&gt;Node3 -->
<g id="edge2" class="edge">
<title>Node4&#45;&gt;Node3</title>
<path fill="none" stroke="#404040" d="M62.0488,-299.3359C65.0533,-289.7744 68.4881,-279.4224 72,-270 72.8261,-267.7835 73.6786,-265.5412 74.5518,-263.2833"/>
<polygon fill="none" stroke="#404040" points="74.6383,-263.0651 73.1326,-256.013 79.0633,-251.9108 80.5689,-258.963 74.6383,-263.0651"/>
<text text-anchor="middle" x="108.5" y="-273" font-family="Helvetica,sans-Serif" font-size="10.00" fill="#000000"> #quackBehavior</text>
</g>
<!-- Node5 -->
<g id="node4" class="node">
<title>Node5</title>
<g id="a_node4"><a xlink:href="classFlyBehavior.html" target="_top" xlink:title="{FlyBehavior\n||+ ~FlyBehavior()\l+ fly()\l}">
<polygon fill="#ffffff" stroke="#000000" points="122.5,-299.5 122.5,-367.5 211.5,-367.5 211.5,-299.5 122.5,-299.5"/>
<text text-anchor="middle" x="167" y="-355.5" font-family="Helvetica,sans-Serif" font-size="10.00" fill="#000000">FlyBehavior</text>
<polyline fill="none" stroke="#000000" points="122.5,-348.5 211.5,-348.5 "/>
<text text-anchor="middle" x="167" y="-336.5" font-family="Helvetica,sans-Serif" font-size="10.00" fill="#000000"> </text>
<polyline fill="none" stroke="#000000" points="122.5,-329.5 211.5,-329.5 "/>
<text text-anchor="start" x="130.5" y="-317.5" font-family="Helvetica,sans-Serif" font-size="10.00" fill="#000000">+ ~FlyBehavior()</text>
<text text-anchor="start" x="130.5" y="-306.5" font-family="Helvetica,sans-Serif" font-size="10.00" fill="#000000">+ fly()</text>
</a>
</g>
</g>
<!-- Node5&#45;&gt;Node3 -->
<g id="edge3" class="edge">
<title>Node5&#45;&gt;Node3</title>
<path fill="none" stroke="#404040" d="M155.6453,-299.4087C152.3374,-289.8479 148.6329,-279.4781 145,-270 144.0993,-267.6502 143.1745,-265.2686 142.2318,-262.8681"/>
<polygon fill="none" stroke="#404040" points="142.1601,-262.6881 136.2215,-258.5974 137.7135,-251.5423 143.6521,-255.633 142.1601,-262.6881"/>
<text text-anchor="middle" x="177" y="-273" font-family="Helvetica,sans-Serif" font-size="10.00" fill="#000000"> #flyBehavior</text>
</g>
</g>
</svg>
