<?xml version="1.0" encoding="UTF-8" standalone="no"?>
<!DOCTYPE svg PUBLIC "-//W3C//DTD SVG 1.1//EN"
 "http://www.w3.org/Graphics/SVG/1.1/DTD/svg11.dtd">
<!-- Generated by graphviz version 2.40.1 (20161225.0304)
 -->
<!-- Title: QuackBehavior::quack Pages: 1 -->
<svg width="342pt" height="28pt"
 viewBox="0.00 0.00 342.00 28.00" xmlns="http://www.w3.org/2000/svg" xmlns:xlink="http://www.w3.org/1999/xlink">
<g id="graph0" class="graph" transform="scale(1 1) rotate(0) translate(4 24)">
<title>QuackBehavior::quack</title>
<polygon fill="#ffffff" stroke="transparent" points="-4,4 -4,-24 338,-24 338,4 -4,4"/>
<!-- Node3 -->
<g id="node1" class="node">
<title>Node3</title>
<polygon fill="#bfbfbf" stroke="#000000" points="0,-.5 0,-19.5 116,-19.5 116,-.5 0,-.5"/>
<text text-anchor="middle" x="58" y="-7.5" font-family="Helvetica,sans-Serif" font-size="10.00" fill="#000000">QuackBehavior::quack</text>
</g>
<!-- Node4 -->
<g id="node2" class="node">
<title>Node4</title>
<g id="a_node2"><a xlink:href="classDuck.html#a59e144ba5a78e174564a974f79c86a7c" target="_top" xlink:title="Duck::PerformQuack">
<polygon fill="#ffffff" stroke="#000000" points="152,-.5 152,-19.5 260,-19.5 260,-.5 152,-.5"/>
<text text-anchor="middle" x="206" y="-7.5" font-family="Helvetica,sans-Serif" font-size="10.00" fill="#000000">Duck::PerformQuack</text>
</a>
</g>
</g>
<!-- Node3&#45;&gt;Node4 -->
<g id="edge1" class="edge">
<title>Node3&#45;&gt;Node4</title>
<path fill="none" stroke="#191970" d="M126.1513,-10C134.8066,-10 143.5692,-10 151.9617,-10"/>
<polygon fill="#191970" stroke="#191970" points="126.0688,-6.5001 116.0687,-10 126.0687,-13.5001 126.0688,-6.5001"/>
</g>
<!-- Node5 -->
<g id="node3" class="node">
<title>Node5</title>
<g id="a_node3"><a xlink:href="main_8cpp.html#a3c04138a5bfe5d72780bb7e82a18e627" target="_top" xlink:title="main">
<polygon fill="#ffffff" stroke="#000000" points="296,-.5 296,-19.5 334,-19.5 334,-.5 296,-.5"/>
<text text-anchor="middle" x="315" y="-7.5" font-family="Helvetica,sans-Serif" font-size="10.00" fill="#000000">main</text>
</a>
</g>
</g>
<!-- Node4&#45;&gt;Node5 -->
<g id="edge2" class="edge">
<title>Node4&#45;&gt;Node5</title>
<path fill="none" stroke="#191970" d="M270.3509,-10C279.6299,-10 288.5149,-10 295.8811,-10"/>
<polygon fill="#191970" stroke="#191970" points="270.1807,-6.5001 260.1807,-10 270.1806,-13.5001 270.1807,-6.5001"/>
</g>
</g>
</svg>
