<?xml version="1.0" encoding="UTF-8" standalone="no"?>
<!DOCTYPE svg PUBLIC "-//W3C//DTD SVG 1.1//EN"
 "http://www.w3.org/Graphics/SVG/1.1/DTD/svg11.dtd">
<!-- Generated by graphviz version 2.40.1 (20161225.0304)
 -->
<!-- Title: FlyRocketPowered Pages: 1 -->
<svg width="127pt" height="182pt"
 viewBox="0.00 0.00 127.00 182.00" xmlns="http://www.w3.org/2000/svg" xmlns:xlink="http://www.w3.org/1999/xlink">
<g id="graph0" class="graph" transform="scale(1 1) rotate(0) translate(4 178)">
<title>FlyRocketPowered</title>
<polygon fill="#ffffff" stroke="transparent" points="-4,4 -4,-178 123,-178 123,4 -4,4"/>
<!-- Node2 -->
<g id="node1" class="node">
<title>Node2</title>
<polygon fill="#bfbfbf" stroke="#000000" points="0,-.5 0,-68.5 119,-68.5 119,-.5 0,-.5"/>
<text text-anchor="middle" x="59.5" y="-56.5" font-family="Helvetica,sans-Serif" font-size="10.00" fill="#000000">FlyRocketPowered</text>
<polyline fill="none" stroke="#000000" points="0,-49.5 119,-49.5 "/>
<text text-anchor="middle" x="59.5" y="-37.5" font-family="Helvetica,sans-Serif" font-size="10.00" fill="#000000"> </text>
<polyline fill="none" stroke="#000000" points="0,-30.5 119,-30.5 "/>
<text text-anchor="start" x="8" y="-18.5" font-family="Helvetica,sans-Serif" font-size="10.00" fill="#000000">+ ~FlyRocketPowered()</text>
<text text-anchor="start" x="8" y="-7.5" font-family="Helvetica,sans-Serif" font-size="10.00" fill="#000000">+ fly()</text>
</g>
<!-- Node3 -->
<g id="node2" class="node">
<title>Node3</title>
<g id="a_node2"><a xlink:href="classFlyBehavior.html" target="_top" xlink:title="{FlyBehavior\n||+ ~FlyBehavior()\l+ fly()\l}">
<polygon fill="#ffffff" stroke="#000000" points="15,-105.5 15,-173.5 104,-173.5 104,-105.5 15,-105.5"/>
<text text-anchor="middle" x="59.5" y="-161.5" font-family="Helvetica,sans-Serif" font-size="10.00" fill="#000000">FlyBehavior</text>
<polyline fill="none" stroke="#000000" points="15,-154.5 104,-154.5 "/>
<text text-anchor="middle" x="59.5" y="-142.5" font-family="Helvetica,sans-Serif" font-size="10.00" fill="#000000"> </text>
<polyline fill="none" stroke="#000000" points="15,-135.5 104,-135.5 "/>
<text text-anchor="start" x="23" y="-123.5" font-family="Helvetica,sans-Serif" font-size="10.00" fill="#000000">+ ~FlyBehavior()</text>
<text text-anchor="start" x="23" y="-112.5" font-family="Helvetica,sans-Serif" font-size="10.00" fill="#000000">+ fly()</text>
</a>
</g>
</g>
<!-- Node3&#45;&gt;Node2 -->
<g id="edge1" class="edge">
<title>Node3&#45;&gt;Node2</title>
<path fill="none" stroke="#191970" d="M59.5,-95.2353C59.5,-86.3902 59.5,-77.2253 59.5,-68.7788"/>
<polygon fill="none" stroke="#191970" points="56.0001,-95.4095 59.5,-105.4095 63.0001,-95.4095 56.0001,-95.4095"/>
</g>
</g>
</svg>
