<?xml version="1.0" encoding="UTF-8" standalone="no"?>
<!DOCTYPE svg PUBLIC "-//W3C//DTD SVG 1.1//EN"
 "http://www.w3.org/Graphics/SVG/1.1/DTD/svg11.dtd">
<!-- Generated by graphviz version 2.40.1 (20161225.0304)
 -->
<!-- Title: ModelDuck Pages: 1 -->
<svg width="121pt" height="270pt"
 viewBox="0.00 0.00 121.00 270.00" xmlns="http://www.w3.org/2000/svg" xmlns:xlink="http://www.w3.org/1999/xlink">
<g id="graph0" class="graph" transform="scale(1 1) rotate(0) translate(4 266)">
<title>ModelDuck</title>
<polygon fill="#ffffff" stroke="transparent" points="-4,4 -4,-266 117,-266 117,4 -4,4"/>
<!-- Node0 -->
<g id="node1" class="node">
<title>Node0</title>
<polygon fill="#bfbfbf" stroke="#000000" points="13.5,-.5 13.5,-79.5 99.5,-79.5 99.5,-.5 13.5,-.5"/>
<text text-anchor="middle" x="56.5" y="-67.5" font-family="Helvetica,sans-Serif" font-size="10.00" fill="#000000">ModelDuck</text>
<polyline fill="none" stroke="#000000" points="13.5,-60.5 99.5,-60.5 "/>
<text text-anchor="middle" x="56.5" y="-48.5" font-family="Helvetica,sans-Serif" font-size="10.00" fill="#000000"> </text>
<polyline fill="none" stroke="#000000" points="13.5,-41.5 99.5,-41.5 "/>
<text text-anchor="start" x="21.5" y="-29.5" font-family="Helvetica,sans-Serif" font-size="10.00" fill="#000000">+ ModelDuck()</text>
<text text-anchor="start" x="21.5" y="-18.5" font-family="Helvetica,sans-Serif" font-size="10.00" fill="#000000">+ ~ModelDuck()</text>
<text text-anchor="start" x="21.5" y="-7.5" font-family="Helvetica,sans-Serif" font-size="10.00" fill="#000000">+ Display()</text>
</g>
<!-- Node1 -->
<g id="node2" class="node">
<title>Node1</title>
<g id="a_node2"><a xlink:href="classDuck.html" target="_top" xlink:title="{Duck\n|# flyBehavior\l# quackBehavior\l|+ Duck()\l+ ~Duck()\l+ PerformQuack()\l+ Swim()\l+ PerformFly()\l+ Display()\l+ SetFlyBehavior()\l+ SetQuackBehavior()\l}">
<polygon fill="#ffffff" stroke="#000000" points="0,-116.5 0,-261.5 113,-261.5 113,-116.5 0,-116.5"/>
<text text-anchor="middle" x="56.5" y="-249.5" font-family="Helvetica,sans-Serif" font-size="10.00" fill="#000000">Duck</text>
<polyline fill="none" stroke="#000000" points="0,-242.5 113,-242.5 "/>
<text text-anchor="start" x="8" y="-230.5" font-family="Helvetica,sans-Serif" font-size="10.00" fill="#000000"># flyBehavior</text>
<text text-anchor="start" x="8" y="-219.5" font-family="Helvetica,sans-Serif" font-size="10.00" fill="#000000"># quackBehavior</text>
<polyline fill="none" stroke="#000000" points="0,-212.5 113,-212.5 "/>
<text text-anchor="start" x="8" y="-200.5" font-family="Helvetica,sans-Serif" font-size="10.00" fill="#000000">+ Duck()</text>
<text text-anchor="start" x="8" y="-189.5" font-family="Helvetica,sans-Serif" font-size="10.00" fill="#000000">+ ~Duck()</text>
<text text-anchor="start" x="8" y="-178.5" font-family="Helvetica,sans-Serif" font-size="10.00" fill="#000000">+ PerformQuack()</text>
<text text-anchor="start" x="8" y="-167.5" font-family="Helvetica,sans-Serif" font-size="10.00" fill="#000000">+ Swim()</text>
<text text-anchor="start" x="8" y="-156.5" font-family="Helvetica,sans-Serif" font-size="10.00" fill="#000000">+ PerformFly()</text>
<text text-anchor="start" x="8" y="-145.5" font-family="Helvetica,sans-Serif" font-size="10.00" fill="#000000">+ Display()</text>
<text text-anchor="start" x="8" y="-134.5" font-family="Helvetica,sans-Serif" font-size="10.00" fill="#000000">+ SetFlyBehavior()</text>
<text text-anchor="start" x="8" y="-123.5" font-family="Helvetica,sans-Serif" font-size="10.00" fill="#000000">+ SetQuackBehavior()</text>
</a>
</g>
</g>
<!-- Node1&#45;&gt;Node0 -->
<g id="edge1" class="edge">
<title>Node1&#45;&gt;Node0</title>
<path fill="none" stroke="#191970" d="M56.5,-105.9585C56.5,-96.8854 56.5,-87.9835 56.5,-79.8008"/>
<polygon fill="none" stroke="#191970" points="53.0001,-106.2459 56.5,-116.246 60.0001,-106.246 53.0001,-106.2459"/>
</g>
</g>
</svg>
