<?xml version="1.0" encoding="UTF-8" standalone="no"?>
<!DOCTYPE svg PUBLIC "-//W3C//DTD SVG 1.1//EN"
 "http://www.w3.org/Graphics/SVG/1.1/DTD/svg11.dtd">
<!-- Generated by graphviz version 2.40.1 (20161225.0304)
 -->
<!-- Title: FlyBehavior Pages: 1 -->
<svg width="345pt" height="182pt"
 viewBox="0.00 0.00 344.50 182.00" xmlns="http://www.w3.org/2000/svg" xmlns:xlink="http://www.w3.org/1999/xlink">
<g id="graph0" class="graph" transform="scale(1 1) rotate(0) translate(4 178)">
<title>FlyBehavior</title>
<polygon fill="#ffffff" stroke="transparent" points="-4,4 -4,-178 340.5,-178 340.5,4 -4,4"/>
<!-- Node0 -->
<g id="node1" class="node">
<title>Node0</title>
<polygon fill="#bfbfbf" stroke="#000000" points="116,-105.5 116,-173.5 205,-173.5 205,-105.5 116,-105.5"/>
<text text-anchor="middle" x="160.5" y="-161.5" font-family="Helvetica,sans-Serif" font-size="10.00" fill="#000000">FlyBehavior</text>
<polyline fill="none" stroke="#000000" points="116,-154.5 205,-154.5 "/>
<text text-anchor="middle" x="160.5" y="-142.5" font-family="Helvetica,sans-Serif" font-size="10.00" fill="#000000"> </text>
<polyline fill="none" stroke="#000000" points="116,-135.5 205,-135.5 "/>
<text text-anchor="start" x="124" y="-123.5" font-family="Helvetica,sans-Serif" font-size="10.00" fill="#000000">+ ~FlyBehavior()</text>
<text text-anchor="start" x="124" y="-112.5" font-family="Helvetica,sans-Serif" font-size="10.00" fill="#000000">+ fly()</text>
</g>
<!-- Node1 -->
<g id="node2" class="node">
<title>Node1</title>
<g id="a_node2"><a xlink:href="classFlyNoWay.html" target="_top" xlink:title="{FlyNoWay\n||+ ~FlyNoWay()\l+ fly()\l}">
<polygon fill="#ffffff" stroke="#000000" points="0,-.5 0,-68.5 83,-68.5 83,-.5 0,-.5"/>
<text text-anchor="middle" x="41.5" y="-56.5" font-family="Helvetica,sans-Serif" font-size="10.00" fill="#000000">FlyNoWay</text>
<polyline fill="none" stroke="#000000" points="0,-49.5 83,-49.5 "/>
<text text-anchor="middle" x="41.5" y="-37.5" font-family="Helvetica,sans-Serif" font-size="10.00" fill="#000000"> </text>
<polyline fill="none" stroke="#000000" points="0,-30.5 83,-30.5 "/>
<text text-anchor="start" x="8" y="-18.5" font-family="Helvetica,sans-Serif" font-size="10.00" fill="#000000">+ ~FlyNoWay()</text>
<text text-anchor="start" x="8" y="-7.5" font-family="Helvetica,sans-Serif" font-size="10.00" fill="#000000">+ fly()</text>
</a>
</g>
</g>
<!-- Node0&#45;&gt;Node1 -->
<g id="edge1" class="edge">
<title>Node0&#45;&gt;Node1</title>
<path fill="none" stroke="#191970" d="M114.2348,-98.6778C103.0324,-88.7933 91.1706,-78.327 80.3493,-68.7788"/>
<polygon fill="none" stroke="#191970" points="112.05,-101.4177 121.8641,-105.4095 116.6814,-96.1688 112.05,-101.4177"/>
</g>
<!-- Node2 -->
<g id="node3" class="node">
<title>Node2</title>
<g id="a_node3"><a xlink:href="classFlyRocketPowered.html" target="_top" xlink:title="{FlyRocketPowered\n||+ ~FlyRocketPowered()\l+ fly()\l}">
<polygon fill="#ffffff" stroke="#000000" points="101,-.5 101,-68.5 220,-68.5 220,-.5 101,-.5"/>
<text text-anchor="middle" x="160.5" y="-56.5" font-family="Helvetica,sans-Serif" font-size="10.00" fill="#000000">FlyRocketPowered</text>
<polyline fill="none" stroke="#000000" points="101,-49.5 220,-49.5 "/>
<text text-anchor="middle" x="160.5" y="-37.5" font-family="Helvetica,sans-Serif" font-size="10.00" fill="#000000"> </text>
<polyline fill="none" stroke="#000000" points="101,-30.5 220,-30.5 "/>
<text text-anchor="start" x="109" y="-18.5" font-family="Helvetica,sans-Serif" font-size="10.00" fill="#000000">+ ~FlyRocketPowered()</text>
<text text-anchor="start" x="109" y="-7.5" font-family="Helvetica,sans-Serif" font-size="10.00" fill="#000000">+ fly()</text>
</a>
</g>
</g>
<!-- Node0&#45;&gt;Node2 -->
<g id="edge2" class="edge">
<title>Node0&#45;&gt;Node2</title>
<path fill="none" stroke="#191970" d="M160.5,-95.2353C160.5,-86.3902 160.5,-77.2253 160.5,-68.7788"/>
<polygon fill="none" stroke="#191970" points="157.0001,-95.4095 160.5,-105.4095 164.0001,-95.4095 157.0001,-95.4095"/>
</g>
<!-- Node3 -->
<g id="node4" class="node">
<title>Node3</title>
<g id="a_node4"><a xlink:href="classFlyWithWings.html" target="_top" xlink:title="{FlyWithWings\n||+ ~FlyWithWings()\l+ fly()\l}">
<polygon fill="#ffffff" stroke="#000000" points="238.5,-.5 238.5,-68.5 336.5,-68.5 336.5,-.5 238.5,-.5"/>
<text text-anchor="middle" x="287.5" y="-56.5" font-family="Helvetica,sans-Serif" font-size="10.00" fill="#000000">FlyWithWings</text>
<polyline fill="none" stroke="#000000" points="238.5,-49.5 336.5,-49.5 "/>
<text text-anchor="middle" x="287.5" y="-37.5" font-family="Helvetica,sans-Serif" font-size="10.00" fill="#000000"> </text>
<polyline fill="none" stroke="#000000" points="238.5,-30.5 336.5,-30.5 "/>
<text text-anchor="start" x="246.5" y="-18.5" font-family="Helvetica,sans-Serif" font-size="10.00" fill="#000000">+ ~FlyWithWings()</text>
<text text-anchor="start" x="246.5" y="-7.5" font-family="Helvetica,sans-Serif" font-size="10.00" fill="#000000">+ fly()</text>
</a>
</g>
</g>
<!-- Node0&#45;&gt;Node3 -->
<g id="edge3" class="edge">
<title>Node0&#45;&gt;Node3</title>
<path fill="none" stroke="#191970" d="M209.5308,-98.9627C221.5874,-88.9946 234.3791,-78.4188 246.039,-68.7788"/>
<polygon fill="none" stroke="#191970" points="207.2101,-96.3401 201.7333,-105.4095 211.6705,-101.735 207.2101,-96.3401"/>
</g>
</g>
</svg>
