<?xml version="1.0" encoding="UTF-8" standalone="no"?>
<!DOCTYPE svg PUBLIC "-//W3C//DTD SVG 1.1//EN"
 "http://www.w3.org/Graphics/SVG/1.1/DTD/svg11.dtd">
<!-- Generated by graphviz version 2.40.1 (20161225.0304)
 -->
<!-- Title: Duck Pages: 1 -->
<svg width="436pt" height="270pt"
 viewBox="0.00 0.00 436.00 270.00" xmlns="http://www.w3.org/2000/svg" xmlns:xlink="http://www.w3.org/1999/xlink">
<g id="graph0" class="graph" transform="scale(1 1) rotate(0) translate(4 266)">
<title>Duck</title>
<polygon fill="#ffffff" stroke="transparent" points="-4,4 -4,-266 432,-266 432,4 -4,4"/>
<!-- Node0 -->
<g id="node1" class="node">
<title>Node0</title>
<polygon fill="#bfbfbf" stroke="#000000" points="151.5,-116.5 151.5,-261.5 264.5,-261.5 264.5,-116.5 151.5,-116.5"/>
<text text-anchor="middle" x="208" y="-249.5" font-family="Helvetica,sans-Serif" font-size="10.00" fill="#000000">Duck</text>
<polyline fill="none" stroke="#000000" points="151.5,-242.5 264.5,-242.5 "/>
<text text-anchor="start" x="159.5" y="-230.5" font-family="Helvetica,sans-Serif" font-size="10.00" fill="#000000"># flyBehavior</text>
<text text-anchor="start" x="159.5" y="-219.5" font-family="Helvetica,sans-Serif" font-size="10.00" fill="#000000"># quackBehavior</text>
<polyline fill="none" stroke="#000000" points="151.5,-212.5 264.5,-212.5 "/>
<text text-anchor="start" x="159.5" y="-200.5" font-family="Helvetica,sans-Serif" font-size="10.00" fill="#000000">+ Duck()</text>
<text text-anchor="start" x="159.5" y="-189.5" font-family="Helvetica,sans-Serif" font-size="10.00" fill="#000000">+ ~Duck()</text>
<text text-anchor="start" x="159.5" y="-178.5" font-family="Helvetica,sans-Serif" font-size="10.00" fill="#000000">+ PerformQuack()</text>
<text text-anchor="start" x="159.5" y="-167.5" font-family="Helvetica,sans-Serif" font-size="10.00" fill="#000000">+ Swim()</text>
<text text-anchor="start" x="159.5" y="-156.5" font-family="Helvetica,sans-Serif" font-size="10.00" fill="#000000">+ PerformFly()</text>
<text text-anchor="start" x="159.5" y="-145.5" font-family="Helvetica,sans-Serif" font-size="10.00" fill="#000000">+ Display()</text>
<text text-anchor="start" x="159.5" y="-134.5" font-family="Helvetica,sans-Serif" font-size="10.00" fill="#000000">+ SetFlyBehavior()</text>
<text text-anchor="start" x="159.5" y="-123.5" font-family="Helvetica,sans-Serif" font-size="10.00" fill="#000000">+ SetQuackBehavior()</text>
</g>
<!-- Node1 -->
<g id="node2" class="node">
<title>Node1</title>
<g id="a_node2"><a xlink:href="classMallardDuck.html" target="_top" xlink:title="{MallardDuck\n||+ MallardDuck()\l+ ~MallardDuck()\l+ Display()\l}">
<polygon fill="#ffffff" stroke="#000000" points="0,-.5 0,-79.5 92,-79.5 92,-.5 0,-.5"/>
<text text-anchor="middle" x="46" y="-67.5" font-family="Helvetica,sans-Serif" font-size="10.00" fill="#000000">MallardDuck</text>
<polyline fill="none" stroke="#000000" points="0,-60.5 92,-60.5 "/>
<text text-anchor="middle" x="46" y="-48.5" font-family="Helvetica,sans-Serif" font-size="10.00" fill="#000000"> </text>
<polyline fill="none" stroke="#000000" points="0,-41.5 92,-41.5 "/>
<text text-anchor="start" x="8" y="-29.5" font-family="Helvetica,sans-Serif" font-size="10.00" fill="#000000">+ MallardDuck()</text>
<text text-anchor="start" x="8" y="-18.5" font-family="Helvetica,sans-Serif" font-size="10.00" fill="#000000">+ ~MallardDuck()</text>
<text text-anchor="start" x="8" y="-7.5" font-family="Helvetica,sans-Serif" font-size="10.00" fill="#000000">+ Display()</text>
</a>
</g>
</g>
<!-- Node0&#45;&gt;Node1 -->
<g id="edge1" class="edge">
<title>Node0&#45;&gt;Node1</title>
<path fill="none" stroke="#191970" d="M143.5806,-129.7501C125.2792,-112.9173 105.7981,-94.9995 89.0939,-79.6358"/>
<polygon fill="none" stroke="#191970" points="141.6107,-132.6935 151.3403,-136.887 146.3494,-127.5413 141.6107,-132.6935"/>
</g>
<!-- Node2 -->
<g id="node3" class="node">
<title>Node2</title>
<g id="a_node3"><a xlink:href="classModelDuck.html" target="_top" xlink:title="{ModelDuck\n||+ ModelDuck()\l+ ~ModelDuck()\l+ Display()\l}">
<polygon fill="#ffffff" stroke="#000000" points="110,-.5 110,-79.5 196,-79.5 196,-.5 110,-.5"/>
<text text-anchor="middle" x="153" y="-67.5" font-family="Helvetica,sans-Serif" font-size="10.00" fill="#000000">ModelDuck</text>
<polyline fill="none" stroke="#000000" points="110,-60.5 196,-60.5 "/>
<text text-anchor="middle" x="153" y="-48.5" font-family="Helvetica,sans-Serif" font-size="10.00" fill="#000000"> </text>
<polyline fill="none" stroke="#000000" points="110,-41.5 196,-41.5 "/>
<text text-anchor="start" x="118" y="-29.5" font-family="Helvetica,sans-Serif" font-size="10.00" fill="#000000">+ ModelDuck()</text>
<text text-anchor="start" x="118" y="-18.5" font-family="Helvetica,sans-Serif" font-size="10.00" fill="#000000">+ ~ModelDuck()</text>
<text text-anchor="start" x="118" y="-7.5" font-family="Helvetica,sans-Serif" font-size="10.00" fill="#000000">+ Display()</text>
</a>
</g>
</g>
<!-- Node0&#45;&gt;Node2 -->
<g id="edge2" class="edge">
<title>Node0&#45;&gt;Node2</title>
<path fill="none" stroke="#191970" d="M177.6714,-106.8371C174.2102,-97.4605 170.8095,-88.2475 167.6916,-79.8008"/>
<polygon fill="none" stroke="#191970" points="174.3981,-108.0767 181.1445,-116.246 180.965,-105.6526 174.3981,-108.0767"/>
</g>
<!-- Node3 -->
<g id="node4" class="node">
<title>Node3</title>
<g id="a_node4"><a xlink:href="classRedHeadDuck.html" target="_top" xlink:title="{RedHeadDuck\n||+ RedHeadDuck()\l+ ~RedHeadDuck()\l+ Display()\l}">
<polygon fill="#ffffff" stroke="#000000" points="214,-.5 214,-79.5 314,-79.5 314,-.5 214,-.5"/>
<text text-anchor="middle" x="264" y="-67.5" font-family="Helvetica,sans-Serif" font-size="10.00" fill="#000000">RedHeadDuck</text>
<polyline fill="none" stroke="#000000" points="214,-60.5 314,-60.5 "/>
<text text-anchor="middle" x="264" y="-48.5" font-family="Helvetica,sans-Serif" font-size="10.00" fill="#000000"> </text>
<polyline fill="none" stroke="#000000" points="214,-41.5 314,-41.5 "/>
<text text-anchor="start" x="222" y="-29.5" font-family="Helvetica,sans-Serif" font-size="10.00" fill="#000000">+ RedHeadDuck()</text>
<text text-anchor="start" x="222" y="-18.5" font-family="Helvetica,sans-Serif" font-size="10.00" fill="#000000">+ ~RedHeadDuck()</text>
<text text-anchor="start" x="222" y="-7.5" font-family="Helvetica,sans-Serif" font-size="10.00" fill="#000000">+ Display()</text>
</a>
</g>
</g>
<!-- Node0&#45;&gt;Node3 -->
<g id="edge3" class="edge">
<title>Node0&#45;&gt;Node3</title>
<path fill="none" stroke="#191970" d="M238.88,-106.8371C242.4041,-97.4605 245.8667,-88.2475 249.0413,-79.8008"/>
<polygon fill="none" stroke="#191970" points="235.5857,-105.6539 235.3438,-116.246 242.1382,-108.1166 235.5857,-105.6539"/>
</g>
<!-- Node4 -->
<g id="node5" class="node">
<title>Node4</title>
<g id="a_node5"><a xlink:href="classRubberDucky.html" target="_top" xlink:title="{RubberDucky\n||+ RubberDucky()\l+ ~RubberDucky()\l+ Display()\l}">
<polygon fill="#ffffff" stroke="#000000" points="332,-.5 332,-79.5 428,-79.5 428,-.5 332,-.5"/>
<text text-anchor="middle" x="380" y="-67.5" font-family="Helvetica,sans-Serif" font-size="10.00" fill="#000000">RubberDucky</text>
<polyline fill="none" stroke="#000000" points="332,-60.5 428,-60.5 "/>
<text text-anchor="middle" x="380" y="-48.5" font-family="Helvetica,sans-Serif" font-size="10.00" fill="#000000"> </text>
<polyline fill="none" stroke="#000000" points="332,-41.5 428,-41.5 "/>
<text text-anchor="start" x="340" y="-29.5" font-family="Helvetica,sans-Serif" font-size="10.00" fill="#000000">+ RubberDucky()</text>
<text text-anchor="start" x="340" y="-18.5" font-family="Helvetica,sans-Serif" font-size="10.00" fill="#000000">+ ~RubberDucky()</text>
<text text-anchor="start" x="340" y="-7.5" font-family="Helvetica,sans-Serif" font-size="10.00" fill="#000000">+ Display()</text>
</a>
</g>
</g>
<!-- Node0&#45;&gt;Node4 -->
<g id="edge4" class="edge">
<title>Node0&#45;&gt;Node4</title>
<path fill="none" stroke="#191970" d="M272.5504,-133.0814C293.0323,-115.3383 315.2482,-96.0932 334.1349,-79.732"/>
<polygon fill="none" stroke="#191970" points="270.0626,-130.6058 264.7959,-139.7989 274.646,-135.8966 270.0626,-130.6058"/>
</g>
</g>
</svg>
