<?xml version="1.0" encoding="UTF-8" standalone="no"?>
<!DOCTYPE svg PUBLIC "-//W3C//DTD SVG 1.1//EN"
 "http://www.w3.org/Graphics/SVG/1.1/DTD/svg11.dtd">
<!-- Generated by graphviz version 2.40.1 (20161225.0304)
 -->
<!-- Title: FlyWithWings Pages: 1 -->
<svg width="106pt" height="182pt"
 viewBox="0.00 0.00 106.00 182.00" xmlns="http://www.w3.org/2000/svg" xmlns:xlink="http://www.w3.org/1999/xlink">
<g id="graph0" class="graph" transform="scale(1 1) rotate(0) translate(4 178)">
<title>FlyWithWings</title>
<polygon fill="#ffffff" stroke="transparent" points="-4,4 -4,-178 102,-178 102,4 -4,4"/>
<!-- Node0 -->
<g id="node1" class="node">
<title>Node0</title>
<polygon fill="#bfbfbf" stroke="#000000" points="0,-.5 0,-68.5 98,-68.5 98,-.5 0,-.5"/>
<text text-anchor="middle" x="49" y="-56.5" font-family="Helvetica,sans-Serif" font-size="10.00" fill="#000000">FlyWithWings</text>
<polyline fill="none" stroke="#000000" points="0,-49.5 98,-49.5 "/>
<text text-anchor="middle" x="49" y="-37.5" font-family="Helvetica,sans-Serif" font-size="10.00" fill="#000000"> </text>
<polyline fill="none" stroke="#000000" points="0,-30.5 98,-30.5 "/>
<text text-anchor="start" x="8" y="-18.5" font-family="Helvetica,sans-Serif" font-size="10.00" fill="#000000">+ ~FlyWithWings()</text>
<text text-anchor="start" x="8" y="-7.5" font-family="Helvetica,sans-Serif" font-size="10.00" fill="#000000">+ fly()</text>
</g>
<!-- Node1 -->
<g id="node2" class="node">
<title>Node1</title>
<g id="a_node2"><a xlink:href="classFlyBehavior.html" target="_top" xlink:title="{FlyBehavior\n||+ ~FlyBehavior()\l+ fly()\l}">
<polygon fill="#ffffff" stroke="#000000" points="4.5,-105.5 4.5,-173.5 93.5,-173.5 93.5,-105.5 4.5,-105.5"/>
<text text-anchor="middle" x="49" y="-161.5" font-family="Helvetica,sans-Serif" font-size="10.00" fill="#000000">FlyBehavior</text>
<polyline fill="none" stroke="#000000" points="4.5,-154.5 93.5,-154.5 "/>
<text text-anchor="middle" x="49" y="-142.5" font-family="Helvetica,sans-Serif" font-size="10.00" fill="#000000"> </text>
<polyline fill="none" stroke="#000000" points="4.5,-135.5 93.5,-135.5 "/>
<text text-anchor="start" x="12.5" y="-123.5" font-family="Helvetica,sans-Serif" font-size="10.00" fill="#000000">+ ~FlyBehavior()</text>
<text text-anchor="start" x="12.5" y="-112.5" font-family="Helvetica,sans-Serif" font-size="10.00" fill="#000000">+ fly()</text>
</a>
</g>
</g>
<!-- Node1&#45;&gt;Node0 -->
<g id="edge1" class="edge">
<title>Node1&#45;&gt;Node0</title>
<path fill="none" stroke="#191970" d="M49,-95.2353C49,-86.3902 49,-77.2253 49,-68.7788"/>
<polygon fill="none" stroke="#191970" points="45.5001,-95.4095 49,-105.4095 52.5001,-95.4095 45.5001,-95.4095"/>
</g>
</g>
</svg>
