<?xml version="1.0" encoding="UTF-8" standalone="no"?>
<!DOCTYPE svg PUBLIC "-//W3C//DTD SVG 1.1//EN"
 "http://www.w3.org/Graphics/SVG/1.1/DTD/svg11.dtd">
<!-- Generated by graphviz version 2.40.1 (20161225.0304)
 -->
<!-- Title: Duck Pages: 1 -->
<svg width="220pt" height="259pt"
 viewBox="0.00 0.00 219.50 259.00" xmlns="http://www.w3.org/2000/svg" xmlns:xlink="http://www.w3.org/1999/xlink">
<g id="graph0" class="graph" transform="scale(1 1) rotate(0) translate(4 255)">
<title>Duck</title>
<polygon fill="#ffffff" stroke="transparent" points="-4,4 -4,-255 215.5,-255 215.5,4 -4,4"/>
<!-- Node5 -->
<g id="node1" class="node">
<title>Node5</title>
<polygon fill="#bfbfbf" stroke="#000000" points="52.5,-.5 52.5,-134.5 165.5,-134.5 165.5,-.5 52.5,-.5"/>
<text text-anchor="middle" x="109" y="-122.5" font-family="Helvetica,sans-Serif" font-size="10.00" fill="#000000">Duck</text>
<polyline fill="none" stroke="#000000" points="52.5,-115.5 165.5,-115.5 "/>
<text text-anchor="middle" x="109" y="-103.5" font-family="Helvetica,sans-Serif" font-size="10.00" fill="#000000"> </text>
<polyline fill="none" stroke="#000000" points="52.5,-96.5 165.5,-96.5 "/>
<text text-anchor="start" x="60.5" y="-84.5" font-family="Helvetica,sans-Serif" font-size="10.00" fill="#000000">+ Duck()</text>
<text text-anchor="start" x="60.5" y="-73.5" font-family="Helvetica,sans-Serif" font-size="10.00" fill="#000000">+ ~Duck()</text>
<text text-anchor="start" x="60.5" y="-62.5" font-family="Helvetica,sans-Serif" font-size="10.00" fill="#000000">+ PerformQuack()</text>
<text text-anchor="start" x="60.5" y="-51.5" font-family="Helvetica,sans-Serif" font-size="10.00" fill="#000000">+ Swim()</text>
<text text-anchor="start" x="60.5" y="-40.5" font-family="Helvetica,sans-Serif" font-size="10.00" fill="#000000">+ PerformFly()</text>
<text text-anchor="start" x="60.5" y="-29.5" font-family="Helvetica,sans-Serif" font-size="10.00" fill="#000000">+ Display()</text>
<text text-anchor="start" x="60.5" y="-18.5" font-family="Helvetica,sans-Serif" font-size="10.00" fill="#000000">+ SetFlyBehavior()</text>
<text text-anchor="start" x="60.5" y="-7.5" font-family="Helvetica,sans-Serif" font-size="10.00" fill="#000000">+ SetQuackBehavior()</text>
</g>
<!-- Node6 -->
<g id="node2" class="node">
<title>Node6</title>
<g id="a_node2"><a xlink:href="classQuackBehavior.html" target="_top" xlink:title="{QuackBehavior\n||+ ~QuackBehavior()\l+ quack()\l}">
<polygon fill="#ffffff" stroke="#000000" points="0,-182.5 0,-250.5 104,-250.5 104,-182.5 0,-182.5"/>
<text text-anchor="middle" x="52" y="-238.5" font-family="Helvetica,sans-Serif" font-size="10.00" fill="#000000">QuackBehavior</text>
<polyline fill="none" stroke="#000000" points="0,-231.5 104,-231.5 "/>
<text text-anchor="middle" x="52" y="-219.5" font-family="Helvetica,sans-Serif" font-size="10.00" fill="#000000"> </text>
<polyline fill="none" stroke="#000000" points="0,-212.5 104,-212.5 "/>
<text text-anchor="start" x="8" y="-200.5" font-family="Helvetica,sans-Serif" font-size="10.00" fill="#000000">+ ~QuackBehavior()</text>
<text text-anchor="start" x="8" y="-189.5" font-family="Helvetica,sans-Serif" font-size="10.00" fill="#000000">+ quack()</text>
</a>
</g>
</g>
<!-- Node6&#45;&gt;Node5 -->
<g id="edge1" class="edge">
<title>Node6&#45;&gt;Node5</title>
<path fill="none" stroke="#404040" d="M62.0488,-182.3359C65.0533,-172.7744 68.4881,-162.4224 72,-153 72.8261,-150.7835 73.6786,-148.5412 74.5518,-146.2833"/>
<polygon fill="none" stroke="#404040" points="74.6383,-146.0651 73.1326,-139.013 79.0633,-134.9108 80.5689,-141.963 74.6383,-146.0651"/>
<text text-anchor="middle" x="108.5" y="-156" font-family="Helvetica,sans-Serif" font-size="10.00" fill="#000000"> #quackBehavior</text>
</g>
<!-- Node7 -->
<g id="node3" class="node">
<title>Node7</title>
<g id="a_node3"><a xlink:href="classFlyBehavior.html" target="_top" xlink:title="{FlyBehavior\n||+ ~FlyBehavior()\l+ fly()\l}">
<polygon fill="#ffffff" stroke="#000000" points="122.5,-182.5 122.5,-250.5 211.5,-250.5 211.5,-182.5 122.5,-182.5"/>
<text text-anchor="middle" x="167" y="-238.5" font-family="Helvetica,sans-Serif" font-size="10.00" fill="#000000">FlyBehavior</text>
<polyline fill="none" stroke="#000000" points="122.5,-231.5 211.5,-231.5 "/>
<text text-anchor="middle" x="167" y="-219.5" font-family="Helvetica,sans-Serif" font-size="10.00" fill="#000000"> </text>
<polyline fill="none" stroke="#000000" points="122.5,-212.5 211.5,-212.5 "/>
<text text-anchor="start" x="130.5" y="-200.5" font-family="Helvetica,sans-Serif" font-size="10.00" fill="#000000">+ ~FlyBehavior()</text>
<text text-anchor="start" x="130.5" y="-189.5" font-family="Helvetica,sans-Serif" font-size="10.00" fill="#000000">+ fly()</text>
</a>
</g>
</g>
<!-- Node7&#45;&gt;Node5 -->
<g id="edge2" class="edge">
<title>Node7&#45;&gt;Node5</title>
<path fill="none" stroke="#404040" d="M155.6453,-182.4087C152.3374,-172.8479 148.6329,-162.4781 145,-153 144.0993,-150.6502 143.1745,-148.2686 142.2318,-145.8681"/>
<polygon fill="none" stroke="#404040" points="142.1601,-145.6881 136.2215,-141.5974 137.7135,-134.5423 143.6521,-138.633 142.1601,-145.6881"/>
<text text-anchor="middle" x="177" y="-156" font-family="Helvetica,sans-Serif" font-size="10.00" fill="#000000"> #flyBehavior</text>
</g>
</g>
</svg>
