<?xml version="1.0" encoding="UTF-8" standalone="no"?>
<!DOCTYPE svg PUBLIC "-//W3C//DTD SVG 1.1//EN"
 "http://www.w3.org/Graphics/SVG/1.1/DTD/svg11.dtd">
<!-- Generated by graphviz version 2.40.1 (20161225.0304)
 -->
<!-- Title: QuackBehavior Pages: 1 -->
<svg width="270pt" height="182pt"
 viewBox="0.00 0.00 269.50 182.00" xmlns="http://www.w3.org/2000/svg" xmlns:xlink="http://www.w3.org/1999/xlink">
<g id="graph0" class="graph" transform="scale(1 1) rotate(0) translate(4 178)">
<title>QuackBehavior</title>
<polygon fill="#ffffff" stroke="transparent" points="-4,4 -4,-178 265.5,-178 265.5,4 -4,4"/>
<!-- Node0 -->
<g id="node1" class="node">
<title>Node0</title>
<polygon fill="#bfbfbf" stroke="#000000" points="87,-105.5 87,-173.5 191,-173.5 191,-105.5 87,-105.5"/>
<text text-anchor="middle" x="139" y="-161.5" font-family="Helvetica,sans-Serif" font-size="10.00" fill="#000000">QuackBehavior</text>
<polyline fill="none" stroke="#000000" points="87,-154.5 191,-154.5 "/>
<text text-anchor="middle" x="139" y="-142.5" font-family="Helvetica,sans-Serif" font-size="10.00" fill="#000000"> </text>
<polyline fill="none" stroke="#000000" points="87,-135.5 191,-135.5 "/>
<text text-anchor="start" x="95" y="-123.5" font-family="Helvetica,sans-Serif" font-size="10.00" fill="#000000">+ ~QuackBehavior()</text>
<text text-anchor="start" x="95" y="-112.5" font-family="Helvetica,sans-Serif" font-size="10.00" fill="#000000">+ quack()</text>
</g>
<!-- Node1 -->
<g id="node2" class="node">
<title>Node1</title>
<g id="a_node2"><a xlink:href="classMuteQuack.html" target="_top" xlink:title="{MuteQuack\n||+ ~MuteQuack()\l+ quack()\l}">
<polygon fill="#ffffff" stroke="#000000" points="0,-.5 0,-68.5 88,-68.5 88,-.5 0,-.5"/>
<text text-anchor="middle" x="44" y="-56.5" font-family="Helvetica,sans-Serif" font-size="10.00" fill="#000000">MuteQuack</text>
<polyline fill="none" stroke="#000000" points="0,-49.5 88,-49.5 "/>
<text text-anchor="middle" x="44" y="-37.5" font-family="Helvetica,sans-Serif" font-size="10.00" fill="#000000"> </text>
<polyline fill="none" stroke="#000000" points="0,-30.5 88,-30.5 "/>
<text text-anchor="start" x="8" y="-18.5" font-family="Helvetica,sans-Serif" font-size="10.00" fill="#000000">+ ~MuteQuack()</text>
<text text-anchor="start" x="8" y="-7.5" font-family="Helvetica,sans-Serif" font-size="10.00" fill="#000000">+ quack()</text>
</a>
</g>
</g>
<!-- Node0&#45;&gt;Node1 -->
<g id="edge1" class="edge">
<title>Node0&#45;&gt;Node1</title>
<path fill="none" stroke="#191970" d="M101.2904,-97.821C92.5769,-88.1902 83.4038,-78.0516 75.0141,-68.7788"/>
<polygon fill="none" stroke="#191970" points="98.8517,-100.3423 108.1562,-105.4095 104.0424,-95.6459 98.8517,-100.3423"/>
</g>
<!-- Node2 -->
<g id="node3" class="node">
<title>Node2</title>
<g id="a_node3"><a xlink:href="classQuack.html" target="_top" xlink:title="{Quack\n||+ ~Quack()\l+ quack()\l}">
<polygon fill="#ffffff" stroke="#000000" points="106,-.5 106,-68.5 172,-68.5 172,-.5 106,-.5"/>
<text text-anchor="middle" x="139" y="-56.5" font-family="Helvetica,sans-Serif" font-size="10.00" fill="#000000">Quack</text>
<polyline fill="none" stroke="#000000" points="106,-49.5 172,-49.5 "/>
<text text-anchor="middle" x="139" y="-37.5" font-family="Helvetica,sans-Serif" font-size="10.00" fill="#000000"> </text>
<polyline fill="none" stroke="#000000" points="106,-30.5 172,-30.5 "/>
<text text-anchor="start" x="114" y="-18.5" font-family="Helvetica,sans-Serif" font-size="10.00" fill="#000000">+ ~Quack()</text>
<text text-anchor="start" x="114" y="-7.5" font-family="Helvetica,sans-Serif" font-size="10.00" fill="#000000">+ quack()</text>
</a>
</g>
</g>
<!-- Node0&#45;&gt;Node2 -->
<g id="edge2" class="edge">
<title>Node0&#45;&gt;Node2</title>
<path fill="none" stroke="#191970" d="M139,-95.2353C139,-86.3902 139,-77.2253 139,-68.7788"/>
<polygon fill="none" stroke="#191970" points="135.5001,-95.4095 139,-105.4095 142.5001,-95.4095 135.5001,-95.4095"/>
</g>
<!-- Node3 -->
<g id="node4" class="node">
<title>Node3</title>
<g id="a_node4"><a xlink:href="classSqueak.html" target="_top" xlink:title="{Squeak\n||+ ~Squeak()\l+ quack()\l}">
<polygon fill="#ffffff" stroke="#000000" points="190.5,-.5 190.5,-68.5 261.5,-68.5 261.5,-.5 190.5,-.5"/>
<text text-anchor="middle" x="226" y="-56.5" font-family="Helvetica,sans-Serif" font-size="10.00" fill="#000000">Squeak</text>
<polyline fill="none" stroke="#000000" points="190.5,-49.5 261.5,-49.5 "/>
<text text-anchor="middle" x="226" y="-37.5" font-family="Helvetica,sans-Serif" font-size="10.00" fill="#000000"> </text>
<polyline fill="none" stroke="#000000" points="190.5,-30.5 261.5,-30.5 "/>
<text text-anchor="start" x="198.5" y="-18.5" font-family="Helvetica,sans-Serif" font-size="10.00" fill="#000000">+ ~Squeak()</text>
<text text-anchor="start" x="198.5" y="-7.5" font-family="Helvetica,sans-Serif" font-size="10.00" fill="#000000">+ quack()</text>
</a>
</g>
</g>
<!-- Node0&#45;&gt;Node3 -->
<g id="edge3" class="edge">
<title>Node0&#45;&gt;Node3</title>
<path fill="none" stroke="#191970" d="M173.7712,-97.5348C181.6801,-87.9895 189.9905,-77.9598 197.5976,-68.7788"/>
<polygon fill="none" stroke="#191970" points="170.9315,-95.4762 167.2464,-105.4095 176.3217,-99.9423 170.9315,-95.4762"/>
</g>
</g>
</svg>
