<?xml version="1.0" encoding="UTF-8" standalone="no"?>
<!DOCTYPE svg PUBLIC "-//W3C//DTD SVG 1.1//EN"
 "http://www.w3.org/Graphics/SVG/1.1/DTD/svg11.dtd">
<!-- Generated by graphviz version 2.40.1 (20161225.0304)
 -->
<!-- Title: Quack Pages: 1 -->
<svg width="112pt" height="182pt"
 viewBox="0.00 0.00 112.00 182.00" xmlns="http://www.w3.org/2000/svg" xmlns:xlink="http://www.w3.org/1999/xlink">
<g id="graph0" class="graph" transform="scale(1 1) rotate(0) translate(4 178)">
<title>Quack</title>
<polygon fill="#ffffff" stroke="transparent" points="-4,4 -4,-178 108,-178 108,4 -4,4"/>
<!-- Node0 -->
<g id="node1" class="node">
<title>Node0</title>
<polygon fill="#bfbfbf" stroke="#000000" points="19,-.5 19,-68.5 85,-68.5 85,-.5 19,-.5"/>
<text text-anchor="middle" x="52" y="-56.5" font-family="Helvetica,sans-Serif" font-size="10.00" fill="#000000">Quack</text>
<polyline fill="none" stroke="#000000" points="19,-49.5 85,-49.5 "/>
<text text-anchor="middle" x="52" y="-37.5" font-family="Helvetica,sans-Serif" font-size="10.00" fill="#000000"> </text>
<polyline fill="none" stroke="#000000" points="19,-30.5 85,-30.5 "/>
<text text-anchor="start" x="27" y="-18.5" font-family="Helvetica,sans-Serif" font-size="10.00" fill="#000000">+ ~Quack()</text>
<text text-anchor="start" x="27" y="-7.5" font-family="Helvetica,sans-Serif" font-size="10.00" fill="#000000">+ quack()</text>
</g>
<!-- Node1 -->
<g id="node2" class="node">
<title>Node1</title>
<g id="a_node2"><a xlink:href="classQuackBehavior.html" target="_top" xlink:title="{QuackBehavior\n||+ ~QuackBehavior()\l+ quack()\l}">
<polygon fill="#ffffff" stroke="#000000" points="0,-105.5 0,-173.5 104,-173.5 104,-105.5 0,-105.5"/>
<text text-anchor="middle" x="52" y="-161.5" font-family="Helvetica,sans-Serif" font-size="10.00" fill="#000000">QuackBehavior</text>
<polyline fill="none" stroke="#000000" points="0,-154.5 104,-154.5 "/>
<text text-anchor="middle" x="52" y="-142.5" font-family="Helvetica,sans-Serif" font-size="10.00" fill="#000000"> </text>
<polyline fill="none" stroke="#000000" points="0,-135.5 104,-135.5 "/>
<text text-anchor="start" x="8" y="-123.5" font-family="Helvetica,sans-Serif" font-size="10.00" fill="#000000">+ ~QuackBehavior()</text>
<text text-anchor="start" x="8" y="-112.5" font-family="Helvetica,sans-Serif" font-size="10.00" fill="#000000">+ quack()</text>
</a>
</g>
</g>
<!-- Node1&#45;&gt;Node0 -->
<g id="edge1" class="edge">
<title>Node1&#45;&gt;Node0</title>
<path fill="none" stroke="#191970" d="M52,-95.2353C52,-86.3902 52,-77.2253 52,-68.7788"/>
<polygon fill="none" stroke="#191970" points="48.5001,-95.4095 52,-105.4095 55.5001,-95.4095 48.5001,-95.4095"/>
</g>
</g>
</svg>
