<?xml version="1.0" encoding="UTF-8" standalone="no"?>
<!DOCTYPE svg PUBLIC "-//W3C//DTD SVG 1.1//EN"
 "http://www.w3.org/Graphics/SVG/1.1/DTD/svg11.dtd">
<!-- Generated by graphviz version 2.40.1 (20161225.0304)
 -->
<!-- Title: include/Ducks Pages: 1 -->
<svg width="178pt" height="151pt"
 viewBox="0.00 0.00 177.50 151.00" xmlns="http://www.w3.org/2000/svg" xmlns:xlink="http://www.w3.org/1999/xlink">
<g id="graph0" class="graph" transform="scale(1 1) rotate(0) translate(4 147)">
<title>include/Ducks</title>
<polygon fill="#ffffff" stroke="transparent" points="-4,4 -4,-147 173.5,-147 173.5,4 -4,4"/>
<g id="clust1" class="cluster">
<title>clusterdir_d44c64559bbebec7f509842c48db8b23</title>
<g id="a_clust1"><a xlink:href="dir_d44c64559bbebec7f509842c48db8b23.html" target="_top" xlink:title="include">
<polygon fill="#ddddee" stroke="#000000" points="46,-64 46,-135 116,-135 116,-64 46,-64"/>
<text text-anchor="middle" x="81" y="-123" font-family="Helvetica,sans-Serif" font-size="10.00" fill="#000000">include</text>
</a>
</g>
</g>
<!-- dir_d191af548dfa090e1236505de418a272 -->
<g id="node1" class="node">
<title>dir_d191af548dfa090e1236505de418a272</title>
<g id="a_node1"><a xlink:href="dir_d191af548dfa090e1236505de418a272.html" target="_top" xlink:title="Ducks">
<polygon fill="#eeeeff" stroke="#000000" points="108,-108 54,-108 54,-72 108,-72 108,-108"/>
<text text-anchor="middle" x="81" y="-87.5" font-family="Helvetica,sans-Serif" font-size="10.00" fill="#000000">Ducks</text>
</a>
</g>
</g>
<!-- dir_119a42f11f594e22d17c8df7fe738173 -->
<g id="node2" class="node">
<title>dir_119a42f11f594e22d17c8df7fe738173</title>
<g id="a_node2"><a xlink:href="dir_119a42f11f594e22d17c8df7fe738173.html" target="_top" xlink:title="FlyBehavior">
<polygon fill="none" stroke="#000000" points="68,-36 0,-36 0,0 68,0 68,-36"/>
<text text-anchor="middle" x="34" y="-15.5" font-family="Helvetica,sans-Serif" font-size="10.00" fill="#000000">FlyBehavior</text>
</a>
</g>
</g>
<!-- dir_d191af548dfa090e1236505de418a272&#45;&gt;dir_119a42f11f594e22d17c8df7fe738173 -->
<g id="edge1" class="edge">
<title>dir_d191af548dfa090e1236505de418a272&#45;&gt;dir_119a42f11f594e22d17c8df7fe738173</title>
<path fill="none" stroke="#000000" d="M69.1399,-71.8314C63.8371,-63.7079 57.4763,-53.9637 51.6327,-45.0118"/>
<polygon fill="#000000" stroke="#000000" points="54.4169,-42.8739 46.0198,-36.4133 48.5552,-46.7003 54.4169,-42.8739"/>
<g id="a_edge1&#45;headlabel"><a xlink:href="dir_000006_000007.html" target="_top" xlink:title="5">
<text text-anchor="middle" x="58.7593" y="-41.8319" font-family="Helvetica,sans-Serif" font-size="10.00" fill="#000000">5</text>
</a>
</g>
</g>
<!-- dir_19412b5f9129838ef2d72f9571c0b989 -->
<g id="node3" class="node">
<title>dir_19412b5f9129838ef2d72f9571c0b989</title>
<g id="a_node3"><a xlink:href="dir_19412b5f9129838ef2d72f9571c0b989.html" target="_top" xlink:title="QuackBehavior">
<polygon fill="none" stroke="#000000" points="169.5,-36 86.5,-36 86.5,0 169.5,0 169.5,-36"/>
<text text-anchor="middle" x="128" y="-15.5" font-family="Helvetica,sans-Serif" font-size="10.00" fill="#000000">QuackBehavior</text>
</a>
</g>
</g>
<!-- dir_d191af548dfa090e1236505de418a272&#45;&gt;dir_19412b5f9129838ef2d72f9571c0b989 -->
<g id="edge2" class="edge">
<title>dir_d191af548dfa090e1236505de418a272&#45;&gt;dir_19412b5f9129838ef2d72f9571c0b989</title>
<path fill="none" stroke="#000000" d="M92.8601,-71.8314C98.1629,-63.7079 104.5237,-53.9637 110.3673,-45.0118"/>
<polygon fill="#000000" stroke="#000000" points="113.4448,-46.7003 115.9802,-36.4133 107.5831,-42.8739 113.4448,-46.7003"/>
<g id="a_edge2&#45;headlabel"><a xlink:href="dir_000006_000008.html" target="_top" xlink:title="5">
<text text-anchor="middle" x="113.8575" y="-48.7623" font-family="Helvetica,sans-Serif" font-size="10.00" fill="#000000">5</text>
</a>
</g>
</g>
</g>
</svg>
