<?xml version="1.0" encoding="UTF-8" standalone="no"?>
<!DOCTYPE svg PUBLIC "-//W3C//DTD SVG 1.1//EN"
 "http://www.w3.org/Graphics/SVG/1.1/DTD/svg11.dtd">
<!-- Generated by graphviz version 2.40.1 (20161225.0304)
 -->
<!-- Title: src Pages: 1 -->
<svg width="354pt" height="132pt"
 viewBox="0.00 0.00 354.00 132.00" xmlns="http://www.w3.org/2000/svg" xmlns:xlink="http://www.w3.org/1999/xlink">
<g id="graph0" class="graph" transform="scale(1 1) rotate(0) translate(4 128)">
<title>src</title>
<polygon fill="#ffffff" stroke="transparent" points="-4,4 -4,-128 350,-128 350,4 -4,4"/>
<g id="clust1" class="cluster">
<title>clusterdir_68267d1309a1af8e8297ef4c3efbcdba</title>
<g id="a_clust1"><a xlink:href="dir_68267d1309a1af8e8297ef4c3efbcdba.html" target="_top">
<polygon fill="#eeeeff" stroke="#000000" points="8,-64 8,-116 338,-116 338,-64 8,-64"/>
</a>
</g>
</g>
<!-- dir_68267d1309a1af8e8297ef4c3efbcdba -->
<g id="node1" class="node">
<title>dir_68267d1309a1af8e8297ef4c3efbcdba</title>
<text text-anchor="middle" x="303" y="-87.5" font-family="Helvetica,sans-Serif" font-size="10.00" fill="#000000">src</text>
</g>
<!-- dir_978795e90a3da7818437a72e75b84db8 -->
<g id="node2" class="node">
<title>dir_978795e90a3da7818437a72e75b84db8</title>
<g id="a_node2"><a xlink:href="dir_978795e90a3da7818437a72e75b84db8.html" target="_top" xlink:title="Ducks">
<polygon fill="#ffffff" stroke="#000000" points="258,-108 204,-108 204,-72 258,-72 258,-108"/>
<text text-anchor="middle" x="231" y="-87.5" font-family="Helvetica,sans-Serif" font-size="10.00" fill="#000000">Ducks</text>
</a>
</g>
</g>
<!-- dir_d44c64559bbebec7f509842c48db8b23 -->
<g id="node5" class="node">
<title>dir_d44c64559bbebec7f509842c48db8b23</title>
<g id="a_node5"><a xlink:href="dir_d44c64559bbebec7f509842c48db8b23.html" target="_top" xlink:title="include">
<polygon fill="#ffffff" stroke="#ff0000" points="179,-36 125,-36 125,0 179,0 179,-36"/>
<text text-anchor="middle" x="152" y="-15.5" font-family="Helvetica,sans-Serif" font-size="10.00" fill="#000000">include</text>
</a>
</g>
</g>
<!-- dir_978795e90a3da7818437a72e75b84db8&#45;&gt;dir_d44c64559bbebec7f509842c48db8b23 -->
<g id="edge1" class="edge">
<title>dir_978795e90a3da7818437a72e75b84db8&#45;&gt;dir_d44c64559bbebec7f509842c48db8b23</title>
<path fill="none" stroke="#000000" d="M211.065,-71.8314C201.5217,-63.1337 189.9401,-52.5783 179.5694,-43.1265"/>
<polygon fill="#000000" stroke="#000000" points="181.6772,-40.3121 171.9287,-36.1628 176.962,-45.4857 181.6772,-40.3121"/>
<g id="a_edge1&#45;headlabel"><a xlink:href="dir_000010_000005.html" target="_top" xlink:title="5">
<text text-anchor="middle" x="186.2465" y="-38.1349" font-family="Helvetica,sans-Serif" font-size="10.00" fill="#000000">5</text>
</a>
</g>
</g>
<!-- dir_ccd484a6e4fe7f2583f31399af0a4f38 -->
<g id="node3" class="node">
<title>dir_ccd484a6e4fe7f2583f31399af0a4f38</title>
<g id="a_node3"><a xlink:href="dir_ccd484a6e4fe7f2583f31399af0a4f38.html" target="_top" xlink:title="FlyBehavior">
<polygon fill="#ffffff" stroke="#000000" points="186,-108 118,-108 118,-72 186,-72 186,-108"/>
<text text-anchor="middle" x="152" y="-87.5" font-family="Helvetica,sans-Serif" font-size="10.00" fill="#000000">FlyBehavior</text>
</a>
</g>
</g>
<!-- dir_ccd484a6e4fe7f2583f31399af0a4f38&#45;&gt;dir_d44c64559bbebec7f509842c48db8b23 -->
<g id="edge3" class="edge">
<title>dir_ccd484a6e4fe7f2583f31399af0a4f38&#45;&gt;dir_d44c64559bbebec7f509842c48db8b23</title>
<path fill="none" stroke="#000000" d="M152,-71.8314C152,-64.131 152,-54.9743 152,-46.4166"/>
<polygon fill="#000000" stroke="#000000" points="155.5001,-46.4132 152,-36.4133 148.5001,-46.4133 155.5001,-46.4132"/>
<g id="a_edge3&#45;headlabel"><a xlink:href="dir_000011_000005.html" target="_top" xlink:title="4">
<text text-anchor="middle" x="158.3393" y="-47.5079" font-family="Helvetica,sans-Serif" font-size="10.00" fill="#000000">4</text>
</a>
</g>
</g>
<!-- dir_603ef6177b497266351cbf3ef9d1ebd1 -->
<g id="node4" class="node">
<title>dir_603ef6177b497266351cbf3ef9d1ebd1</title>
<g id="a_node4"><a xlink:href="dir_603ef6177b497266351cbf3ef9d1ebd1.html" target="_top" xlink:title="QuackBehavior">
<polygon fill="#ffffff" stroke="#000000" points="99.5,-108 16.5,-108 16.5,-72 99.5,-72 99.5,-108"/>
<text text-anchor="middle" x="58" y="-87.5" font-family="Helvetica,sans-Serif" font-size="10.00" fill="#000000">QuackBehavior</text>
</a>
</g>
</g>
<!-- dir_603ef6177b497266351cbf3ef9d1ebd1&#45;&gt;dir_d44c64559bbebec7f509842c48db8b23 -->
<g id="edge2" class="edge">
<title>dir_603ef6177b497266351cbf3ef9d1ebd1&#45;&gt;dir_d44c64559bbebec7f509842c48db8b23</title>
<path fill="none" stroke="#000000" d="M81.7202,-71.8314C93.4094,-62.8779 107.6688,-51.9558 120.2809,-42.2955"/>
<polygon fill="#000000" stroke="#000000" points="122.4769,-45.0222 128.2874,-36.1628 118.2203,-39.4651 122.4769,-45.0222"/>
<g id="a_edge2&#45;headlabel"><a xlink:href="dir_000012_000005.html" target="_top" xlink:title="4">
<text text-anchor="middle" x="121.3497" y="-46.962" font-family="Helvetica,sans-Serif" font-size="10.00" fill="#000000">4</text>
</a>
</g>
</g>
</g>
</svg>
