<?xml version="1.0" encoding="UTF-8" standalone="no"?>
<!DOCTYPE svg PUBLIC "-//W3C//DTD SVG 1.1//EN"
 "http://www.w3.org/Graphics/SVG/1.1/DTD/svg11.dtd">
<!-- Generated by graphviz version 2.40.1 (20161225.0304)
 -->
<!-- Title: include Pages: 1 -->
<svg width="210pt" height="148pt"
 viewBox="0.00 0.00 210.00 148.00" xmlns="http://www.w3.org/2000/svg" xmlns:xlink="http://www.w3.org/1999/xlink">
<g id="graph0" class="graph" transform="scale(1 1) rotate(0) translate(4 144)">
<title>include</title>
<polygon fill="#ffffff" stroke="transparent" points="-4,4 -4,-144 206,-144 206,4 -4,4"/>
<g id="clust1" class="cluster">
<title>clusterdir_d44c64559bbebec7f509842c48db8b23</title>
<g id="a_clust1"><a xlink:href="dir_d44c64559bbebec7f509842c48db8b23.html" target="_top">
<polygon fill="#eeeeff" stroke="#000000" points="8,-8 8,-132 194,-132 194,-8 8,-8"/>
</a>
</g>
</g>
<!-- dir_d44c64559bbebec7f509842c48db8b23 -->
<g id="node1" class="node">
<title>dir_d44c64559bbebec7f509842c48db8b23</title>
<text text-anchor="middle" x="149" y="-103.5" font-family="Helvetica,sans-Serif" font-size="10.00" fill="#000000">include</text>
</g>
<!-- dir_d191af548dfa090e1236505de418a272 -->
<g id="node2" class="node">
<title>dir_d191af548dfa090e1236505de418a272</title>
<g id="a_node2"><a xlink:href="dir_d191af548dfa090e1236505de418a272.html" target="_top" xlink:title="Ducks">
<polygon fill="#ffffff" stroke="#000000" points="86,-124 32,-124 32,-88 86,-88 86,-124"/>
<text text-anchor="middle" x="59" y="-103.5" font-family="Helvetica,sans-Serif" font-size="10.00" fill="#000000">Ducks</text>
</a>
</g>
</g>
<!-- dir_119a42f11f594e22d17c8df7fe738173 -->
<g id="node3" class="node">
<title>dir_119a42f11f594e22d17c8df7fe738173</title>
<g id="a_node3"><a xlink:href="dir_119a42f11f594e22d17c8df7fe738173.html" target="_top" xlink:title="FlyBehavior">
<polygon fill="#ffffff" stroke="#000000" points="84,-52 16,-52 16,-16 84,-16 84,-52"/>
<text text-anchor="middle" x="50" y="-31.5" font-family="Helvetica,sans-Serif" font-size="10.00" fill="#000000">FlyBehavior</text>
</a>
</g>
</g>
<!-- dir_d191af548dfa090e1236505de418a272&#45;&gt;dir_119a42f11f594e22d17c8df7fe738173 -->
<g id="edge1" class="edge">
<title>dir_d191af548dfa090e1236505de418a272&#45;&gt;dir_119a42f11f594e22d17c8df7fe738173</title>
<path fill="none" stroke="#000000" d="M56.7289,-87.8314C55.7664,-80.131 54.6218,-70.9743 53.5521,-62.4166"/>
<polygon fill="#000000" stroke="#000000" points="57.0151,-61.9019 52.3017,-52.4133 50.0691,-62.7702 57.0151,-61.9019"/>
<g id="a_edge1&#45;headlabel"><a xlink:href="dir_000006_000007.html" target="_top" xlink:title="5">
<text text-anchor="middle" x="60.2782" y="-62.6166" font-family="Helvetica,sans-Serif" font-size="10.00" fill="#000000">5</text>
</a>
</g>
</g>
<!-- dir_19412b5f9129838ef2d72f9571c0b989 -->
<g id="node4" class="node">
<title>dir_19412b5f9129838ef2d72f9571c0b989</title>
<g id="a_node4"><a xlink:href="dir_19412b5f9129838ef2d72f9571c0b989.html" target="_top" xlink:title="QuackBehavior">
<polygon fill="#ffffff" stroke="#000000" points="185.5,-52 102.5,-52 102.5,-16 185.5,-16 185.5,-52"/>
<text text-anchor="middle" x="144" y="-31.5" font-family="Helvetica,sans-Serif" font-size="10.00" fill="#000000">QuackBehavior</text>
</a>
</g>
</g>
<!-- dir_d191af548dfa090e1236505de418a272&#45;&gt;dir_19412b5f9129838ef2d72f9571c0b989 -->
<g id="edge2" class="edge">
<title>dir_d191af548dfa090e1236505de418a272&#45;&gt;dir_19412b5f9129838ef2d72f9571c0b989</title>
<path fill="none" stroke="#000000" d="M80.4491,-87.8314C90.8178,-79.0485 103.4229,-68.3712 114.6646,-58.8489"/>
<polygon fill="#000000" stroke="#000000" points="117.1895,-61.297 122.5578,-52.1628 112.6651,-55.9556 117.1895,-61.297"/>
<g id="a_edge2&#45;headlabel"><a xlink:href="dir_000006_000008.html" target="_top" xlink:title="5">
<text text-anchor="middle" x="116.2818" y="-63.2868" font-family="Helvetica,sans-Serif" font-size="10.00" fill="#000000">5</text>
</a>
</g>
</g>
</g>
</svg>
