<?xml version="1.0" encoding="UTF-8" standalone="no"?>
<!DOCTYPE svg PUBLIC "-//W3C//DTD SVG 1.1//EN"
 "http://www.w3.org/Graphics/SVG/1.1/DTD/svg11.dtd">
<!-- Generated by graphviz version 2.40.1 (20161225.0304)
 -->
<!-- Title: include/Ducks/Duck.h Pages: 1 -->
<svg width="213pt" height="140pt"
 viewBox="0.00 0.00 213.00 140.00" xmlns="http://www.w3.org/2000/svg" xmlns:xlink="http://www.w3.org/1999/xlink">
<g id="graph0" class="graph" transform="scale(1 1) rotate(0) translate(4 136)">
<title>include/Ducks/Duck.h</title>
<polygon fill="#ffffff" stroke="transparent" points="-4,4 -4,-136 209,-136 209,4 -4,4"/>
<!-- Node0 -->
<g id="node1" class="node">
<title>Node0</title>
<polygon fill="#bfbfbf" stroke="#000000" points="0,-112.5 0,-131.5 112,-131.5 112,-112.5 0,-112.5"/>
<text text-anchor="middle" x="56" y="-119.5" font-family="Helvetica,sans-Serif" font-size="10.00" fill="#000000">include/Ducks/Duck.h</text>
</g>
<!-- Node1 -->
<g id="node2" class="node">
<title>Node1</title>
<polygon fill="#ffffff" stroke="#bfbfbf" points="29,-.5 29,-19.5 83,-19.5 83,-.5 29,-.5"/>
<text text-anchor="middle" x="56" y="-7.5" font-family="Helvetica,sans-Serif" font-size="10.00" fill="#000000">iostream</text>
</g>
<!-- Node0&#45;&gt;Node1 -->
<g id="edge1" class="edge">
<title>Node0&#45;&gt;Node1</title>
<path fill="none" stroke="#191970" d="M40.4938,-112.3733C23.1021,-100.2457 -1.5091,-78.2835 8,-56 13.1156,-44.0122 23.0575,-33.6498 32.5727,-25.8114"/>
<polygon fill="#191970" stroke="#191970" points="34.8797,-28.4532 40.6926,-19.5954 30.6246,-22.8949 34.8797,-28.4532"/>
</g>
<!-- Node2 -->
<g id="node3" class="node">
<title>Node2</title>
<g id="a_node3"><a xlink:href="FlyBehavior_8h.html" target="_top" xlink:title="FlyBehavior.h">
<polygon fill="#ffffff" stroke="#000000" points="17.5,-56.5 17.5,-75.5 94.5,-75.5 94.5,-56.5 17.5,-56.5"/>
<text text-anchor="middle" x="56" y="-63.5" font-family="Helvetica,sans-Serif" font-size="10.00" fill="#000000">FlyBehavior.h</text>
</a>
</g>
</g>
<!-- Node0&#45;&gt;Node2 -->
<g id="edge2" class="edge">
<title>Node0&#45;&gt;Node2</title>
<path fill="none" stroke="#191970" d="M56,-112.2455C56,-104.9382 56,-94.6944 56,-85.7046"/>
<polygon fill="#191970" stroke="#191970" points="59.5001,-85.6426 56,-75.6427 52.5001,-85.6427 59.5001,-85.6426"/>
</g>
<!-- Node3 -->
<g id="node4" class="node">
<title>Node3</title>
<g id="a_node4"><a xlink:href="QuackBehavior_8h.html" target="_top" xlink:title="QuackBehavior.h">
<polygon fill="#ffffff" stroke="#000000" points="113,-56.5 113,-75.5 205,-75.5 205,-56.5 113,-56.5"/>
<text text-anchor="middle" x="159" y="-63.5" font-family="Helvetica,sans-Serif" font-size="10.00" fill="#000000">QuackBehavior.h</text>
</a>
</g>
</g>
<!-- Node0&#45;&gt;Node3 -->
<g id="edge4" class="edge">
<title>Node0&#45;&gt;Node3</title>
<path fill="none" stroke="#191970" d="M73.9412,-112.2455C90.04,-103.4928 113.8879,-90.527 132.2391,-80.5496"/>
<polygon fill="#191970" stroke="#191970" points="134.1507,-83.4942 141.2644,-75.6427 130.8071,-77.3444 134.1507,-83.4942"/>
</g>
<!-- Node2&#45;&gt;Node1 -->
<g id="edge3" class="edge">
<title>Node2&#45;&gt;Node1</title>
<path fill="none" stroke="#191970" d="M56,-56.2455C56,-48.9382 56,-38.6944 56,-29.7046"/>
<polygon fill="#191970" stroke="#191970" points="59.5001,-29.6426 56,-19.6427 52.5001,-29.6427 59.5001,-29.6426"/>
</g>
<!-- Node3&#45;&gt;Node1 -->
<g id="edge5" class="edge">
<title>Node3&#45;&gt;Node1</title>
<path fill="none" stroke="#191970" d="M141.0588,-56.2455C124.96,-47.4928 101.1121,-34.527 82.7609,-24.5496"/>
<polygon fill="#191970" stroke="#191970" points="84.1929,-21.3444 73.7356,-19.6427 80.8493,-27.4942 84.1929,-21.3444"/>
</g>
</g>
</svg>
