<?xml version="1.0" encoding="UTF-8" standalone="no"?>
<!DOCTYPE svg PUBLIC "-//W3C//DTD SVG 1.1//EN"
 "http://www.w3.org/Graphics/SVG/1.1/DTD/svg11.dtd">
<!-- Generated by graphviz version 2.40.1 (20161225.0304)
 -->
<!-- Title: include/Ducks/Duck.h Pages: 1 -->
<svg width="818pt" height="140pt"
 viewBox="0.00 0.00 818.00 140.00" xmlns="http://www.w3.org/2000/svg" xmlns:xlink="http://www.w3.org/1999/xlink">
<g id="graph0" class="graph" transform="scale(1 1) rotate(0) translate(4 136)">
<title>include/Ducks/Duck.h</title>
<polygon fill="#ffffff" stroke="transparent" points="-4,4 -4,-136 814,-136 814,4 -4,4"/>
<!-- Node4 -->
<g id="node1" class="node">
<title>Node4</title>
<polygon fill="#bfbfbf" stroke="#000000" points="336.5,-112.5 336.5,-131.5 448.5,-131.5 448.5,-112.5 336.5,-112.5"/>
<text text-anchor="middle" x="392.5" y="-119.5" font-family="Helvetica,sans-Serif" font-size="10.00" fill="#000000">include/Ducks/Duck.h</text>
</g>
<!-- Node5 -->
<g id="node2" class="node">
<title>Node5</title>
<g id="a_node2"><a xlink:href="MallardDuck_8h.html" target="_top" xlink:title="include/Ducks/MallardDuck.h">
<polygon fill="#ffffff" stroke="#000000" points="13,-56.5 13,-75.5 156,-75.5 156,-56.5 13,-56.5"/>
<text text-anchor="middle" x="84.5" y="-63.5" font-family="Helvetica,sans-Serif" font-size="10.00" fill="#000000">include/Ducks/MallardDuck.h</text>
</a>
</g>
</g>
<!-- Node4&#45;&gt;Node5 -->
<g id="edge1" class="edge">
<title>Node4&#45;&gt;Node5</title>
<path fill="none" stroke="#191970" d="M329.9629,-110.6296C273.1481,-100.2997 190.2876,-85.2341 136.8802,-75.5237"/>
<polygon fill="#191970" stroke="#191970" points="329.438,-114.0915 339.9029,-112.4369 330.6903,-107.2044 329.438,-114.0915"/>
</g>
<!-- Node7 -->
<g id="node4" class="node">
<title>Node7</title>
<g id="a_node4"><a xlink:href="main_8cpp.html" target="_top" xlink:title="src/main.cpp">
<polygon fill="#ffffff" stroke="#000000" points="304,-.5 304,-19.5 377,-19.5 377,-.5 304,-.5"/>
<text text-anchor="middle" x="340.5" y="-7.5" font-family="Helvetica,sans-Serif" font-size="10.00" fill="#000000">src/main.cpp</text>
</a>
</g>
</g>
<!-- Node4&#45;&gt;Node7 -->
<g id="edge14" class="edge">
<title>Node4&#45;&gt;Node7</title>
<path fill="none" stroke="#191970" d="M377.6628,-104.3515C371.3528,-96.145 364.3479,-86.0026 359.5,-76 350.3474,-57.1154 344.7991,-33.0018 342.2253,-19.775"/>
<polygon fill="#191970" stroke="#191970" points="375.1213,-106.7773 384.1022,-112.3984 380.5868,-102.4037 375.1213,-106.7773"/>
</g>
<!-- Node8 -->
<g id="node5" class="node">
<title>Node8</title>
<g id="a_node5"><a xlink:href="ModelDuck_8h.html" target="_top" xlink:title="include/Ducks/ModelDuck.h">
<polygon fill="#ffffff" stroke="#000000" points="174.5,-56.5 174.5,-75.5 312.5,-75.5 312.5,-56.5 174.5,-56.5"/>
<text text-anchor="middle" x="243.5" y="-63.5" font-family="Helvetica,sans-Serif" font-size="10.00" fill="#000000">include/Ducks/ModelDuck.h</text>
</a>
</g>
</g>
<!-- Node4&#45;&gt;Node8 -->
<g id="edge4" class="edge">
<title>Node4&#45;&gt;Node8</title>
<path fill="none" stroke="#191970" d="M357.3488,-108.7888C330.1432,-98.5639 293.1191,-84.6488 268.7798,-75.5011"/>
<polygon fill="#191970" stroke="#191970" points="356.2939,-112.1313 366.886,-112.3733 358.7566,-105.5788 356.2939,-112.1313"/>
</g>
<!-- Node10 -->
<g id="node7" class="node">
<title>Node10</title>
<g id="a_node7"><a xlink:href="RedHeadDuck_8h.html" target="_top" xlink:title="include/Ducks/RedHeadDuck.h">
<polygon fill="#ffffff" stroke="#000000" points="368.5,-56.5 368.5,-75.5 520.5,-75.5 520.5,-56.5 368.5,-56.5"/>
<text text-anchor="middle" x="444.5" y="-63.5" font-family="Helvetica,sans-Serif" font-size="10.00" fill="#000000">include/Ducks/RedHeadDuck.h</text>
</a>
</g>
</g>
<!-- Node4&#45;&gt;Node10 -->
<g id="edge7" class="edge">
<title>Node4&#45;&gt;Node10</title>
<path fill="none" stroke="#191970" d="M408.4822,-104.7884C417.3778,-95.2085 428.1204,-83.6396 435.5461,-75.6427"/>
<polygon fill="#191970" stroke="#191970" points="405.7975,-102.536 401.5577,-112.2455 410.927,-107.2992 405.7975,-102.536"/>
</g>
<!-- Node12 -->
<g id="node9" class="node">
<title>Node12</title>
<g id="a_node9"><a xlink:href="RubberDucky_8h.html" target="_top" xlink:title="include/Ducks/RubberDucky.h">
<polygon fill="#ffffff" stroke="#000000" points="538.5,-56.5 538.5,-75.5 686.5,-75.5 686.5,-56.5 538.5,-56.5"/>
<text text-anchor="middle" x="612.5" y="-63.5" font-family="Helvetica,sans-Serif" font-size="10.00" fill="#000000">include/Ducks/RubberDucky.h</text>
</a>
</g>
</g>
<!-- Node4&#45;&gt;Node12 -->
<g id="edge10" class="edge">
<title>Node4&#45;&gt;Node12</title>
<path fill="none" stroke="#191970" d="M440.2278,-109.8511C480.7112,-99.5462 537.976,-84.9697 575.1742,-75.5011"/>
<polygon fill="#191970" stroke="#191970" points="439.1469,-106.5145 430.3193,-112.3733 440.8737,-113.2982 439.1469,-106.5145"/>
</g>
<!-- Node14 -->
<g id="node11" class="node">
<title>Node14</title>
<g id="a_node11"><a xlink:href="Duck_8cpp.html" target="_top" xlink:title="src/Ducks/Duck.cpp">
<polygon fill="#ffffff" stroke="#000000" points="705,-56.5 705,-75.5 810,-75.5 810,-56.5 705,-56.5"/>
<text text-anchor="middle" x="757.5" y="-63.5" font-family="Helvetica,sans-Serif" font-size="10.00" fill="#000000">src/Ducks/Duck.cpp</text>
</a>
</g>
</g>
<!-- Node4&#45;&gt;Node14 -->
<g id="edge13" class="edge">
<title>Node4&#45;&gt;Node14</title>
<path fill="none" stroke="#191970" d="M458.5916,-112.1461C519.992,-102.949 613.9613,-88.7648 695.5,-76 698.5161,-75.5278 701.6141,-75.0393 704.7401,-74.5437"/>
<polygon fill="#191970" stroke="#191970" points="458.0193,-108.6927 448.6477,-113.6347 459.0556,-115.6156 458.0193,-108.6927"/>
</g>
<!-- Node6 -->
<g id="node3" class="node">
<title>Node6</title>
<g id="a_node3"><a xlink:href="MallardDuck_8cpp.html" target="_top" xlink:title="src/Ducks/MallardDuck.cpp">
<polygon fill="#ffffff" stroke="#000000" points="0,-.5 0,-19.5 137,-19.5 137,-.5 0,-.5"/>
<text text-anchor="middle" x="68.5" y="-7.5" font-family="Helvetica,sans-Serif" font-size="10.00" fill="#000000">src/Ducks/MallardDuck.cpp</text>
</a>
</g>
</g>
<!-- Node5&#45;&gt;Node6 -->
<g id="edge2" class="edge">
<title>Node5&#45;&gt;Node6</title>
<path fill="none" stroke="#191970" d="M78.9154,-46.4538C76.323,-37.3803 73.3571,-26.9998 71.255,-19.6427"/>
<polygon fill="#191970" stroke="#191970" points="75.6004,-47.5919 81.713,-56.2455 82.3311,-45.6688 75.6004,-47.5919"/>
</g>
<!-- Node5&#45;&gt;Node7 -->
<g id="edge3" class="edge">
<title>Node5&#45;&gt;Node7</title>
<path fill="none" stroke="#191970" d="M138.1301,-54.2684C187.7478,-43.4145 260.1933,-27.5671 303.6074,-18.0702"/>
<polygon fill="#191970" stroke="#191970" points="137.2381,-50.8807 128.2171,-56.4369 138.7341,-57.719 137.2381,-50.8807"/>
</g>
<!-- Node8&#45;&gt;Node7 -->
<g id="edge6" class="edge">
<title>Node8&#45;&gt;Node7</title>
<path fill="none" stroke="#191970" d="M269.4016,-51.0465C286.6609,-41.0824 308.8376,-28.2794 323.7975,-19.6427"/>
<polygon fill="#191970" stroke="#191970" points="267.3065,-48.2146 260.3961,-56.2455 270.8064,-54.2768 267.3065,-48.2146"/>
</g>
<!-- Node9 -->
<g id="node6" class="node">
<title>Node9</title>
<g id="a_node6"><a xlink:href="ModelDuck_8cpp.html" target="_top" xlink:title="src/Ducks/ModelDuck.cpp">
<polygon fill="#ffffff" stroke="#000000" points="155,-.5 155,-19.5 286,-19.5 286,-.5 155,-.5"/>
<text text-anchor="middle" x="220.5" y="-7.5" font-family="Helvetica,sans-Serif" font-size="10.00" fill="#000000">src/Ducks/ModelDuck.cpp</text>
</a>
</g>
</g>
<!-- Node8&#45;&gt;Node9 -->
<g id="edge5" class="edge">
<title>Node8&#45;&gt;Node9</title>
<path fill="none" stroke="#191970" d="M235.5934,-46.7493C231.8383,-37.6064 227.5149,-27.0798 224.4604,-19.6427"/>
<polygon fill="#191970" stroke="#191970" points="232.4569,-48.3251 239.4937,-56.2455 238.932,-45.6656 232.4569,-48.3251"/>
</g>
<!-- Node10&#45;&gt;Node7 -->
<g id="edge9" class="edge">
<title>Node10&#45;&gt;Node7</title>
<path fill="none" stroke="#191970" d="M417.4971,-51.46C398.8864,-41.4388 374.6701,-28.3993 358.4078,-19.6427"/>
<polygon fill="#191970" stroke="#191970" points="415.9205,-54.5861 426.3846,-56.2455 419.2392,-48.4228 415.9205,-54.5861"/>
</g>
<!-- Node11 -->
<g id="node8" class="node">
<title>Node11</title>
<g id="a_node8"><a xlink:href="RedHeadDuck_8cpp.html" target="_top" xlink:title="src/Ducks/RedHeadDuck.cpp">
<polygon fill="#ffffff" stroke="#000000" points="395,-.5 395,-19.5 540,-19.5 540,-.5 395,-.5"/>
<text text-anchor="middle" x="467.5" y="-7.5" font-family="Helvetica,sans-Serif" font-size="10.00" fill="#000000">src/Ducks/RedHeadDuck.cpp</text>
</a>
</g>
</g>
<!-- Node10&#45;&gt;Node11 -->
<g id="edge8" class="edge">
<title>Node10&#45;&gt;Node11</title>
<path fill="none" stroke="#191970" d="M452.4066,-46.7493C456.1617,-37.6064 460.4851,-27.0798 463.5396,-19.6427"/>
<polygon fill="#191970" stroke="#191970" points="449.068,-45.6656 448.5063,-56.2455 455.5431,-48.3251 449.068,-45.6656"/>
</g>
<!-- Node12&#45;&gt;Node7 -->
<g id="edge12" class="edge">
<title>Node12&#45;&gt;Node7</title>
<path fill="none" stroke="#191970" d="M554.8283,-54.4807C509.1344,-45.301 443.6908,-32.0361 386.5,-20 383.461,-19.3604 380.3106,-18.6904 377.1489,-18.013"/>
<polygon fill="#191970" stroke="#191970" points="554.3515,-57.9548 564.8448,-56.4911 555.7291,-51.0917 554.3515,-57.9548"/>
</g>
<!-- Node13 -->
<g id="node10" class="node">
<title>Node13</title>
<g id="a_node10"><a xlink:href="RubberDucky_8cpp.html" target="_top" xlink:title="src/Ducks/RubberDucky.cpp">
<polygon fill="#ffffff" stroke="#000000" points="558,-.5 558,-19.5 699,-19.5 699,-.5 558,-.5"/>
<text text-anchor="middle" x="628.5" y="-7.5" font-family="Helvetica,sans-Serif" font-size="10.00" fill="#000000">src/Ducks/RubberDucky.cpp</text>
</a>
</g>
</g>
<!-- Node12&#45;&gt;Node13 -->
<g id="edge11" class="edge">
<title>Node12&#45;&gt;Node13</title>
<path fill="none" stroke="#191970" d="M618.0846,-46.4538C620.677,-37.3803 623.6429,-26.9998 625.745,-19.6427"/>
<polygon fill="#191970" stroke="#191970" points="614.6689,-45.6688 615.287,-56.2455 621.3996,-47.5919 614.6689,-45.6688"/>
</g>
</g>
</svg>
