<?xml version="1.0" encoding="UTF-8" standalone="no"?>
<!DOCTYPE svg PUBLIC "-//W3C//DTD SVG 1.1//EN"
 "http://www.w3.org/Graphics/SVG/1.1/DTD/svg11.dtd">
<!-- Generated by graphviz version 2.40.1 (20161225.0304)
 -->
<!-- Title: src/Ducks/Duck.cpp Pages: 1 -->
<svg width="210pt" height="196pt"
 viewBox="0.00 0.00 209.50 196.00" xmlns="http://www.w3.org/2000/svg" xmlns:xlink="http://www.w3.org/1999/xlink">
<g id="graph0" class="graph" transform="scale(1 1) rotate(0) translate(4 192)">
<title>src/Ducks/Duck.cpp</title>
<polygon fill="#ffffff" stroke="transparent" points="-4,4 -4,-192 205.5,-192 205.5,4 -4,4"/>
<!-- Node0 -->
<g id="node1" class="node">
<title>Node0</title>
<polygon fill="#bfbfbf" stroke="#000000" points="0,-168.5 0,-187.5 105,-187.5 105,-168.5 0,-168.5"/>
<text text-anchor="middle" x="52.5" y="-175.5" font-family="Helvetica,sans-Serif" font-size="10.00" fill="#000000">src/Ducks/Duck.cpp</text>
</g>
<!-- Node1 -->
<g id="node2" class="node">
<title>Node1</title>
<g id="a_node2"><a xlink:href="Duck_8h.html" target="_top" xlink:title="Duck.h">
<polygon fill="#ffffff" stroke="#000000" points="29,-112.5 29,-131.5 76,-131.5 76,-112.5 29,-112.5"/>
<text text-anchor="middle" x="52.5" y="-119.5" font-family="Helvetica,sans-Serif" font-size="10.00" fill="#000000">Duck.h</text>
</a>
</g>
</g>
<!-- Node0&#45;&gt;Node1 -->
<g id="edge1" class="edge">
<title>Node0&#45;&gt;Node1</title>
<path fill="none" stroke="#191970" d="M52.5,-168.2455C52.5,-160.9382 52.5,-150.6944 52.5,-141.7046"/>
<polygon fill="#191970" stroke="#191970" points="56.0001,-141.6426 52.5,-131.6427 49.0001,-141.6427 56.0001,-141.6426"/>
</g>
<!-- Node2 -->
<g id="node3" class="node">
<title>Node2</title>
<polygon fill="#ffffff" stroke="#bfbfbf" points="25.5,-.5 25.5,-19.5 79.5,-19.5 79.5,-.5 25.5,-.5"/>
<text text-anchor="middle" x="52.5" y="-7.5" font-family="Helvetica,sans-Serif" font-size="10.00" fill="#000000">iostream</text>
</g>
<!-- Node1&#45;&gt;Node2 -->
<g id="edge2" class="edge">
<title>Node1&#45;&gt;Node2</title>
<path fill="none" stroke="#191970" d="M36.9938,-112.3733C19.6021,-100.2457 -5.0091,-78.2835 4.5,-56 9.6156,-44.0122 19.5575,-33.6498 29.0727,-25.8114"/>
<polygon fill="#191970" stroke="#191970" points="31.3797,-28.4532 37.1926,-19.5954 27.1246,-22.8949 31.3797,-28.4532"/>
</g>
<!-- Node3 -->
<g id="node4" class="node">
<title>Node3</title>
<g id="a_node4"><a xlink:href="FlyBehavior_8h.html" target="_top" xlink:title="FlyBehavior.h">
<polygon fill="#ffffff" stroke="#000000" points="14,-56.5 14,-75.5 91,-75.5 91,-56.5 14,-56.5"/>
<text text-anchor="middle" x="52.5" y="-63.5" font-family="Helvetica,sans-Serif" font-size="10.00" fill="#000000">FlyBehavior.h</text>
</a>
</g>
</g>
<!-- Node1&#45;&gt;Node3 -->
<g id="edge3" class="edge">
<title>Node1&#45;&gt;Node3</title>
<path fill="none" stroke="#191970" d="M52.5,-112.2455C52.5,-104.9382 52.5,-94.6944 52.5,-85.7046"/>
<polygon fill="#191970" stroke="#191970" points="56.0001,-85.6426 52.5,-75.6427 49.0001,-85.6427 56.0001,-85.6426"/>
</g>
<!-- Node4 -->
<g id="node5" class="node">
<title>Node4</title>
<g id="a_node5"><a xlink:href="QuackBehavior_8h.html" target="_top" xlink:title="QuackBehavior.h">
<polygon fill="#ffffff" stroke="#000000" points="109.5,-56.5 109.5,-75.5 201.5,-75.5 201.5,-56.5 109.5,-56.5"/>
<text text-anchor="middle" x="155.5" y="-63.5" font-family="Helvetica,sans-Serif" font-size="10.00" fill="#000000">QuackBehavior.h</text>
</a>
</g>
</g>
<!-- Node1&#45;&gt;Node4 -->
<g id="edge5" class="edge">
<title>Node1&#45;&gt;Node4</title>
<path fill="none" stroke="#191970" d="M70.4412,-112.2455C86.54,-103.4928 110.3879,-90.527 128.7391,-80.5496"/>
<polygon fill="#191970" stroke="#191970" points="130.6507,-83.4942 137.7644,-75.6427 127.3071,-77.3444 130.6507,-83.4942"/>
</g>
<!-- Node3&#45;&gt;Node2 -->
<g id="edge4" class="edge">
<title>Node3&#45;&gt;Node2</title>
<path fill="none" stroke="#191970" d="M52.5,-56.2455C52.5,-48.9382 52.5,-38.6944 52.5,-29.7046"/>
<polygon fill="#191970" stroke="#191970" points="56.0001,-29.6426 52.5,-19.6427 49.0001,-29.6427 56.0001,-29.6426"/>
</g>
<!-- Node4&#45;&gt;Node2 -->
<g id="edge6" class="edge">
<title>Node4&#45;&gt;Node2</title>
<path fill="none" stroke="#191970" d="M137.5588,-56.2455C121.46,-47.4928 97.6121,-34.527 79.2609,-24.5496"/>
<polygon fill="#191970" stroke="#191970" points="80.6929,-21.3444 70.2356,-19.6427 77.3493,-27.4942 80.6929,-21.3444"/>
</g>
</g>
</svg>
