<?xml version="1.0" encoding="UTF-8" standalone="no"?>
<!DOCTYPE svg PUBLIC "-//W3C//DTD SVG 1.1//EN"
 "http://www.w3.org/Graphics/SVG/1.1/DTD/svg11.dtd">
<!-- Generated by graphviz version 2.40.1 (20161225.0304)
 -->
<!-- Title: include/FlyBehavior/FlyBehavior.h Pages: 1 -->
<svg width="1349pt" height="229pt"
 viewBox="0.00 0.00 1348.50 229.00" xmlns="http://www.w3.org/2000/svg" xmlns:xlink="http://www.w3.org/1999/xlink">
<g id="graph0" class="graph" transform="scale(1 1) rotate(0) translate(4 225)">
<title>include/FlyBehavior/FlyBehavior.h</title>
<polygon fill="#ffffff" stroke="transparent" points="-4,4 -4,-225 1344.5,-225 1344.5,4 -4,4"/>
<!-- Node2 -->
<g id="node1" class="node">
<title>Node2</title>
<polygon fill="#bfbfbf" stroke="#000000" points="862.5,-190.5 862.5,-220.5 964.5,-220.5 964.5,-190.5 862.5,-190.5"/>
<text text-anchor="start" x="870.5" y="-208.5" font-family="Helvetica,sans-Serif" font-size="10.00" fill="#000000">include/FlyBehavior</text>
<text text-anchor="middle" x="913.5" y="-197.5" font-family="Helvetica,sans-Serif" font-size="10.00" fill="#000000">/FlyBehavior.h</text>
</g>
<!-- Node3 -->
<g id="node2" class="node">
<title>Node3</title>
<g id="a_node2"><a xlink:href="Duck_8h.html" target="_top" xlink:title="include/Ducks/Duck.h">
<polygon fill="#ffffff" stroke="#000000" points="594.5,-129 594.5,-148 706.5,-148 706.5,-129 594.5,-129"/>
<text text-anchor="middle" x="650.5" y="-136" font-family="Helvetica,sans-Serif" font-size="10.00" fill="#000000">include/Ducks/Duck.h</text>
</a>
</g>
</g>
<!-- Node2&#45;&gt;Node3 -->
<g id="edge1" class="edge">
<title>Node2&#45;&gt;Node3</title>
<path fill="none" stroke="#191970" d="M852.5761,-189.9795C801.6519,-177.0064 730.6616,-158.9214 687.7927,-148.0004"/>
<polygon fill="#191970" stroke="#191970" points="851.9246,-193.4252 862.4791,-192.5023 853.6527,-186.6419 851.9246,-193.4252"/>
</g>
<!-- Node14 -->
<g id="node13" class="node">
<title>Node14</title>
<g id="a_node13"><a xlink:href="FlyNoWay_8h.html" target="_top" xlink:title="include/FlyBehavior\l/FlyNoWay.h">
<polygon fill="#ffffff" stroke="#000000" points="862.5,-123.5 862.5,-153.5 964.5,-153.5 964.5,-123.5 862.5,-123.5"/>
<text text-anchor="start" x="870.5" y="-141.5" font-family="Helvetica,sans-Serif" font-size="10.00" fill="#000000">include/FlyBehavior</text>
<text text-anchor="middle" x="913.5" y="-130.5" font-family="Helvetica,sans-Serif" font-size="10.00" fill="#000000">/FlyNoWay.h</text>
</a>
</g>
</g>
<!-- Node2&#45;&gt;Node14 -->
<g id="edge16" class="edge">
<title>Node2&#45;&gt;Node14</title>
<path fill="none" stroke="#191970" d="M913.5,-180.0249C913.5,-171.128 913.5,-161.4287 913.5,-153.6432"/>
<polygon fill="#191970" stroke="#191970" points="910.0001,-180.2966 913.5,-190.2967 917.0001,-180.2967 910.0001,-180.2966"/>
</g>
<!-- Node16 -->
<g id="node15" class="node">
<title>Node16</title>
<g id="a_node15"><a xlink:href="FlyRocketPowered_8h.html" target="_top" xlink:title="include/FlyBehavior\l/FlyRocketPowered.h">
<polygon fill="#ffffff" stroke="#000000" points="1053.5,-123.5 1053.5,-153.5 1163.5,-153.5 1163.5,-123.5 1053.5,-123.5"/>
<text text-anchor="start" x="1061.5" y="-141.5" font-family="Helvetica,sans-Serif" font-size="10.00" fill="#000000">include/FlyBehavior</text>
<text text-anchor="middle" x="1108.5" y="-130.5" font-family="Helvetica,sans-Serif" font-size="10.00" fill="#000000">/FlyRocketPowered.h</text>
</a>
</g>
</g>
<!-- Node2&#45;&gt;Node16 -->
<g id="edge20" class="edge">
<title>Node2&#45;&gt;Node16</title>
<path fill="none" stroke="#191970" d="M966.9381,-187.1392C997.6022,-176.6033 1035.6297,-163.5375 1064.5473,-153.6017"/>
<polygon fill="#191970" stroke="#191970" points="965.5818,-183.9043 957.2618,-190.4639 967.8565,-190.5245 965.5818,-183.9043"/>
</g>
<!-- Node18 -->
<g id="node17" class="node">
<title>Node18</title>
<g id="a_node17"><a xlink:href="FlyWithWings_8h.html" target="_top" xlink:title="include/FlyBehavior\l/FlyWithWings.h">
<polygon fill="#ffffff" stroke="#000000" points="293.5,-123.5 293.5,-153.5 395.5,-153.5 395.5,-123.5 293.5,-123.5"/>
<text text-anchor="start" x="301.5" y="-141.5" font-family="Helvetica,sans-Serif" font-size="10.00" fill="#000000">include/FlyBehavior</text>
<text text-anchor="middle" x="344.5" y="-130.5" font-family="Helvetica,sans-Serif" font-size="10.00" fill="#000000">/FlyWithWings.h</text>
</a>
</g>
</g>
<!-- Node2&#45;&gt;Node18 -->
<g id="edge23" class="edge">
<title>Node2&#45;&gt;Node18</title>
<path fill="none" stroke="#191970" d="M852.045,-198.2636C739.0373,-184.9569 500.2442,-156.8389 395.529,-144.5087"/>
<polygon fill="#191970" stroke="#191970" points="851.9124,-201.7721 862.2531,-199.4657 852.7311,-194.8202 851.9124,-201.7721"/>
</g>
<!-- Node20 -->
<g id="node19" class="node">
<title>Node20</title>
<g id="a_node19"><a xlink:href="FlyBehavior_8cpp.html" target="_top" xlink:title="src/FlyBehavior/FlyBehavior.cpp">
<polygon fill="#ffffff" stroke="#000000" points="1181.5,-129 1181.5,-148 1339.5,-148 1339.5,-129 1181.5,-129"/>
<text text-anchor="middle" x="1260.5" y="-136" font-family="Helvetica,sans-Serif" font-size="10.00" fill="#000000">src/FlyBehavior/FlyBehavior.cpp</text>
</a>
</g>
</g>
<!-- Node2&#45;&gt;Node20 -->
<g id="edge27" class="edge">
<title>Node2&#45;&gt;Node20</title>
<path fill="none" stroke="#191970" d="M974.743,-193.675C1042.05,-180.6791 1148.8541,-160.057 1211.057,-148.0466"/>
<polygon fill="#191970" stroke="#191970" points="973.8561,-190.2815 964.701,-195.6139 975.1833,-197.1545 973.8561,-190.2815"/>
</g>
<!-- Node4 -->
<g id="node3" class="node">
<title>Node4</title>
<g id="a_node3"><a xlink:href="MallardDuck_8h.html" target="_top" xlink:title="include/Ducks/MallardDuck.h">
<polygon fill="#ffffff" stroke="#000000" points="356,-62 356,-81 499,-81 499,-62 356,-62"/>
<text text-anchor="middle" x="427.5" y="-69" font-family="Helvetica,sans-Serif" font-size="10.00" fill="#000000">include/Ducks/MallardDuck.h</text>
</a>
</g>
</g>
<!-- Node3&#45;&gt;Node4 -->
<g id="edge2" class="edge">
<title>Node3&#45;&gt;Node4</title>
<path fill="none" stroke="#191970" d="M608.8817,-125.9958C565.5709,-112.9832 498.6923,-92.8896 459.3912,-81.0817"/>
<polygon fill="#191970" stroke="#191970" points="607.9653,-129.375 618.5495,-128.9005 609.9796,-122.6711 607.9653,-129.375"/>
</g>
<!-- Node6 -->
<g id="node5" class="node">
<title>Node6</title>
<g id="a_node5"><a xlink:href="main_8cpp.html" target="_top" xlink:title="src/main.cpp">
<polygon fill="#ffffff" stroke="#000000" points="606,-.5 606,-19.5 679,-19.5 679,-.5 606,-.5"/>
<text text-anchor="middle" x="642.5" y="-7.5" font-family="Helvetica,sans-Serif" font-size="10.00" fill="#000000">src/main.cpp</text>
</a>
</g>
</g>
<!-- Node3&#45;&gt;Node6 -->
<g id="edge15" class="edge">
<title>Node3&#45;&gt;Node6</title>
<path fill="none" stroke="#191970" d="M649.2657,-118.6733C647.5256,-90.7236 644.4177,-40.8037 643.1083,-19.7705"/>
<polygon fill="#191970" stroke="#191970" points="645.784,-119.0784 649.8987,-128.8416 652.7705,-118.6434 645.784,-119.0784"/>
</g>
<!-- Node7 -->
<g id="node6" class="node">
<title>Node7</title>
<g id="a_node6"><a xlink:href="ModelDuck_8h.html" target="_top" xlink:title="include/Ducks/ModelDuck.h">
<polygon fill="#ffffff" stroke="#000000" points="844.5,-62 844.5,-81 982.5,-81 982.5,-62 844.5,-62"/>
<text text-anchor="middle" x="913.5" y="-69" font-family="Helvetica,sans-Serif" font-size="10.00" fill="#000000">include/Ducks/ModelDuck.h</text>
</a>
</g>
</g>
<!-- Node3&#45;&gt;Node7 -->
<g id="edge5" class="edge">
<title>Node3&#45;&gt;Node7</title>
<path fill="none" stroke="#191970" d="M697.6887,-126.4785C748.6623,-113.4929 828.8612,-93.062 875.801,-81.1039"/>
<polygon fill="#191970" stroke="#191970" points="696.7286,-123.1113 687.9022,-128.9717 698.4567,-129.8946 696.7286,-123.1113"/>
</g>
<!-- Node9 -->
<g id="node8" class="node">
<title>Node9</title>
<g id="a_node8"><a xlink:href="RedHeadDuck_8h.html" target="_top" xlink:title="include/Ducks/RedHeadDuck.h">
<polygon fill="#ffffff" stroke="#000000" points="185.5,-62 185.5,-81 337.5,-81 337.5,-62 185.5,-62"/>
<text text-anchor="middle" x="261.5" y="-69" font-family="Helvetica,sans-Serif" font-size="10.00" fill="#000000">include/Ducks/RedHeadDuck.h</text>
</a>
</g>
</g>
<!-- Node3&#45;&gt;Node9 -->
<g id="edge8" class="edge">
<title>Node3&#45;&gt;Node9</title>
<path fill="none" stroke="#191970" d="M584.4581,-127.5575C522.8513,-117.2917 428.4023,-101.4044 346.5,-87 335.7153,-85.1033 324.1696,-83.0279 313.1738,-81.03"/>
<polygon fill="#191970" stroke="#191970" points="583.9948,-131.0285 594.4339,-129.2186 585.1446,-124.1236 583.9948,-131.0285"/>
</g>
<!-- Node11 -->
<g id="node10" class="node">
<title>Node11</title>
<g id="a_node10"><a xlink:href="RubberDucky_8h.html" target="_top" xlink:title="include/Ducks/RubberDucky.h">
<polygon fill="#ffffff" stroke="#000000" points="678.5,-62 678.5,-81 826.5,-81 826.5,-62 678.5,-62"/>
<text text-anchor="middle" x="752.5" y="-69" font-family="Helvetica,sans-Serif" font-size="10.00" fill="#000000">include/Ducks/RubberDucky.h</text>
</a>
</g>
</g>
<!-- Node3&#45;&gt;Node11 -->
<g id="edge11" class="edge">
<title>Node3&#45;&gt;Node11</title>
<path fill="none" stroke="#191970" d="M673.5461,-123.3619C693.2856,-110.3957 721.1099,-92.119 737.913,-81.0817"/>
<polygon fill="#191970" stroke="#191970" points="671.5507,-120.485 665.1141,-128.9005 675.3938,-126.3357 671.5507,-120.485"/>
</g>
<!-- Node13 -->
<g id="node12" class="node">
<title>Node13</title>
<g id="a_node12"><a xlink:href="Duck_8cpp.html" target="_top" xlink:title="src/Ducks/Duck.cpp">
<polygon fill="#ffffff" stroke="#000000" points="517,-62 517,-81 622,-81 622,-62 517,-62"/>
<text text-anchor="middle" x="569.5" y="-69" font-family="Helvetica,sans-Serif" font-size="10.00" fill="#000000">src/Ducks/Duck.cpp</text>
</a>
</g>
</g>
<!-- Node3&#45;&gt;Node13 -->
<g id="edge14" class="edge">
<title>Node3&#45;&gt;Node13</title>
<path fill="none" stroke="#191970" d="M630.914,-122.2992C615.3352,-109.4131 594.0668,-91.8207 581.0838,-81.0817"/>
<polygon fill="#191970" stroke="#191970" points="628.9583,-125.2237 638.8947,-128.9005 633.4199,-119.8298 628.9583,-125.2237"/>
</g>
<!-- Node5 -->
<g id="node4" class="node">
<title>Node5</title>
<g id="a_node4"><a xlink:href="MallardDuck_8cpp.html" target="_top" xlink:title="src/Ducks/MallardDuck.cpp">
<polygon fill="#ffffff" stroke="#000000" points="359,-.5 359,-19.5 496,-19.5 496,-.5 359,-.5"/>
<text text-anchor="middle" x="427.5" y="-7.5" font-family="Helvetica,sans-Serif" font-size="10.00" fill="#000000">src/Ducks/MallardDuck.cpp</text>
</a>
</g>
</g>
<!-- Node4&#45;&gt;Node5 -->
<g id="edge3" class="edge">
<title>Node4&#45;&gt;Node5</title>
<path fill="none" stroke="#191970" d="M427.5,-51.7462C427.5,-41.0519 427.5,-28.314 427.5,-19.7449"/>
<polygon fill="#191970" stroke="#191970" points="424.0001,-51.8906 427.5,-61.8906 431.0001,-51.8907 424.0001,-51.8906"/>
</g>
<!-- Node4&#45;&gt;Node6 -->
<g id="edge4" class="edge">
<title>Node4&#45;&gt;Node6</title>
<path fill="none" stroke="#191970" d="M470.7695,-59.1229C511.5914,-47.4459 571.925,-30.1877 609.1421,-19.5419"/>
<polygon fill="#191970" stroke="#191970" points="469.7456,-55.7753 461.0938,-61.8906 471.6707,-62.5054 469.7456,-55.7753"/>
</g>
<!-- Node7&#45;&gt;Node6 -->
<g id="edge7" class="edge">
<title>Node7&#45;&gt;Node6</title>
<path fill="none" stroke="#191970" d="M861.5075,-59.701C808.1543,-47.5931 726.4884,-29.0601 679.4175,-18.378"/>
<polygon fill="#191970" stroke="#191970" points="860.9269,-63.1581 871.4536,-61.9581 862.4762,-56.3317 860.9269,-63.1581"/>
</g>
<!-- Node8 -->
<g id="node7" class="node">
<title>Node8</title>
<g id="a_node7"><a xlink:href="ModelDuck_8cpp.html" target="_top" xlink:title="src/Ducks/ModelDuck.cpp">
<polygon fill="#ffffff" stroke="#000000" points="856,-.5 856,-19.5 987,-19.5 987,-.5 856,-.5"/>
<text text-anchor="middle" x="921.5" y="-7.5" font-family="Helvetica,sans-Serif" font-size="10.00" fill="#000000">src/Ducks/ModelDuck.cpp</text>
</a>
</g>
</g>
<!-- Node7&#45;&gt;Node8 -->
<g id="edge6" class="edge">
<title>Node7&#45;&gt;Node8</title>
<path fill="none" stroke="#191970" d="M916.0696,-51.7462C917.4607,-41.0519 919.1177,-28.314 920.2324,-19.7449"/>
<polygon fill="#191970" stroke="#191970" points="912.5693,-51.5227 914.75,-61.8906 919.5108,-52.4257 912.5693,-51.5227"/>
</g>
<!-- Node9&#45;&gt;Node6 -->
<g id="edge10" class="edge">
<title>Node9&#45;&gt;Node6</title>
<path fill="none" stroke="#191970" d="M322.737,-60.1353C330.7252,-58.711 338.8041,-57.2994 346.5,-56 439.8294,-40.2414 550.0639,-23.6397 605.995,-15.3586"/>
<polygon fill="#191970" stroke="#191970" points="321.9258,-56.725 312.7027,-61.9389 323.1642,-63.6146 321.9258,-56.725"/>
</g>
<!-- Node10 -->
<g id="node9" class="node">
<title>Node10</title>
<g id="a_node9"><a xlink:href="RedHeadDuck_8cpp.html" target="_top" xlink:title="src/Ducks/RedHeadDuck.cpp">
<polygon fill="#ffffff" stroke="#000000" points="189,-.5 189,-19.5 334,-19.5 334,-.5 189,-.5"/>
<text text-anchor="middle" x="261.5" y="-7.5" font-family="Helvetica,sans-Serif" font-size="10.00" fill="#000000">src/Ducks/RedHeadDuck.cpp</text>
</a>
</g>
</g>
<!-- Node9&#45;&gt;Node10 -->
<g id="edge9" class="edge">
<title>Node9&#45;&gt;Node10</title>
<path fill="none" stroke="#191970" d="M261.5,-51.7462C261.5,-41.0519 261.5,-28.314 261.5,-19.7449"/>
<polygon fill="#191970" stroke="#191970" points="258.0001,-51.8906 261.5,-61.8906 265.0001,-51.8907 258.0001,-51.8906"/>
</g>
<!-- Node11&#45;&gt;Node6 -->
<g id="edge13" class="edge">
<title>Node11&#45;&gt;Node6</title>
<path fill="none" stroke="#191970" d="M726.413,-56.915C705.7358,-45.3546 677.4407,-29.535 659.5668,-19.5419"/>
<polygon fill="#191970" stroke="#191970" points="724.876,-60.0655 735.3125,-61.8906 728.2921,-53.9556 724.876,-60.0655"/>
</g>
<!-- Node12 -->
<g id="node11" class="node">
<title>Node12</title>
<g id="a_node11"><a xlink:href="RubberDucky_8cpp.html" target="_top" xlink:title="src/Ducks/RubberDucky.cpp">
<polygon fill="#ffffff" stroke="#000000" points="697,-.5 697,-19.5 838,-19.5 838,-.5 697,-.5"/>
<text text-anchor="middle" x="767.5" y="-7.5" font-family="Helvetica,sans-Serif" font-size="10.00" fill="#000000">src/Ducks/RubberDucky.cpp</text>
</a>
</g>
</g>
<!-- Node11&#45;&gt;Node12 -->
<g id="edge12" class="edge">
<title>Node11&#45;&gt;Node12</title>
<path fill="none" stroke="#191970" d="M757.2358,-52.0832C759.8608,-41.3205 763.0112,-28.4042 765.1232,-19.7449"/>
<polygon fill="#191970" stroke="#191970" points="753.8131,-51.346 754.8438,-61.8906 760.6137,-53.0048 753.8131,-51.346"/>
</g>
<!-- Node14&#45;&gt;Node7 -->
<g id="edge17" class="edge">
<title>Node14&#45;&gt;Node7</title>
<path fill="none" stroke="#191970" d="M913.5,-113.1199C913.5,-101.9072 913.5,-89.4031 913.5,-81.055"/>
<polygon fill="#191970" stroke="#191970" points="910.0001,-113.2966 913.5,-123.2967 917.0001,-113.2967 910.0001,-113.2966"/>
</g>
<!-- Node14&#45;&gt;Node11 -->
<g id="edge18" class="edge">
<title>Node14&#45;&gt;Node11</title>
<path fill="none" stroke="#191970" d="M867.9016,-119.5243C837.7819,-106.99 799.5784,-91.0916 775.5781,-81.1039"/>
<polygon fill="#191970" stroke="#191970" points="866.7912,-122.8531 877.3685,-123.4639 869.4807,-116.3904 866.7912,-122.8531"/>
</g>
<!-- Node15 -->
<g id="node14" class="node">
<title>Node15</title>
<g id="a_node14"><a xlink:href="FlyNoWay_8cpp.html" target="_top" xlink:title="src/FlyBehavior/FlyNoWay.cpp">
<polygon fill="#ffffff" stroke="#000000" points="1000.5,-62 1000.5,-81 1152.5,-81 1152.5,-62 1000.5,-62"/>
<text text-anchor="middle" x="1076.5" y="-69" font-family="Helvetica,sans-Serif" font-size="10.00" fill="#000000">src/FlyBehavior/FlyNoWay.cpp</text>
</a>
</g>
</g>
<!-- Node14&#45;&gt;Node15 -->
<g id="edge19" class="edge">
<title>Node14&#45;&gt;Node15</title>
<path fill="none" stroke="#191970" d="M959.6648,-119.5243C990.1586,-106.99 1028.8368,-91.0916 1053.1352,-81.1039"/>
<polygon fill="#191970" stroke="#191970" points="957.9989,-116.4248 950.0804,-123.4639 960.6602,-122.8992 957.9989,-116.4248"/>
</g>
<!-- Node16&#45;&gt;Node6 -->
<g id="edge22" class="edge">
<title>Node16&#45;&gt;Node6</title>
<path fill="none" stroke="#191970" d="M1137.8565,-116.8164C1158.1513,-99.269 1178.664,-74.5171 1161.5,-56 1125.5938,-17.2634 739.7469,-27.7487 687.5,-20 684.8084,-19.6008 682.038,-19.1313 679.2572,-18.6171"/>
<polygon fill="#191970" stroke="#191970" points="1135.3674,-114.3322 1129.8747,-123.392 1139.8184,-119.7349 1135.3674,-114.3322"/>
</g>
<!-- Node17 -->
<g id="node16" class="node">
<title>Node17</title>
<g id="a_node16"><a xlink:href="FlyRocketPowered_8cpp.html" target="_top" xlink:title="src/FlyBehavior/FlyRocket\lPowered.cpp">
<polygon fill="#ffffff" stroke="#000000" points="1208.5,-56.5 1208.5,-86.5 1340.5,-86.5 1340.5,-56.5 1208.5,-56.5"/>
<text text-anchor="start" x="1216.5" y="-74.5" font-family="Helvetica,sans-Serif" font-size="10.00" fill="#000000">src/FlyBehavior/FlyRocket</text>
<text text-anchor="middle" x="1274.5" y="-63.5" font-family="Helvetica,sans-Serif" font-size="10.00" fill="#000000">Powered.cpp</text>
</a>
</g>
</g>
<!-- Node16&#45;&gt;Node17 -->
<g id="edge21" class="edge">
<title>Node16&#45;&gt;Node17</title>
<path fill="none" stroke="#191970" d="M1155.3525,-119.5897C1181.2135,-109.1518 1212.8931,-96.3654 1237.0839,-86.6017"/>
<polygon fill="#191970" stroke="#191970" points="1153.7168,-116.4754 1145.7536,-123.4639 1156.3368,-122.9667 1153.7168,-116.4754"/>
</g>
<!-- Node18&#45;&gt;Node4 -->
<g id="edge24" class="edge">
<title>Node18&#45;&gt;Node4</title>
<path fill="none" stroke="#191970" d="M371.287,-116.8767C386.2519,-104.7967 404.1488,-90.3498 415.6632,-81.055"/>
<polygon fill="#191970" stroke="#191970" points="368.9168,-114.292 363.334,-123.2967 373.3136,-119.7389 368.9168,-114.292"/>
</g>
<!-- Node18&#45;&gt;Node9 -->
<g id="edge25" class="edge">
<title>Node18&#45;&gt;Node9</title>
<path fill="none" stroke="#191970" d="M317.713,-116.8767C302.7481,-104.7967 284.8512,-90.3498 273.3368,-81.055"/>
<polygon fill="#191970" stroke="#191970" points="315.6864,-119.7389 325.666,-123.2967 320.0832,-114.292 315.6864,-119.7389"/>
</g>
<!-- Node19 -->
<g id="node18" class="node">
<title>Node19</title>
<g id="a_node18"><a xlink:href="FlyWithWings_8cpp.html" target="_top" xlink:title="src/FlyBehavior/FlyWithWings.cpp">
<polygon fill="#ffffff" stroke="#000000" points="0,-62 0,-81 167,-81 167,-62 0,-62"/>
<text text-anchor="middle" x="83.5" y="-69" font-family="Helvetica,sans-Serif" font-size="10.00" fill="#000000">src/FlyBehavior/FlyWithWings.cpp</text>
</a>
</g>
</g>
<!-- Node18&#45;&gt;Node19 -->
<g id="edge26" class="edge">
<title>Node18&#45;&gt;Node19</title>
<path fill="none" stroke="#191970" d="M283.4385,-122.8252C233.03,-109.8851 163.1187,-91.9385 120.7227,-81.0552"/>
<polygon fill="#191970" stroke="#191970" points="282.69,-126.2465 293.2462,-125.3429 284.4305,-119.4663 282.69,-126.2465"/>
</g>
</g>
</svg>
