<?xml version="1.0" encoding="UTF-8" standalone="no"?>
<!DOCTYPE svg PUBLIC "-//W3C//DTD SVG 1.1//EN"
 "http://www.w3.org/Graphics/SVG/1.1/DTD/svg11.dtd">
<!-- Generated by graphviz version 2.40.1 (20161225.0304)
 -->
<!-- Title: include/FlyBehavior/FlyNoWay.h Pages: 1 -->
<svg width="521pt" height="151pt"
 viewBox="0.00 0.00 520.50 151.00" xmlns="http://www.w3.org/2000/svg" xmlns:xlink="http://www.w3.org/1999/xlink">
<g id="graph0" class="graph" transform="scale(1 1) rotate(0) translate(4 147)">
<title>include/FlyBehavior/FlyNoWay.h</title>
<polygon fill="#ffffff" stroke="transparent" points="-4,4 -4,-147 516.5,-147 516.5,4 -4,4"/>
<!-- Node3 -->
<g id="node1" class="node">
<title>Node3</title>
<polygon fill="#bfbfbf" stroke="#000000" points="217.5,-112.5 217.5,-142.5 319.5,-142.5 319.5,-112.5 217.5,-112.5"/>
<text text-anchor="start" x="225.5" y="-130.5" font-family="Helvetica,sans-Serif" font-size="10.00" fill="#000000">include/FlyBehavior</text>
<text text-anchor="middle" x="268.5" y="-119.5" font-family="Helvetica,sans-Serif" font-size="10.00" fill="#000000">/FlyNoWay.h</text>
</g>
<!-- Node4 -->
<g id="node2" class="node">
<title>Node4</title>
<g id="a_node2"><a xlink:href="ModelDuck_8h.html" target="_top" xlink:title="include/Ducks/ModelDuck.h">
<polygon fill="#ffffff" stroke="#000000" points="38.5,-56.5 38.5,-75.5 176.5,-75.5 176.5,-56.5 38.5,-56.5"/>
<text text-anchor="middle" x="107.5" y="-63.5" font-family="Helvetica,sans-Serif" font-size="10.00" fill="#000000">include/Ducks/ModelDuck.h</text>
</a>
</g>
</g>
<!-- Node3&#45;&gt;Node4 -->
<g id="edge1" class="edge">
<title>Node3&#45;&gt;Node4</title>
<path fill="none" stroke="#191970" d="M219.6258,-108.8306C190.8412,-97.8353 155.6419,-84.3896 132.4493,-75.5303"/>
<polygon fill="#191970" stroke="#191970" points="218.5243,-112.1565 229.115,-112.4554 221.0223,-105.6174 218.5243,-112.1565"/>
</g>
<!-- Node7 -->
<g id="node5" class="node">
<title>Node7</title>
<g id="a_node5"><a xlink:href="RubberDucky_8h.html" target="_top" xlink:title="include/Ducks/RubberDucky.h">
<polygon fill="#ffffff" stroke="#000000" points="194.5,-56.5 194.5,-75.5 342.5,-75.5 342.5,-56.5 194.5,-56.5"/>
<text text-anchor="middle" x="268.5" y="-63.5" font-family="Helvetica,sans-Serif" font-size="10.00" fill="#000000">include/Ducks/RubberDucky.h</text>
</a>
</g>
</g>
<!-- Node3&#45;&gt;Node7 -->
<g id="edge4" class="edge">
<title>Node3&#45;&gt;Node7</title>
<path fill="none" stroke="#191970" d="M268.5,-102.2849C268.5,-92.9858 268.5,-82.9883 268.5,-75.8469"/>
<polygon fill="#191970" stroke="#191970" points="265.0001,-102.2977 268.5,-112.2977 272.0001,-102.2978 265.0001,-102.2977"/>
</g>
<!-- Node9 -->
<g id="node7" class="node">
<title>Node9</title>
<g id="a_node7"><a xlink:href="FlyNoWay_8cpp.html" target="_top" xlink:title="src/FlyBehavior/FlyNoWay.cpp">
<polygon fill="#ffffff" stroke="#000000" points="360.5,-56.5 360.5,-75.5 512.5,-75.5 512.5,-56.5 360.5,-56.5"/>
<text text-anchor="middle" x="436.5" y="-63.5" font-family="Helvetica,sans-Serif" font-size="10.00" fill="#000000">src/FlyBehavior/FlyNoWay.cpp</text>
</a>
</g>
</g>
<!-- Node3&#45;&gt;Node9 -->
<g id="edge7" class="edge">
<title>Node3&#45;&gt;Node9</title>
<path fill="none" stroke="#191970" d="M319.1078,-108.9739C349.2157,-97.9523 386.1598,-84.4281 410.466,-75.5303"/>
<polygon fill="#191970" stroke="#191970" points="317.7848,-105.731 309.5974,-112.4554 320.1912,-112.3044 317.7848,-105.731"/>
</g>
<!-- Node5 -->
<g id="node3" class="node">
<title>Node5</title>
<g id="a_node3"><a xlink:href="ModelDuck_8cpp.html" target="_top" xlink:title="src/Ducks/ModelDuck.cpp">
<polygon fill="#ffffff" stroke="#000000" points="0,-.5 0,-19.5 131,-19.5 131,-.5 0,-.5"/>
<text text-anchor="middle" x="65.5" y="-7.5" font-family="Helvetica,sans-Serif" font-size="10.00" fill="#000000">src/Ducks/ModelDuck.cpp</text>
</a>
</g>
</g>
<!-- Node4&#45;&gt;Node5 -->
<g id="edge2" class="edge">
<title>Node4&#45;&gt;Node5</title>
<path fill="none" stroke="#191970" d="M94.1584,-48.2112C87.0604,-38.7472 78.6097,-27.4797 72.732,-19.6427"/>
<polygon fill="#191970" stroke="#191970" points="91.3841,-50.3455 100.1842,-56.2455 96.9841,-46.1455 91.3841,-50.3455"/>
</g>
<!-- Node6 -->
<g id="node4" class="node">
<title>Node6</title>
<g id="a_node4"><a xlink:href="main_8cpp.html" target="_top" xlink:title="src/main.cpp">
<polygon fill="#ffffff" stroke="#000000" points="149,-.5 149,-19.5 222,-19.5 222,-.5 149,-.5"/>
<text text-anchor="middle" x="185.5" y="-7.5" font-family="Helvetica,sans-Serif" font-size="10.00" fill="#000000">src/main.cpp</text>
</a>
</g>
</g>
<!-- Node4&#45;&gt;Node6 -->
<g id="edge3" class="edge">
<title>Node4&#45;&gt;Node6</title>
<path fill="none" stroke="#191970" d="M129.4936,-50.2097C143.1929,-40.3743 160.3736,-28.0394 172.0691,-19.6427"/>
<polygon fill="#191970" stroke="#191970" points="127.1686,-47.5703 121.0866,-56.2455 131.2511,-53.2566 127.1686,-47.5703"/>
</g>
<!-- Node7&#45;&gt;Node6 -->
<g id="edge6" class="edge">
<title>Node7&#45;&gt;Node6</title>
<path fill="none" stroke="#191970" d="M245.512,-50.49C230.8678,-40.6096 212.3556,-28.1194 199.7918,-19.6427"/>
<polygon fill="#191970" stroke="#191970" points="243.7953,-53.5539 254.0425,-56.2455 247.7104,-47.7511 243.7953,-53.5539"/>
</g>
<!-- Node8 -->
<g id="node6" class="node">
<title>Node8</title>
<g id="a_node6"><a xlink:href="RubberDucky_8cpp.html" target="_top" xlink:title="src/Ducks/RubberDucky.cpp">
<polygon fill="#ffffff" stroke="#000000" points="240,-.5 240,-19.5 381,-19.5 381,-.5 240,-.5"/>
<text text-anchor="middle" x="310.5" y="-7.5" font-family="Helvetica,sans-Serif" font-size="10.00" fill="#000000">src/Ducks/RubberDucky.cpp</text>
</a>
</g>
</g>
<!-- Node7&#45;&gt;Node8 -->
<g id="edge5" class="edge">
<title>Node7&#45;&gt;Node8</title>
<path fill="none" stroke="#191970" d="M281.8416,-48.2112C288.9396,-38.7472 297.3903,-27.4797 303.268,-19.6427"/>
<polygon fill="#191970" stroke="#191970" points="279.0159,-46.1455 275.8158,-56.2455 284.6159,-50.3455 279.0159,-46.1455"/>
</g>
</g>
</svg>
