<?xml version="1.0" encoding="UTF-8" standalone="no"?>
<!DOCTYPE svg PUBLIC "-//W3C//DTD SVG 1.1//EN"
 "http://www.w3.org/Graphics/SVG/1.1/DTD/svg11.dtd">
<!-- Generated by graphviz version 2.40.1 (20161225.0304)
 -->
<!-- Title: src/FlyBehavior/FlyNoWay.cpp Pages: 1 -->
<svg width="160pt" height="196pt"
 viewBox="0.00 0.00 160.00 196.00" xmlns="http://www.w3.org/2000/svg" xmlns:xlink="http://www.w3.org/1999/xlink">
<g id="graph0" class="graph" transform="scale(1 1) rotate(0) translate(4 192)">
<title>src/FlyBehavior/FlyNoWay.cpp</title>
<polygon fill="#ffffff" stroke="transparent" points="-4,4 -4,-192 156,-192 156,4 -4,4"/>
<!-- Node0 -->
<g id="node1" class="node">
<title>Node0</title>
<polygon fill="#bfbfbf" stroke="#000000" points="0,-168.5 0,-187.5 152,-187.5 152,-168.5 0,-168.5"/>
<text text-anchor="middle" x="76" y="-175.5" font-family="Helvetica,sans-Serif" font-size="10.00" fill="#000000">src/FlyBehavior/FlyNoWay.cpp</text>
</g>
<!-- Node1 -->
<g id="node2" class="node">
<title>Node1</title>
<g id="a_node2"><a xlink:href="FlyNoWay_8h.html" target="_top" xlink:title="FlyNoWay.h">
<polygon fill="#ffffff" stroke="#000000" points="41,-112.5 41,-131.5 111,-131.5 111,-112.5 41,-112.5"/>
<text text-anchor="middle" x="76" y="-119.5" font-family="Helvetica,sans-Serif" font-size="10.00" fill="#000000">FlyNoWay.h</text>
</a>
</g>
</g>
<!-- Node0&#45;&gt;Node1 -->
<g id="edge1" class="edge">
<title>Node0&#45;&gt;Node1</title>
<path fill="none" stroke="#191970" d="M76,-168.2455C76,-160.9382 76,-150.6944 76,-141.7046"/>
<polygon fill="#191970" stroke="#191970" points="79.5001,-141.6426 76,-131.6427 72.5001,-141.6427 79.5001,-141.6426"/>
</g>
<!-- Node2 -->
<g id="node3" class="node">
<title>Node2</title>
<polygon fill="#ffffff" stroke="#bfbfbf" points="49,-.5 49,-19.5 103,-19.5 103,-.5 49,-.5"/>
<text text-anchor="middle" x="76" y="-7.5" font-family="Helvetica,sans-Serif" font-size="10.00" fill="#000000">iostream</text>
</g>
<!-- Node1&#45;&gt;Node2 -->
<g id="edge2" class="edge">
<title>Node1&#45;&gt;Node2</title>
<path fill="none" stroke="#191970" d="M72.1376,-112.3228C68.6962,-103.1446 63.9167,-88.8807 62,-76 59.6564,-60.2507 63.7493,-42.6175 68.1038,-29.5419"/>
<polygon fill="#191970" stroke="#191970" points="71.5297,-30.3654 71.6877,-19.7718 64.9579,-27.9548 71.5297,-30.3654"/>
</g>
<!-- Node3 -->
<g id="node4" class="node">
<title>Node3</title>
<g id="a_node4"><a xlink:href="FlyBehavior_8h.html" target="_top" xlink:title="FlyBehavior.h">
<polygon fill="#ffffff" stroke="#000000" points="71.5,-56.5 71.5,-75.5 148.5,-75.5 148.5,-56.5 71.5,-56.5"/>
<text text-anchor="middle" x="110" y="-63.5" font-family="Helvetica,sans-Serif" font-size="10.00" fill="#000000">FlyBehavior.h</text>
</a>
</g>
</g>
<!-- Node1&#45;&gt;Node3 -->
<g id="edge3" class="edge">
<title>Node1&#45;&gt;Node3</title>
<path fill="none" stroke="#191970" d="M81.9223,-112.2455C86.6027,-104.5367 93.2673,-93.5598 98.9289,-84.2348"/>
<polygon fill="#191970" stroke="#191970" points="101.9475,-86.007 104.1455,-75.6427 95.9639,-82.3741 101.9475,-86.007"/>
</g>
<!-- Node3&#45;&gt;Node2 -->
<g id="edge4" class="edge">
<title>Node3&#45;&gt;Node2</title>
<path fill="none" stroke="#191970" d="M104.0777,-56.2455C99.3973,-48.5367 92.7327,-37.5598 87.0711,-28.2348"/>
<polygon fill="#191970" stroke="#191970" points="90.0361,-26.3741 81.8545,-19.6427 84.0525,-30.007 90.0361,-26.3741"/>
</g>
</g>
</svg>
