<?xml version="1.0" encoding="UTF-8" standalone="no"?>
<!DOCTYPE svg PUBLIC "-//W3C//DTD SVG 1.1//EN"
 "http://www.w3.org/Graphics/SVG/1.1/DTD/svg11.dtd">
<!-- Generated by graphviz version 2.40.1 (20161225.0304)
 -->
<!-- Title: src/FlyBehavior/FlyRocketPowered.cpp Pages: 1 -->
<svg width="147pt" height="207pt"
 viewBox="0.00 0.00 146.50 207.00" xmlns="http://www.w3.org/2000/svg" xmlns:xlink="http://www.w3.org/1999/xlink">
<g id="graph0" class="graph" transform="scale(1 1) rotate(0) translate(4 203)">
<title>src/FlyBehavior/FlyRocketPowered.cpp</title>
<polygon fill="#ffffff" stroke="transparent" points="-4,4 -4,-203 142.5,-203 142.5,4 -4,4"/>
<!-- Node0 -->
<g id="node1" class="node">
<title>Node0</title>
<polygon fill="#bfbfbf" stroke="#000000" points="0,-168.5 0,-198.5 132,-198.5 132,-168.5 0,-168.5"/>
<text text-anchor="start" x="8" y="-186.5" font-family="Helvetica,sans-Serif" font-size="10.00" fill="#000000">src/FlyBehavior/FlyRocket</text>
<text text-anchor="middle" x="66" y="-175.5" font-family="Helvetica,sans-Serif" font-size="10.00" fill="#000000">Powered.cpp</text>
</g>
<!-- Node1 -->
<g id="node2" class="node">
<title>Node1</title>
<g id="a_node2"><a xlink:href="FlyRocketPowered_8h.html" target="_top" xlink:title="FlyRocketPowered.h">
<polygon fill="#ffffff" stroke="#000000" points="12.5,-112.5 12.5,-131.5 119.5,-131.5 119.5,-112.5 12.5,-112.5"/>
<text text-anchor="middle" x="66" y="-119.5" font-family="Helvetica,sans-Serif" font-size="10.00" fill="#000000">FlyRocketPowered.h</text>
</a>
</g>
</g>
<!-- Node0&#45;&gt;Node1 -->
<g id="edge1" class="edge">
<title>Node0&#45;&gt;Node1</title>
<path fill="none" stroke="#191970" d="M66,-168.2977C66,-160.3834 66,-150.6043 66,-142.0759"/>
<polygon fill="#191970" stroke="#191970" points="69.5001,-141.8469 66,-131.8469 62.5001,-141.847 69.5001,-141.8469"/>
</g>
<!-- Node2 -->
<g id="node3" class="node">
<title>Node2</title>
<polygon fill="#ffffff" stroke="#bfbfbf" points="39,-.5 39,-19.5 93,-19.5 93,-.5 39,-.5"/>
<text text-anchor="middle" x="66" y="-7.5" font-family="Helvetica,sans-Serif" font-size="10.00" fill="#000000">iostream</text>
</g>
<!-- Node1&#45;&gt;Node2 -->
<g id="edge2" class="edge">
<title>Node1&#45;&gt;Node2</title>
<path fill="none" stroke="#191970" d="M62.1376,-112.3228C58.6962,-103.1446 53.9167,-88.8807 52,-76 49.6564,-60.2507 53.7493,-42.6175 58.1038,-29.5419"/>
<polygon fill="#191970" stroke="#191970" points="61.5297,-30.3654 61.6877,-19.7718 54.9579,-27.9548 61.5297,-30.3654"/>
</g>
<!-- Node3 -->
<g id="node4" class="node">
<title>Node3</title>
<g id="a_node4"><a xlink:href="FlyBehavior_8h.html" target="_top" xlink:title="FlyBehavior.h">
<polygon fill="#ffffff" stroke="#000000" points="61.5,-56.5 61.5,-75.5 138.5,-75.5 138.5,-56.5 61.5,-56.5"/>
<text text-anchor="middle" x="100" y="-63.5" font-family="Helvetica,sans-Serif" font-size="10.00" fill="#000000">FlyBehavior.h</text>
</a>
</g>
</g>
<!-- Node1&#45;&gt;Node3 -->
<g id="edge3" class="edge">
<title>Node1&#45;&gt;Node3</title>
<path fill="none" stroke="#191970" d="M71.9223,-112.2455C76.6027,-104.5367 83.2673,-93.5598 88.9289,-84.2348"/>
<polygon fill="#191970" stroke="#191970" points="91.9475,-86.007 94.1455,-75.6427 85.9639,-82.3741 91.9475,-86.007"/>
</g>
<!-- Node3&#45;&gt;Node2 -->
<g id="edge4" class="edge">
<title>Node3&#45;&gt;Node2</title>
<path fill="none" stroke="#191970" d="M94.0777,-56.2455C89.3973,-48.5367 82.7327,-37.5598 77.0711,-28.2348"/>
<polygon fill="#191970" stroke="#191970" points="80.0361,-26.3741 71.8545,-19.6427 74.0525,-30.007 80.0361,-26.3741"/>
</g>
</g>
</svg>
