<?xml version="1.0" encoding="UTF-8" standalone="no"?>
<!DOCTYPE svg PUBLIC "-//W3C//DTD SVG 1.1//EN"
 "http://www.w3.org/Graphics/SVG/1.1/DTD/svg11.dtd">
<!-- Generated by graphviz version 2.40.1 (20161225.0304)
 -->
<!-- Title: include/FlyBehavior/FlyRocketPowered.h Pages: 1 -->
<svg width="136pt" height="151pt"
 viewBox="0.00 0.00 135.50 151.00" xmlns="http://www.w3.org/2000/svg" xmlns:xlink="http://www.w3.org/1999/xlink">
<g id="graph0" class="graph" transform="scale(1 1) rotate(0) translate(4 147)">
<title>include/FlyBehavior/FlyRocketPowered.h</title>
<polygon fill="#ffffff" stroke="transparent" points="-4,4 -4,-147 131.5,-147 131.5,4 -4,4"/>
<!-- Node0 -->
<g id="node1" class="node">
<title>Node0</title>
<polygon fill="#bfbfbf" stroke="#000000" points="0,-112.5 0,-142.5 110,-142.5 110,-112.5 0,-112.5"/>
<text text-anchor="start" x="8" y="-130.5" font-family="Helvetica,sans-Serif" font-size="10.00" fill="#000000">include/FlyBehavior</text>
<text text-anchor="middle" x="55" y="-119.5" font-family="Helvetica,sans-Serif" font-size="10.00" fill="#000000">/FlyRocketPowered.h</text>
</g>
<!-- Node1 -->
<g id="node2" class="node">
<title>Node1</title>
<polygon fill="#ffffff" stroke="#bfbfbf" points="28,-.5 28,-19.5 82,-19.5 82,-.5 28,-.5"/>
<text text-anchor="middle" x="55" y="-7.5" font-family="Helvetica,sans-Serif" font-size="10.00" fill="#000000">iostream</text>
</g>
<!-- Node0&#45;&gt;Node1 -->
<g id="edge1" class="edge">
<title>Node0&#45;&gt;Node1</title>
<path fill="none" stroke="#191970" d="M48.9308,-112.2277C43.9298,-97.7986 38.0957,-75.5174 41,-56 42.3327,-47.0439 45.0494,-37.419 47.7381,-29.3"/>
<polygon fill="#191970" stroke="#191970" points="51.1067,-30.272 51.1376,-19.6772 44.5064,-27.9402 51.1067,-30.272"/>
</g>
<!-- Node2 -->
<g id="node3" class="node">
<title>Node2</title>
<g id="a_node3"><a xlink:href="FlyBehavior_8h.html" target="_top" xlink:title="FlyBehavior.h">
<polygon fill="#ffffff" stroke="#000000" points="50.5,-56.5 50.5,-75.5 127.5,-75.5 127.5,-56.5 50.5,-56.5"/>
<text text-anchor="middle" x="89" y="-63.5" font-family="Helvetica,sans-Serif" font-size="10.00" fill="#000000">FlyBehavior.h</text>
</a>
</g>
</g>
<!-- Node0&#45;&gt;Node2 -->
<g id="edge2" class="edge">
<title>Node0&#45;&gt;Node2</title>
<path fill="none" stroke="#191970" d="M63.4045,-112.2977C68.0257,-103.9388 73.7969,-93.4997 78.6889,-84.6509"/>
<polygon fill="#191970" stroke="#191970" points="81.7809,-86.292 83.5562,-75.8469 75.6548,-82.9051 81.7809,-86.292"/>
</g>
<!-- Node2&#45;&gt;Node1 -->
<g id="edge3" class="edge">
<title>Node2&#45;&gt;Node1</title>
<path fill="none" stroke="#191970" d="M83.0777,-56.2455C78.3973,-48.5367 71.7327,-37.5598 66.0711,-28.2348"/>
<polygon fill="#191970" stroke="#191970" points="69.0361,-26.3741 60.8545,-19.6427 63.0525,-30.007 69.0361,-26.3741"/>
</g>
</g>
</svg>
