<?xml version="1.0" encoding="UTF-8" standalone="no"?>
<!DOCTYPE svg PUBLIC "-//W3C//DTD SVG 1.1//EN"
 "http://www.w3.org/Graphics/SVG/1.1/DTD/svg11.dtd">
<!-- Generated by graphviz version 2.40.1 (20161225.0304)
 -->
<!-- Title: include/FlyBehavior/FlyRocketPowered.h Pages: 1 -->
<svg width="232pt" height="106pt"
 viewBox="0.00 0.00 231.50 106.00" xmlns="http://www.w3.org/2000/svg" xmlns:xlink="http://www.w3.org/1999/xlink">
<g id="graph0" class="graph" transform="scale(1 1) rotate(0) translate(4 102)">
<title>include/FlyBehavior/FlyRocketPowered.h</title>
<polygon fill="#ffffff" stroke="transparent" points="-4,4 -4,-102 227.5,-102 227.5,4 -4,4"/>
<!-- Node3 -->
<g id="node1" class="node">
<title>Node3</title>
<polygon fill="#bfbfbf" stroke="#000000" points="71,-67.5 71,-97.5 181,-97.5 181,-67.5 71,-67.5"/>
<text text-anchor="start" x="79" y="-85.5" font-family="Helvetica,sans-Serif" font-size="10.00" fill="#000000">include/FlyBehavior</text>
<text text-anchor="middle" x="126" y="-74.5" font-family="Helvetica,sans-Serif" font-size="10.00" fill="#000000">/FlyRocketPowered.h</text>
</g>
<!-- Node4 -->
<g id="node2" class="node">
<title>Node4</title>
<g id="a_node2"><a xlink:href="FlyRocketPowered_8cpp.html" target="_top" xlink:title="src/FlyBehavior/FlyRocket\lPowered.cpp">
<polygon fill="#ffffff" stroke="#000000" points="0,-.5 0,-30.5 132,-30.5 132,-.5 0,-.5"/>
<text text-anchor="start" x="8" y="-18.5" font-family="Helvetica,sans-Serif" font-size="10.00" fill="#000000">src/FlyBehavior/FlyRocket</text>
<text text-anchor="middle" x="66" y="-7.5" font-family="Helvetica,sans-Serif" font-size="10.00" fill="#000000">Powered.cpp</text>
</a>
</g>
</g>
<!-- Node3&#45;&gt;Node4 -->
<g id="edge1" class="edge">
<title>Node3&#45;&gt;Node4</title>
<path fill="none" stroke="#191970" d="M105.527,-59.6385C96.954,-50.0653 87.2227,-39.1987 79.561,-30.6432"/>
<polygon fill="#191970" stroke="#191970" points="103.1065,-62.1821 112.3851,-67.2967 108.3212,-57.5122 103.1065,-62.1821"/>
</g>
<!-- Node5 -->
<g id="node3" class="node">
<title>Node5</title>
<g id="a_node3"><a xlink:href="main_8cpp.html" target="_top" xlink:title="src/main.cpp">
<polygon fill="#ffffff" stroke="#000000" points="150.5,-6 150.5,-25 223.5,-25 223.5,-6 150.5,-6"/>
<text text-anchor="middle" x="187" y="-13" font-family="Helvetica,sans-Serif" font-size="10.00" fill="#000000">src/main.cpp</text>
</a>
</g>
</g>
<!-- Node3&#45;&gt;Node5 -->
<g id="edge2" class="edge">
<title>Node3&#45;&gt;Node5</title>
<path fill="none" stroke="#191970" d="M146.6082,-59.8648C157.4122,-47.998 170.0733,-34.0916 178.3007,-25.055"/>
<polygon fill="#191970" stroke="#191970" points="143.986,-57.5459 139.8418,-67.2967 149.1621,-62.2585 143.986,-57.5459"/>
</g>
</g>
</svg>
