<?xml version="1.0" encoding="UTF-8" standalone="no"?>
<!DOCTYPE svg PUBLIC "-//W3C//DTD SVG 1.1//EN"
 "http://www.w3.org/Graphics/SVG/1.1/DTD/svg11.dtd">
<!-- Generated by graphviz version 2.40.1 (20161225.0304)
 -->
<!-- Title: src/FlyBehavior/FlyWithWings.cpp Pages: 1 -->
<svg width="175pt" height="196pt"
 viewBox="0.00 0.00 175.00 196.00" xmlns="http://www.w3.org/2000/svg" xmlns:xlink="http://www.w3.org/1999/xlink">
<g id="graph0" class="graph" transform="scale(1 1) rotate(0) translate(4 192)">
<title>src/FlyBehavior/FlyWithWings.cpp</title>
<polygon fill="#ffffff" stroke="transparent" points="-4,4 -4,-192 171,-192 171,4 -4,4"/>
<!-- Node0 -->
<g id="node1" class="node">
<title>Node0</title>
<polygon fill="#bfbfbf" stroke="#000000" points="0,-168.5 0,-187.5 167,-187.5 167,-168.5 0,-168.5"/>
<text text-anchor="middle" x="83.5" y="-175.5" font-family="Helvetica,sans-Serif" font-size="10.00" fill="#000000">src/FlyBehavior/FlyWithWings.cpp</text>
</g>
<!-- Node1 -->
<g id="node2" class="node">
<title>Node1</title>
<g id="a_node2"><a xlink:href="FlyWithWings_8h.html" target="_top" xlink:title="FlyWithWings.h">
<polygon fill="#ffffff" stroke="#000000" points="41,-112.5 41,-131.5 126,-131.5 126,-112.5 41,-112.5"/>
<text text-anchor="middle" x="83.5" y="-119.5" font-family="Helvetica,sans-Serif" font-size="10.00" fill="#000000">FlyWithWings.h</text>
</a>
</g>
</g>
<!-- Node0&#45;&gt;Node1 -->
<g id="edge1" class="edge">
<title>Node0&#45;&gt;Node1</title>
<path fill="none" stroke="#191970" d="M83.5,-168.2455C83.5,-160.9382 83.5,-150.6944 83.5,-141.7046"/>
<polygon fill="#191970" stroke="#191970" points="87.0001,-141.6426 83.5,-131.6427 80.0001,-141.6427 87.0001,-141.6426"/>
</g>
<!-- Node2 -->
<g id="node3" class="node">
<title>Node2</title>
<polygon fill="#ffffff" stroke="#bfbfbf" points="56.5,-.5 56.5,-19.5 110.5,-19.5 110.5,-.5 56.5,-.5"/>
<text text-anchor="middle" x="83.5" y="-7.5" font-family="Helvetica,sans-Serif" font-size="10.00" fill="#000000">iostream</text>
</g>
<!-- Node1&#45;&gt;Node2 -->
<g id="edge2" class="edge">
<title>Node1&#45;&gt;Node2</title>
<path fill="none" stroke="#191970" d="M79.6376,-112.3228C76.1962,-103.1446 71.4167,-88.8807 69.5,-76 67.1564,-60.2507 71.2493,-42.6175 75.6038,-29.5419"/>
<polygon fill="#191970" stroke="#191970" points="79.0297,-30.3654 79.1877,-19.7718 72.4579,-27.9548 79.0297,-30.3654"/>
</g>
<!-- Node3 -->
<g id="node4" class="node">
<title>Node3</title>
<g id="a_node4"><a xlink:href="FlyBehavior_8h.html" target="_top" xlink:title="FlyBehavior.h">
<polygon fill="#ffffff" stroke="#000000" points="79,-56.5 79,-75.5 156,-75.5 156,-56.5 79,-56.5"/>
<text text-anchor="middle" x="117.5" y="-63.5" font-family="Helvetica,sans-Serif" font-size="10.00" fill="#000000">FlyBehavior.h</text>
</a>
</g>
</g>
<!-- Node1&#45;&gt;Node3 -->
<g id="edge3" class="edge">
<title>Node1&#45;&gt;Node3</title>
<path fill="none" stroke="#191970" d="M89.4223,-112.2455C94.1027,-104.5367 100.7673,-93.5598 106.4289,-84.2348"/>
<polygon fill="#191970" stroke="#191970" points="109.4475,-86.007 111.6455,-75.6427 103.4639,-82.3741 109.4475,-86.007"/>
</g>
<!-- Node3&#45;&gt;Node2 -->
<g id="edge4" class="edge">
<title>Node3&#45;&gt;Node2</title>
<path fill="none" stroke="#191970" d="M111.5777,-56.2455C106.8973,-48.5367 100.2327,-37.5598 94.5711,-28.2348"/>
<polygon fill="#191970" stroke="#191970" points="97.5361,-26.3741 89.3545,-19.6427 91.5525,-30.007 97.5361,-26.3741"/>
</g>
</g>
</svg>
