<?xml version="1.0" encoding="UTF-8" standalone="no"?>
<!DOCTYPE svg PUBLIC "-//W3C//DTD SVG 1.1//EN"
 "http://www.w3.org/Graphics/SVG/1.1/DTD/svg11.dtd">
<!-- Generated by graphviz version 2.40.1 (20161225.0304)
 -->
<!-- Title: include/FlyBehavior/FlyWithWings.h Pages: 1 -->
<svg width="546pt" height="151pt"
 viewBox="0.00 0.00 546.00 151.00" xmlns="http://www.w3.org/2000/svg" xmlns:xlink="http://www.w3.org/1999/xlink">
<g id="graph0" class="graph" transform="scale(1 1) rotate(0) translate(4 147)">
<title>include/FlyBehavior/FlyWithWings.h</title>
<polygon fill="#ffffff" stroke="transparent" points="-4,4 -4,-147 542,-147 542,4 -4,4"/>
<!-- Node3 -->
<g id="node1" class="node">
<title>Node3</title>
<polygon fill="#bfbfbf" stroke="#000000" points="225.5,-112.5 225.5,-142.5 327.5,-142.5 327.5,-112.5 225.5,-112.5"/>
<text text-anchor="start" x="233.5" y="-130.5" font-family="Helvetica,sans-Serif" font-size="10.00" fill="#000000">include/FlyBehavior</text>
<text text-anchor="middle" x="276.5" y="-119.5" font-family="Helvetica,sans-Serif" font-size="10.00" fill="#000000">/FlyWithWings.h</text>
</g>
<!-- Node4 -->
<g id="node2" class="node">
<title>Node4</title>
<g id="a_node2"><a xlink:href="MallardDuck_8h.html" target="_top" xlink:title="include/Ducks/MallardDuck.h">
<polygon fill="#ffffff" stroke="#000000" points="39,-56.5 39,-75.5 182,-75.5 182,-56.5 39,-56.5"/>
<text text-anchor="middle" x="110.5" y="-63.5" font-family="Helvetica,sans-Serif" font-size="10.00" fill="#000000">include/Ducks/MallardDuck.h</text>
</a>
</g>
</g>
<!-- Node3&#45;&gt;Node4 -->
<g id="edge1" class="edge">
<title>Node3&#45;&gt;Node4</title>
<path fill="none" stroke="#191970" d="M226.4947,-108.9739C196.7452,-97.9523 160.2409,-84.4281 136.2241,-75.5303"/>
<polygon fill="#191970" stroke="#191970" points="225.2987,-112.2633 235.8918,-112.4554 227.7306,-105.6993 225.2987,-112.2633"/>
</g>
<!-- Node7 -->
<g id="node5" class="node">
<title>Node7</title>
<g id="a_node5"><a xlink:href="RedHeadDuck_8h.html" target="_top" xlink:title="include/Ducks/RedHeadDuck.h">
<polygon fill="#ffffff" stroke="#000000" points="200.5,-56.5 200.5,-75.5 352.5,-75.5 352.5,-56.5 200.5,-56.5"/>
<text text-anchor="middle" x="276.5" y="-63.5" font-family="Helvetica,sans-Serif" font-size="10.00" fill="#000000">include/Ducks/RedHeadDuck.h</text>
</a>
</g>
</g>
<!-- Node3&#45;&gt;Node7 -->
<g id="edge4" class="edge">
<title>Node3&#45;&gt;Node7</title>
<path fill="none" stroke="#191970" d="M276.5,-102.2849C276.5,-92.9858 276.5,-82.9883 276.5,-75.8469"/>
<polygon fill="#191970" stroke="#191970" points="273.0001,-102.2977 276.5,-112.2977 280.0001,-102.2978 273.0001,-102.2977"/>
</g>
<!-- Node9 -->
<g id="node7" class="node">
<title>Node9</title>
<g id="a_node7"><a xlink:href="FlyWithWings_8cpp.html" target="_top" xlink:title="src/FlyBehavior/FlyWithWings.cpp">
<polygon fill="#ffffff" stroke="#000000" points="371,-56.5 371,-75.5 538,-75.5 538,-56.5 371,-56.5"/>
<text text-anchor="middle" x="454.5" y="-63.5" font-family="Helvetica,sans-Serif" font-size="10.00" fill="#000000">src/FlyBehavior/FlyWithWings.cpp</text>
</a>
</g>
</g>
<!-- Node3&#45;&gt;Node9 -->
<g id="edge7" class="edge">
<title>Node3&#45;&gt;Node9</title>
<path fill="none" stroke="#191970" d="M329.7063,-109.1169C361.681,-98.0695 401.0519,-84.4666 426.9163,-75.5303"/>
<polygon fill="#191970" stroke="#191970" points="328.3525,-105.8816 320.0437,-112.4554 330.6385,-112.4978 328.3525,-105.8816"/>
</g>
<!-- Node5 -->
<g id="node3" class="node">
<title>Node5</title>
<g id="a_node3"><a xlink:href="MallardDuck_8cpp.html" target="_top" xlink:title="src/Ducks/MallardDuck.cpp">
<polygon fill="#ffffff" stroke="#000000" points="0,-.5 0,-19.5 137,-19.5 137,-.5 0,-.5"/>
<text text-anchor="middle" x="68.5" y="-7.5" font-family="Helvetica,sans-Serif" font-size="10.00" fill="#000000">src/Ducks/MallardDuck.cpp</text>
</a>
</g>
</g>
<!-- Node4&#45;&gt;Node5 -->
<g id="edge2" class="edge">
<title>Node4&#45;&gt;Node5</title>
<path fill="none" stroke="#191970" d="M97.1584,-48.2112C90.0604,-38.7472 81.6097,-27.4797 75.732,-19.6427"/>
<polygon fill="#191970" stroke="#191970" points="94.3841,-50.3455 103.1842,-56.2455 99.9841,-46.1455 94.3841,-50.3455"/>
</g>
<!-- Node6 -->
<g id="node4" class="node">
<title>Node6</title>
<g id="a_node4"><a xlink:href="main_8cpp.html" target="_top" xlink:title="src/main.cpp">
<polygon fill="#ffffff" stroke="#000000" points="155,-.5 155,-19.5 228,-19.5 228,-.5 155,-.5"/>
<text text-anchor="middle" x="191.5" y="-7.5" font-family="Helvetica,sans-Serif" font-size="10.00" fill="#000000">src/main.cpp</text>
</a>
</g>
</g>
<!-- Node4&#45;&gt;Node6 -->
<g id="edge3" class="edge">
<title>Node4&#45;&gt;Node6</title>
<path fill="none" stroke="#191970" d="M132.934,-50.49C147.2254,-40.6096 165.2916,-28.1194 177.5526,-19.6427"/>
<polygon fill="#191970" stroke="#191970" points="130.8443,-47.6797 124.6091,-56.2455 134.8251,-53.4376 130.8443,-47.6797"/>
</g>
<!-- Node7&#45;&gt;Node6 -->
<g id="edge6" class="edge">
<title>Node7&#45;&gt;Node6</title>
<path fill="none" stroke="#191970" d="M252.9581,-50.49C237.961,-40.6096 219.0027,-28.1194 206.1362,-19.6427"/>
<polygon fill="#191970" stroke="#191970" points="251.4179,-53.6666 261.6941,-56.2455 255.2691,-47.8212 251.4179,-53.6666"/>
</g>
<!-- Node8 -->
<g id="node6" class="node">
<title>Node8</title>
<g id="a_node6"><a xlink:href="RedHeadDuck_8cpp.html" target="_top" xlink:title="src/Ducks/RedHeadDuck.cpp">
<polygon fill="#ffffff" stroke="#000000" points="246,-.5 246,-19.5 391,-19.5 391,-.5 246,-.5"/>
<text text-anchor="middle" x="318.5" y="-7.5" font-family="Helvetica,sans-Serif" font-size="10.00" fill="#000000">src/Ducks/RedHeadDuck.cpp</text>
</a>
</g>
</g>
<!-- Node7&#45;&gt;Node8 -->
<g id="edge5" class="edge">
<title>Node7&#45;&gt;Node8</title>
<path fill="none" stroke="#191970" d="M289.8416,-48.2112C296.9396,-38.7472 305.3903,-27.4797 311.268,-19.6427"/>
<polygon fill="#191970" stroke="#191970" points="287.0159,-46.1455 283.8158,-56.2455 292.6159,-50.3455 287.0159,-46.1455"/>
</g>
</g>
</svg>
