<?xml version="1.0" encoding="UTF-8" standalone="no"?>
<!DOCTYPE svg PUBLIC "-//W3C//DTD SVG 1.1//EN"
 "http://www.w3.org/Graphics/SVG/1.1/DTD/svg11.dtd">
<!-- Generated by graphviz version 2.40.1 (20161225.0304)
 -->
<!-- Title: include/FlyBehavior/FlyWithWings.h Pages: 1 -->
<svg width="132pt" height="151pt"
 viewBox="0.00 0.00 131.50 151.00" xmlns="http://www.w3.org/2000/svg" xmlns:xlink="http://www.w3.org/1999/xlink">
<g id="graph0" class="graph" transform="scale(1 1) rotate(0) translate(4 147)">
<title>include/FlyBehavior/FlyWithWings.h</title>
<polygon fill="#ffffff" stroke="transparent" points="-4,4 -4,-147 127.5,-147 127.5,4 -4,4"/>
<!-- Node0 -->
<g id="node1" class="node">
<title>Node0</title>
<polygon fill="#bfbfbf" stroke="#000000" points="0,-112.5 0,-142.5 102,-142.5 102,-112.5 0,-112.5"/>
<text text-anchor="start" x="8" y="-130.5" font-family="Helvetica,sans-Serif" font-size="10.00" fill="#000000">include/FlyBehavior</text>
<text text-anchor="middle" x="51" y="-119.5" font-family="Helvetica,sans-Serif" font-size="10.00" fill="#000000">/FlyWithWings.h</text>
</g>
<!-- Node1 -->
<g id="node2" class="node">
<title>Node1</title>
<polygon fill="#ffffff" stroke="#bfbfbf" points="24,-.5 24,-19.5 78,-19.5 78,-.5 24,-.5"/>
<text text-anchor="middle" x="51" y="-7.5" font-family="Helvetica,sans-Serif" font-size="10.00" fill="#000000">iostream</text>
</g>
<!-- Node0&#45;&gt;Node1 -->
<g id="edge1" class="edge">
<title>Node0&#45;&gt;Node1</title>
<path fill="none" stroke="#191970" d="M44.9308,-112.2277C39.9298,-97.7986 34.0957,-75.5174 37,-56 38.3327,-47.0439 41.0494,-37.419 43.7381,-29.3"/>
<polygon fill="#191970" stroke="#191970" points="47.1067,-30.272 47.1376,-19.6772 40.5064,-27.9402 47.1067,-30.272"/>
</g>
<!-- Node2 -->
<g id="node3" class="node">
<title>Node2</title>
<g id="a_node3"><a xlink:href="FlyBehavior_8h.html" target="_top" xlink:title="FlyBehavior.h">
<polygon fill="#ffffff" stroke="#000000" points="46.5,-56.5 46.5,-75.5 123.5,-75.5 123.5,-56.5 46.5,-56.5"/>
<text text-anchor="middle" x="85" y="-63.5" font-family="Helvetica,sans-Serif" font-size="10.00" fill="#000000">FlyBehavior.h</text>
</a>
</g>
</g>
<!-- Node0&#45;&gt;Node2 -->
<g id="edge2" class="edge">
<title>Node0&#45;&gt;Node2</title>
<path fill="none" stroke="#191970" d="M59.4045,-112.2977C64.0257,-103.9388 69.7969,-93.4997 74.6889,-84.6509"/>
<polygon fill="#191970" stroke="#191970" points="77.7809,-86.292 79.5562,-75.8469 71.6548,-82.9051 77.7809,-86.292"/>
</g>
<!-- Node2&#45;&gt;Node1 -->
<g id="edge3" class="edge">
<title>Node2&#45;&gt;Node1</title>
<path fill="none" stroke="#191970" d="M79.0777,-56.2455C74.3973,-48.5367 67.7327,-37.5598 62.0711,-28.2348"/>
<polygon fill="#191970" stroke="#191970" points="65.0361,-26.3741 56.8545,-19.6427 59.0525,-30.007 65.0361,-26.3741"/>
</g>
</g>
</svg>
