<?xml version="1.0" encoding="UTF-8" standalone="no"?>
<!DOCTYPE svg PUBLIC "-//W3C//DTD SVG 1.1//EN"
 "http://www.w3.org/Graphics/SVG/1.1/DTD/svg11.dtd">
<!-- Generated by graphviz version 2.40.1 (20161225.0304)
 -->
<!-- Title: Graphical Class Hierarchy Pages: 1 -->
<svg width="194pt" height="104pt"
 viewBox="0.00 0.00 194.00 104.00" xmlns="http://www.w3.org/2000/svg" xmlns:xlink="http://www.w3.org/1999/xlink">
<g id="graph0" class="graph" transform="scale(1 1) rotate(0) translate(4 100)">
<title>Graphical Class Hierarchy</title>
<polygon fill="#ffffff" stroke="transparent" points="-4,4 -4,-100 190,-100 190,4 -4,4"/>
<!-- Node0 -->
<g id="node1" class="node">
<title>Node0</title>
<g id="a_node1"><a xlink:href="classQuackBehavior.html" target="_top" xlink:title="QuackBehavior">
<polygon fill="#ffffff" stroke="#000000" points="0,-38.5 0,-57.5 83,-57.5 83,-38.5 0,-38.5"/>
<text text-anchor="middle" x="41.5" y="-45.5" font-family="Helvetica,sans-Serif" font-size="10.00" fill="#000000">QuackBehavior</text>
</a>
</g>
</g>
<!-- Node1 -->
<g id="node2" class="node">
<title>Node1</title>
<g id="a_node2"><a xlink:href="classMuteQuack.html" target="_top" xlink:title="MuteQuack">
<polygon fill="#ffffff" stroke="#000000" points="119,-76.5 119,-95.5 186,-95.5 186,-76.5 119,-76.5"/>
<text text-anchor="middle" x="152.5" y="-83.5" font-family="Helvetica,sans-Serif" font-size="10.00" fill="#000000">MuteQuack</text>
</a>
</g>
</g>
<!-- Node0&#45;&gt;Node1 -->
<g id="edge1" class="edge">
<title>Node0&#45;&gt;Node1</title>
<path fill="none" stroke="#191970" d="M79.3913,-60.9718C94.1795,-66.0344 110.8285,-71.7341 124.499,-76.4141"/>
<polygon fill="#191970" stroke="#191970" points="80.1046,-57.5166 69.51,-57.589 77.8373,-64.1393 80.1046,-57.5166"/>
</g>
<!-- Node2 -->
<g id="node3" class="node">
<title>Node2</title>
<g id="a_node3"><a xlink:href="classQuack.html" target="_top" xlink:title="Quack">
<polygon fill="#ffffff" stroke="#000000" points="130,-38.5 130,-57.5 175,-57.5 175,-38.5 130,-38.5"/>
<text text-anchor="middle" x="152.5" y="-45.5" font-family="Helvetica,sans-Serif" font-size="10.00" fill="#000000">Quack</text>
</a>
</g>
</g>
<!-- Node0&#45;&gt;Node2 -->
<g id="edge2" class="edge">
<title>Node0&#45;&gt;Node2</title>
<path fill="none" stroke="#191970" d="M93.3541,-48C106.2165,-48 119.3411,-48 129.9487,-48"/>
<polygon fill="#191970" stroke="#191970" points="93.1481,-44.5001 83.1481,-48 93.1481,-51.5001 93.1481,-44.5001"/>
</g>
<!-- Node3 -->
<g id="node4" class="node">
<title>Node3</title>
<g id="a_node4"><a xlink:href="classSqueak.html" target="_top" xlink:title="Squeak">
<polygon fill="#ffffff" stroke="#000000" points="127.5,-.5 127.5,-19.5 177.5,-19.5 177.5,-.5 127.5,-.5"/>
<text text-anchor="middle" x="152.5" y="-7.5" font-family="Helvetica,sans-Serif" font-size="10.00" fill="#000000">Squeak</text>
</a>
</g>
</g>
<!-- Node0&#45;&gt;Node3 -->
<g id="edge3" class="edge">
<title>Node0&#45;&gt;Node3</title>
<path fill="none" stroke="#191970" d="M79.0399,-35.1485C94.886,-29.7237 112.9214,-23.5494 127.1561,-18.6763"/>
<polygon fill="#191970" stroke="#191970" points="77.8373,-31.8607 69.51,-38.411 80.1046,-38.4834 77.8373,-31.8607"/>
</g>
</g>
</svg>
