<?xml version="1.0" encoding="UTF-8" standalone="no"?>
<!DOCTYPE svg PUBLIC "-//W3C//DTD SVG 1.1//EN"
 "http://www.w3.org/Graphics/SVG/1.1/DTD/svg11.dtd">
<!-- Generated by graphviz version 2.40.1 (20161225.0304)
 -->
<!-- Title: Graphical Class Hierarchy Pages: 1 -->
<svg width="162pt" height="142pt"
 viewBox="0.00 0.00 162.00 142.00" xmlns="http://www.w3.org/2000/svg" xmlns:xlink="http://www.w3.org/1999/xlink">
<g id="graph0" class="graph" transform="scale(1 1) rotate(0) translate(4 138)">
<title>Graphical Class Hierarchy</title>
<polygon fill="#ffffff" stroke="transparent" points="-4,4 -4,-138 158,-138 158,4 -4,4"/>
<!-- Node0 -->
<g id="node1" class="node">
<title>Node0</title>
<g id="a_node1"><a xlink:href="classDuck.html" target="_top" xlink:title="Duck">
<polygon fill="#ffffff" stroke="#000000" points="0,-57.5 0,-76.5 39,-76.5 39,-57.5 0,-57.5"/>
<text text-anchor="middle" x="19.5" y="-64.5" font-family="Helvetica,sans-Serif" font-size="10.00" fill="#000000">Duck</text>
</a>
</g>
</g>
<!-- Node1 -->
<g id="node2" class="node">
<title>Node1</title>
<g id="a_node2"><a xlink:href="classMallardDuck.html" target="_top" xlink:title="MallardDuck">
<polygon fill="#ffffff" stroke="#000000" points="79,-114.5 79,-133.5 150,-133.5 150,-114.5 79,-114.5"/>
<text text-anchor="middle" x="114.5" y="-121.5" font-family="Helvetica,sans-Serif" font-size="10.00" fill="#000000">MallardDuck</text>
</a>
</g>
</g>
<!-- Node0&#45;&gt;Node1 -->
<g id="edge1" class="edge">
<title>Node0&#45;&gt;Node1</title>
<path fill="none" stroke="#191970" d="M40.6161,-82.5763C50.776,-89.7778 63.2724,-98.2172 75,-105 80.6651,-108.2765 86.9817,-111.4958 92.8727,-114.3266"/>
<polygon fill="#191970" stroke="#191970" points="42.5281,-79.6403 32.3672,-76.6392 38.4389,-85.3217 42.5281,-79.6403"/>
</g>
<!-- Node2 -->
<g id="node3" class="node">
<title>Node2</title>
<g id="a_node3"><a xlink:href="classModelDuck.html" target="_top" xlink:title="ModelDuck">
<polygon fill="#ffffff" stroke="#000000" points="82,-76.5 82,-95.5 147,-95.5 147,-76.5 82,-76.5"/>
<text text-anchor="middle" x="114.5" y="-83.5" font-family="Helvetica,sans-Serif" font-size="10.00" fill="#000000">ModelDuck</text>
</a>
</g>
</g>
<!-- Node0&#45;&gt;Node2 -->
<g id="edge2" class="edge">
<title>Node0&#45;&gt;Node2</title>
<path fill="none" stroke="#191970" d="M49.0241,-72.9048C59.4021,-74.9804 71.123,-77.3246 81.7503,-79.4501"/>
<polygon fill="#191970" stroke="#191970" points="49.6763,-69.466 39.1841,-70.9368 48.3034,-76.3301 49.6763,-69.466"/>
</g>
<!-- Node3 -->
<g id="node4" class="node">
<title>Node3</title>
<g id="a_node4"><a xlink:href="classRedHeadDuck.html" target="_top" xlink:title="RedHeadDuck">
<polygon fill="#ffffff" stroke="#000000" points="75,-38.5 75,-57.5 154,-57.5 154,-38.5 75,-38.5"/>
<text text-anchor="middle" x="114.5" y="-45.5" font-family="Helvetica,sans-Serif" font-size="10.00" fill="#000000">RedHeadDuck</text>
</a>
</g>
</g>
<!-- Node0&#45;&gt;Node3 -->
<g id="edge3" class="edge">
<title>Node0&#45;&gt;Node3</title>
<path fill="none" stroke="#191970" d="M49.0069,-61.0986C57.1853,-59.4629 66.1987,-57.6603 74.8543,-55.9291"/>
<polygon fill="#191970" stroke="#191970" points="48.3034,-57.6699 39.1841,-63.0632 49.6763,-64.534 48.3034,-57.6699"/>
</g>
<!-- Node4 -->
<g id="node5" class="node">
<title>Node4</title>
<g id="a_node5"><a xlink:href="classRubberDucky.html" target="_top" xlink:title="RubberDucky">
<polygon fill="#ffffff" stroke="#000000" points="77,-.5 77,-19.5 152,-19.5 152,-.5 77,-.5"/>
<text text-anchor="middle" x="114.5" y="-7.5" font-family="Helvetica,sans-Serif" font-size="10.00" fill="#000000">RubberDucky</text>
</a>
</g>
</g>
<!-- Node0&#45;&gt;Node4 -->
<g id="edge4" class="edge">
<title>Node0&#45;&gt;Node4</title>
<path fill="none" stroke="#191970" d="M40.6161,-51.4237C50.776,-44.2222 63.2724,-35.7828 75,-29 80.6651,-25.7235 86.9817,-22.5042 92.8727,-19.6734"/>
<polygon fill="#191970" stroke="#191970" points="38.4389,-48.6783 32.3672,-57.3608 42.5281,-54.3597 38.4389,-48.6783"/>
</g>
</g>
</svg>
