<?xml version="1.0" encoding="UTF-8" standalone="no"?>
<!DOCTYPE svg PUBLIC "-//W3C//DTD SVG 1.1//EN"
 "http://www.w3.org/Graphics/SVG/1.1/DTD/svg11.dtd">
<!-- Generated by graphviz version 2.40.1 (20161225.0304)
 -->
<!-- Title: Graphical Class Hierarchy Pages: 1 -->
<svg width="210pt" height="104pt"
 viewBox="0.00 0.00 210.00 104.00" xmlns="http://www.w3.org/2000/svg" xmlns:xlink="http://www.w3.org/1999/xlink">
<g id="graph0" class="graph" transform="scale(1 1) rotate(0) translate(4 100)">
<title>Graphical Class Hierarchy</title>
<polygon fill="#ffffff" stroke="transparent" points="-4,4 -4,-100 206,-100 206,4 -4,4"/>
<!-- Node0 -->
<g id="node1" class="node">
<title>Node0</title>
<g id="a_node1"><a xlink:href="classFlyBehavior.html" target="_top" xlink:title="FlyBehavior">
<polygon fill="#ffffff" stroke="#000000" points="0,-38.5 0,-57.5 68,-57.5 68,-38.5 0,-38.5"/>
<text text-anchor="middle" x="34" y="-45.5" font-family="Helvetica,sans-Serif" font-size="10.00" fill="#000000">FlyBehavior</text>
</a>
</g>
</g>
<!-- Node1 -->
<g id="node2" class="node">
<title>Node1</title>
<g id="a_node2"><a xlink:href="classFlyNoWay.html" target="_top" xlink:title="FlyNoWay">
<polygon fill="#ffffff" stroke="#000000" points="122,-76.5 122,-95.5 184,-95.5 184,-76.5 122,-76.5"/>
<text text-anchor="middle" x="153" y="-83.5" font-family="Helvetica,sans-Serif" font-size="10.00" fill="#000000">FlyNoWay</text>
</a>
</g>
</g>
<!-- Node0&#45;&gt;Node1 -->
<g id="edge1" class="edge">
<title>Node0&#45;&gt;Node1</title>
<path fill="none" stroke="#191970" d="M73.7098,-60.6804C89.7886,-65.8148 108.0433,-71.6441 122.9809,-76.4141"/>
<polygon fill="#191970" stroke="#191970" points="74.6195,-57.2969 64.0287,-57.589 72.4901,-63.9652 74.6195,-57.2969"/>
</g>
<!-- Node2 -->
<g id="node3" class="node">
<title>Node2</title>
<g id="a_node3"><a xlink:href="classFlyRocketPowered.html" target="_top" xlink:title="FlyRocketPowered">
<polygon fill="#ffffff" stroke="#000000" points="104,-38.5 104,-57.5 202,-57.5 202,-38.5 104,-38.5"/>
<text text-anchor="middle" x="153" y="-45.5" font-family="Helvetica,sans-Serif" font-size="10.00" fill="#000000">FlyRocketPowered</text>
</a>
</g>
</g>
<!-- Node0&#45;&gt;Node2 -->
<g id="edge2" class="edge">
<title>Node0&#45;&gt;Node2</title>
<path fill="none" stroke="#191970" d="M78.3423,-48C86.6482,-48 95.3762,-48 103.8184,-48"/>
<polygon fill="#191970" stroke="#191970" points="78.1007,-44.5001 68.1006,-48 78.1006,-51.5001 78.1007,-44.5001"/>
</g>
<!-- Node3 -->
<g id="node4" class="node">
<title>Node3</title>
<g id="a_node4"><a xlink:href="classFlyWithWings.html" target="_top" xlink:title="FlyWithWings">
<polygon fill="#ffffff" stroke="#000000" points="114.5,-.5 114.5,-19.5 191.5,-19.5 191.5,-.5 114.5,-.5"/>
<text text-anchor="middle" x="153" y="-7.5" font-family="Helvetica,sans-Serif" font-size="10.00" fill="#000000">FlyWithWings</text>
</a>
</g>
</g>
<!-- Node0&#45;&gt;Node3 -->
<g id="edge3" class="edge">
<title>Node0&#45;&gt;Node3</title>
<path fill="none" stroke="#191970" d="M73.7098,-35.3196C89.7886,-30.1852 108.0433,-24.3559 122.9809,-19.5859"/>
<polygon fill="#191970" stroke="#191970" points="72.4901,-32.0348 64.0287,-38.411 74.6195,-38.7031 72.4901,-32.0348"/>
</g>
</g>
</svg>
