<?xml version="1.0" encoding="UTF-8" standalone="no"?>
<!DOCTYPE svg PUBLIC "-//W3C//DTD SVG 1.1//EN"
 "http://www.w3.org/Graphics/SVG/1.1/DTD/svg11.dtd">
<!-- Generated by graphviz version 2.40.1 (20161225.0304)
 -->
<!-- Title: main Pages: 1 -->
<svg width="351pt" height="332pt"
 viewBox="0.00 0.00 351.00 332.00" xmlns="http://www.w3.org/2000/svg" xmlns:xlink="http://www.w3.org/1999/xlink">
<g id="graph0" class="graph" transform="scale(1 1) rotate(0) translate(4 328)">
<title>main</title>
<polygon fill="#ffffff" stroke="transparent" points="-4,4 -4,-328 347,-328 347,4 -4,4"/>
<!-- Node0 -->
<g id="node1" class="node">
<title>Node0</title>
<polygon fill="#bfbfbf" stroke="#000000" points="0,-152.5 0,-171.5 38,-171.5 38,-152.5 0,-152.5"/>
<text text-anchor="middle" x="19" y="-159.5" font-family="Helvetica,sans-Serif" font-size="10.00" fill="#000000">main</text>
</g>
<!-- Node1 -->
<g id="node2" class="node">
<title>Node1</title>
<g id="a_node2"><a xlink:href="classDuck.html#a59e144ba5a78e174564a974f79c86a7c" target="_top" xlink:title="Duck::PerformQuack">
<polygon fill="#ffffff" stroke="#000000" points="78.5,-304.5 78.5,-323.5 186.5,-323.5 186.5,-304.5 78.5,-304.5"/>
<text text-anchor="middle" x="132.5" y="-311.5" font-family="Helvetica,sans-Serif" font-size="10.00" fill="#000000">Duck::PerformQuack</text>
</a>
</g>
</g>
<!-- Node0&#45;&gt;Node1 -->
<g id="edge1" class="edge">
<title>Node0&#45;&gt;Node1</title>
<path fill="none" stroke="#191970" d="M20.2013,-171.5915C23.7475,-195.8565 36.3939,-260.2213 74,-295 75.7199,-296.5906 77.5745,-298.048 79.5283,-299.3836"/>
<polygon fill="#191970" stroke="#191970" points="78.1859,-302.644 88.6183,-304.4926 81.6157,-296.5418 78.1859,-302.644"/>
</g>
<!-- Node3 -->
<g id="node4" class="node">
<title>Node3</title>
<g id="a_node4"><a xlink:href="classDuck.html#aa736b680e1a5a0e7a4d584db0449611d" target="_top" xlink:title="Duck::PerformFly">
<polygon fill="#ffffff" stroke="#000000" points="86,-266.5 86,-285.5 179,-285.5 179,-266.5 86,-266.5"/>
<text text-anchor="middle" x="132.5" y="-273.5" font-family="Helvetica,sans-Serif" font-size="10.00" fill="#000000">Duck::PerformFly</text>
</a>
</g>
</g>
<!-- Node0&#45;&gt;Node3 -->
<g id="edge3" class="edge">
<title>Node0&#45;&gt;Node3</title>
<path fill="none" stroke="#191970" d="M21.9582,-171.6308C28.3173,-190.7432 45.1039,-233.6319 74,-257 76.2574,-258.8256 78.6952,-260.4777 81.2495,-261.9726"/>
<polygon fill="#191970" stroke="#191970" points="79.7785,-265.15 90.2904,-266.4731 82.898,-258.8835 79.7785,-265.15"/>
</g>
<!-- Node5 -->
<g id="node6" class="node">
<title>Node5</title>
<g id="a_node6"><a xlink:href="classDuck.html#abe868dd4423097a600929b00adb24b4f" target="_top" xlink:title="Duck::Swim">
<polygon fill="#ffffff" stroke="#000000" points="98,-228.5 98,-247.5 167,-247.5 167,-228.5 98,-228.5"/>
<text text-anchor="middle" x="132.5" y="-235.5" font-family="Helvetica,sans-Serif" font-size="10.00" fill="#000000">Duck::Swim</text>
</a>
</g>
</g>
<!-- Node0&#45;&gt;Node5 -->
<g id="edge5" class="edge">
<title>Node0&#45;&gt;Node5</title>
<path fill="none" stroke="#191970" d="M26.0687,-171.8944C35.5931,-184.5427 53.71,-206.3175 74,-219 78.4144,-221.7593 83.2689,-224.1566 88.2358,-226.2299"/>
<polygon fill="#191970" stroke="#191970" points="87.2476,-229.5972 97.84,-229.8273 89.7031,-223.0419 87.2476,-229.5972"/>
</g>
<!-- Node6 -->
<g id="node7" class="node">
<title>Node6</title>
<g id="a_node7"><a xlink:href="classDuck.html#a831bb74ef17c1faa9f0fb5d0dfe066ae" target="_top" xlink:title="Duck::Display">
<polygon fill="#ffffff" stroke="#000000" points="94,-190.5 94,-209.5 171,-209.5 171,-190.5 94,-190.5"/>
<text text-anchor="middle" x="132.5" y="-197.5" font-family="Helvetica,sans-Serif" font-size="10.00" fill="#000000">Duck::Display</text>
</a>
</g>
</g>
<!-- Node0&#45;&gt;Node6 -->
<g id="edge6" class="edge">
<title>Node0&#45;&gt;Node6</title>
<path fill="none" stroke="#191970" d="M38.0606,-168.6821C48.6328,-172.3638 62.0264,-176.9878 74,-181 80.1131,-183.0484 86.5965,-185.1874 92.9356,-187.2604"/>
<polygon fill="#191970" stroke="#191970" points="92.1121,-190.673 102.7044,-190.4409 94.2792,-184.0169 92.1121,-190.673"/>
</g>
<!-- Node7 -->
<g id="node8" class="node">
<title>Node7</title>
<g id="a_node8"><a xlink:href="classMallardDuck.html#a5bb2f4942d95dd2b1fb6bfe87675e68a" target="_top" xlink:title="MallardDuck::Display">
<polygon fill="#ffffff" stroke="#000000" points="78,-152.5 78,-171.5 187,-171.5 187,-152.5 78,-152.5"/>
<text text-anchor="middle" x="132.5" y="-159.5" font-family="Helvetica,sans-Serif" font-size="10.00" fill="#000000">MallardDuck::Display</text>
</a>
</g>
</g>
<!-- Node0&#45;&gt;Node7 -->
<g id="edge7" class="edge">
<title>Node0&#45;&gt;Node7</title>
<path fill="none" stroke="#191970" d="M38.2537,-162C46.5933,-162 56.8884,-162 67.5785,-162"/>
<polygon fill="#191970" stroke="#191970" points="67.898,-165.5001 77.8979,-162 67.8979,-158.5001 67.898,-165.5001"/>
</g>
<!-- Node8 -->
<g id="node9" class="node">
<title>Node8</title>
<g id="a_node9"><a xlink:href="classRedHeadDuck.html#aa2d3bde8f5f0592bc87035c818591816" target="_top" xlink:title="RedHeadDuck::Display">
<polygon fill="#ffffff" stroke="#000000" points="74,-114.5 74,-133.5 191,-133.5 191,-114.5 74,-114.5"/>
<text text-anchor="middle" x="132.5" y="-121.5" font-family="Helvetica,sans-Serif" font-size="10.00" fill="#000000">RedHeadDuck::Display</text>
</a>
</g>
</g>
<!-- Node0&#45;&gt;Node8 -->
<g id="edge8" class="edge">
<title>Node0&#45;&gt;Node8</title>
<path fill="none" stroke="#191970" d="M38.0606,-155.3179C48.6328,-151.6362 62.0264,-147.0122 74,-143 80.1131,-140.9516 86.5965,-138.8126 92.9356,-136.7396"/>
<polygon fill="#191970" stroke="#191970" points="94.2792,-139.9831 102.7044,-133.5591 92.1121,-133.327 94.2792,-139.9831"/>
</g>
<!-- Node9 -->
<g id="node10" class="node">
<title>Node9</title>
<g id="a_node10"><a xlink:href="classRubberDucky.html#ac1795eeb8c70585f2fda4cd9294ae63f" target="_top" xlink:title="RubberDucky::Display">
<polygon fill="#ffffff" stroke="#000000" points="76,-76.5 76,-95.5 189,-95.5 189,-76.5 76,-76.5"/>
<text text-anchor="middle" x="132.5" y="-83.5" font-family="Helvetica,sans-Serif" font-size="10.00" fill="#000000">RubberDucky::Display</text>
</a>
</g>
</g>
<!-- Node0&#45;&gt;Node9 -->
<g id="edge9" class="edge">
<title>Node0&#45;&gt;Node9</title>
<path fill="none" stroke="#191970" d="M26.0687,-152.1056C35.5931,-139.4573 53.71,-117.6825 74,-105 77.3178,-102.9261 80.8843,-101.0567 84.5603,-99.3757"/>
<polygon fill="#191970" stroke="#191970" points="85.9151,-102.6031 93.8442,-95.576 83.2636,-96.1246 85.9151,-102.6031"/>
</g>
<!-- Node10 -->
<g id="node11" class="node">
<title>Node10</title>
<g id="a_node11"><a xlink:href="classModelDuck.html#a7ff962ded1c14a4a2c89b43174c3024e" target="_top" xlink:title="ModelDuck::Display">
<polygon fill="#ffffff" stroke="#000000" points="80.5,-38.5 80.5,-57.5 184.5,-57.5 184.5,-38.5 80.5,-38.5"/>
<text text-anchor="middle" x="132.5" y="-45.5" font-family="Helvetica,sans-Serif" font-size="10.00" fill="#000000">ModelDuck::Display</text>
</a>
</g>
</g>
<!-- Node0&#45;&gt;Node10 -->
<g id="edge10" class="edge">
<title>Node0&#45;&gt;Node10</title>
<path fill="none" stroke="#191970" d="M21.9582,-152.3692C28.3173,-133.2568 45.1039,-90.3681 74,-67 76.2574,-65.1744 78.6952,-63.5223 81.2495,-62.0274"/>
<polygon fill="#191970" stroke="#191970" points="82.898,-65.1165 90.2904,-57.5269 79.7785,-58.85 82.898,-65.1165"/>
</g>
<!-- Node11 -->
<g id="node12" class="node">
<title>Node11</title>
<g id="a_node12"><a xlink:href="classDuck.html#a9fccf6cbc33e02fab35a4128a9e514be" target="_top" xlink:title="Duck::SetFlyBehavior">
<polygon fill="#ffffff" stroke="#000000" points="76.5,-.5 76.5,-19.5 188.5,-19.5 188.5,-.5 76.5,-.5"/>
<text text-anchor="middle" x="132.5" y="-7.5" font-family="Helvetica,sans-Serif" font-size="10.00" fill="#000000">Duck::SetFlyBehavior</text>
</a>
</g>
</g>
<!-- Node0&#45;&gt;Node11 -->
<g id="edge11" class="edge">
<title>Node0&#45;&gt;Node11</title>
<path fill="none" stroke="#191970" d="M20.2013,-152.4085C23.7475,-128.1435 36.3939,-63.7787 74,-29 75.7199,-27.4094 77.5745,-25.952 79.5283,-24.6164"/>
<polygon fill="#191970" stroke="#191970" points="81.6157,-27.4582 88.6183,-19.5074 78.1859,-21.356 81.6157,-27.4582"/>
</g>
<!-- Node2 -->
<g id="node3" class="node">
<title>Node2</title>
<g id="a_node3"><a xlink:href="classQuackBehavior.html#a3abd10dc543d85e22752c6bbe041e4c7" target="_top" xlink:title="QuackBehavior::quack">
<polygon fill="#ffffff" stroke="#000000" points="227,-304.5 227,-323.5 343,-323.5 343,-304.5 227,-304.5"/>
<text text-anchor="middle" x="285" y="-311.5" font-family="Helvetica,sans-Serif" font-size="10.00" fill="#000000">QuackBehavior::quack</text>
</a>
</g>
</g>
<!-- Node1&#45;&gt;Node2 -->
<g id="edge2" class="edge">
<title>Node1&#45;&gt;Node2</title>
<path fill="none" stroke="#191970" d="M186.6952,-314C196.4549,-314 206.742,-314 216.8378,-314"/>
<polygon fill="#191970" stroke="#191970" points="216.8433,-317.5001 226.8432,-314 216.8432,-310.5001 216.8433,-317.5001"/>
</g>
<!-- Node4 -->
<g id="node5" class="node">
<title>Node4</title>
<g id="a_node5"><a xlink:href="classFlyBehavior.html#add601e966f228e67500bcfebc8a0df10" target="_top" xlink:title="FlyBehavior::fly">
<polygon fill="#ffffff" stroke="#000000" points="242.5,-266.5 242.5,-285.5 327.5,-285.5 327.5,-266.5 242.5,-266.5"/>
<text text-anchor="middle" x="285" y="-273.5" font-family="Helvetica,sans-Serif" font-size="10.00" fill="#000000">FlyBehavior::fly</text>
</a>
</g>
</g>
<!-- Node3&#45;&gt;Node4 -->
<g id="edge4" class="edge">
<title>Node3&#45;&gt;Node4</title>
<path fill="none" stroke="#191970" d="M179.0837,-276C195.7673,-276 214.6959,-276 231.8903,-276"/>
<polygon fill="#191970" stroke="#191970" points="232.3365,-279.5001 242.3365,-276 232.3365,-272.5001 232.3365,-279.5001"/>
</g>
</g>
</svg>
