<?xml version="1.0" encoding="UTF-8" standalone="no"?>
<!DOCTYPE svg PUBLIC "-//W3C//DTD SVG 1.1//EN"
 "http://www.w3.org/Graphics/SVG/1.1/DTD/svg11.dtd">
<!-- Generated by graphviz version 2.40.1 (20161225.0304)
 -->
<!-- Title: src/main.cpp Pages: 1 -->
<svg width="556pt" height="252pt"
 viewBox="0.00 0.00 556.40 252.00" xmlns="http://www.w3.org/2000/svg" xmlns:xlink="http://www.w3.org/1999/xlink">
<g id="graph0" class="graph" transform="scale(1 1) rotate(0) translate(4 248)">
<title>src/main.cpp</title>
<polygon fill="#ffffff" stroke="transparent" points="-4,4 -4,-248 552.4034,-248 552.4034,4 -4,4"/>
<!-- Node0 -->
<g id="node1" class="node">
<title>Node0</title>
<polygon fill="#bfbfbf" stroke="#000000" points="200.4034,-224.5 200.4034,-243.5 273.4034,-243.5 273.4034,-224.5 200.4034,-224.5"/>
<text text-anchor="middle" x="236.9034" y="-231.5" font-family="Helvetica,sans-Serif" font-size="10.00" fill="#000000">src/main.cpp</text>
</g>
<!-- Node1 -->
<g id="node2" class="node">
<title>Node1</title>
<polygon fill="#ffffff" stroke="#bfbfbf" points="214.9034,-.5 214.9034,-19.5 268.9034,-19.5 268.9034,-.5 214.9034,-.5"/>
<text text-anchor="middle" x="241.9034" y="-7.5" font-family="Helvetica,sans-Serif" font-size="10.00" fill="#000000">iostream</text>
</g>
<!-- Node0&#45;&gt;Node1 -->
<g id="edge1" class="edge">
<title>Node0&#45;&gt;Node1</title>
<path fill="none" stroke="#191970" d="M199.9887,-231.8294C143.0176,-227.6227 37.8261,-216.1595 14.9034,-188 -27.2848,-136.174 28.1316,-87.8067 86.9034,-56 124.5492,-35.6264 172.3455,-23.2026 204.8409,-16.4868"/>
<polygon fill="#191970" stroke="#191970" points="205.6951,-19.8856 214.8214,-14.5041 204.3311,-13.0198 205.6951,-19.8856"/>
</g>
<!-- Node2 -->
<g id="node3" class="node">
<title>Node2</title>
<g id="a_node3"><a xlink:href="Duck_8h.html" target="_top" xlink:title="Duck.h">
<polygon fill="#ffffff" stroke="#000000" points="211.4034,-112.5 211.4034,-131.5 258.4034,-131.5 258.4034,-112.5 211.4034,-112.5"/>
<text text-anchor="middle" x="234.9034" y="-119.5" font-family="Helvetica,sans-Serif" font-size="10.00" fill="#000000">Duck.h</text>
</a>
</g>
</g>
<!-- Node0&#45;&gt;Node2 -->
<g id="edge2" class="edge">
<title>Node0&#45;&gt;Node2</title>
<path fill="none" stroke="#191970" d="M236.7328,-224.4509C236.4066,-206.184 235.6883,-165.9553 235.2551,-141.6976"/>
<polygon fill="#191970" stroke="#191970" points="238.7515,-141.4608 235.0734,-131.5249 231.7526,-141.5858 238.7515,-141.4608"/>
</g>
<!-- Node5 -->
<g id="node6" class="node">
<title>Node5</title>
<g id="a_node6"><a xlink:href="MallardDuck_8h.html" target="_top" xlink:title="MallardDuck.h">
<polygon fill="#ffffff" stroke="#000000" points="24.4034,-168.5 24.4034,-187.5 103.4034,-187.5 103.4034,-168.5 24.4034,-168.5"/>
<text text-anchor="middle" x="63.9034" y="-175.5" font-family="Helvetica,sans-Serif" font-size="10.00" fill="#000000">MallardDuck.h</text>
</a>
</g>
</g>
<!-- Node0&#45;&gt;Node5 -->
<g id="edge8" class="edge">
<title>Node0&#45;&gt;Node5</title>
<path fill="none" stroke="#191970" d="M207.1636,-224.3733C178.3963,-215.0613 134.6334,-200.8953 103.0478,-190.671"/>
<polygon fill="#191970" stroke="#191970" points="103.8469,-187.251 93.255,-187.5011 101.6911,-193.9107 103.8469,-187.251"/>
</g>
<!-- Node8 -->
<g id="node9" class="node">
<title>Node8</title>
<g id="a_node9"><a xlink:href="RedHeadDuck_8h.html" target="_top" xlink:title="RedHeadDuck.h">
<polygon fill="#ffffff" stroke="#000000" points="121.4034,-168.5 121.4034,-187.5 208.4034,-187.5 208.4034,-168.5 121.4034,-168.5"/>
<text text-anchor="middle" x="164.9034" y="-175.5" font-family="Helvetica,sans-Serif" font-size="10.00" fill="#000000">RedHeadDuck.h</text>
</a>
</g>
</g>
<!-- Node0&#45;&gt;Node8 -->
<g id="edge16" class="edge">
<title>Node0&#45;&gt;Node8</title>
<path fill="none" stroke="#191970" d="M224.3619,-224.2455C213.6246,-215.8943 197.956,-203.7076 185.3987,-193.9408"/>
<polygon fill="#191970" stroke="#191970" points="187.3434,-191.0194 177.3011,-187.6427 183.0458,-196.5449 187.3434,-191.0194"/>
</g>
<!-- Node9 -->
<g id="node10" class="node">
<title>Node9</title>
<g id="a_node10"><a xlink:href="RubberDucky_8h.html" target="_top" xlink:title="RubberDucky.h">
<polygon fill="#ffffff" stroke="#000000" points="357.4034,-168.5 357.4034,-187.5 440.4034,-187.5 440.4034,-168.5 357.4034,-168.5"/>
<text text-anchor="middle" x="398.9034" y="-175.5" font-family="Helvetica,sans-Serif" font-size="10.00" fill="#000000">RubberDucky.h</text>
</a>
</g>
</g>
<!-- Node0&#45;&gt;Node9 -->
<g id="edge20" class="edge">
<title>Node0&#45;&gt;Node9</title>
<path fill="none" stroke="#191970" d="M264.7521,-224.3733C291.5737,-215.1016 332.3161,-201.0178 361.8631,-190.804"/>
<polygon fill="#191970" stroke="#191970" points="363.1102,-194.0762 371.418,-187.5011 360.8232,-187.4603 363.1102,-194.0762"/>
</g>
<!-- Node12 -->
<g id="node13" class="node">
<title>Node12</title>
<g id="a_node13"><a xlink:href="ModelDuck_8h.html" target="_top" xlink:title="ModelDuck.h">
<polygon fill="#ffffff" stroke="#000000" points="264.9034,-168.5 264.9034,-187.5 338.9034,-187.5 338.9034,-168.5 264.9034,-168.5"/>
<text text-anchor="middle" x="301.9034" y="-175.5" font-family="Helvetica,sans-Serif" font-size="10.00" fill="#000000">ModelDuck.h</text>
</a>
</g>
</g>
<!-- Node0&#45;&gt;Node12 -->
<g id="edge28" class="edge">
<title>Node0&#45;&gt;Node12</title>
<path fill="none" stroke="#191970" d="M248.2255,-224.2455C257.8257,-215.9746 271.7925,-203.9416 283.0728,-194.2232"/>
<polygon fill="#191970" stroke="#191970" points="285.4193,-196.8214 290.711,-187.6427 280.8504,-191.5182 285.4193,-196.8214"/>
</g>
<!-- Node13 -->
<g id="node14" class="node">
<title>Node13</title>
<g id="a_node14"><a xlink:href="FlyRocketPowered_8h.html" target="_top" xlink:title="FlyRocketPowered.h">
<polygon fill="#ffffff" stroke="#000000" points="441.4034,-112.5 441.4034,-131.5 548.4034,-131.5 548.4034,-112.5 441.4034,-112.5"/>
<text text-anchor="middle" x="494.9034" y="-119.5" font-family="Helvetica,sans-Serif" font-size="10.00" fill="#000000">FlyRocketPowered.h</text>
</a>
</g>
</g>
<!-- Node0&#45;&gt;Node13 -->
<g id="edge32" class="edge">
<title>Node0&#45;&gt;Node13</title>
<path fill="none" stroke="#191970" d="M273.5269,-229.3362C326.3077,-222.0712 420.5415,-206.9032 448.9034,-188 466.0893,-176.5455 478.7694,-156.3023 486.4147,-141.2456"/>
<polygon fill="#191970" stroke="#191970" points="489.7622,-142.3561 490.8968,-131.8222 483.4408,-139.3494 489.7622,-142.3561"/>
</g>
<!-- Node2&#45;&gt;Node1 -->
<g id="edge3" class="edge">
<title>Node2&#45;&gt;Node1</title>
<path fill="none" stroke="#191970" d="M235.5002,-112.4509C236.6419,-94.184 239.1561,-53.9553 240.6722,-29.6976"/>
<polygon fill="#191970" stroke="#191970" points="244.1774,-29.7238 241.308,-19.5249 237.191,-29.2871 244.1774,-29.7238"/>
</g>
<!-- Node3 -->
<g id="node4" class="node">
<title>Node3</title>
<g id="a_node4"><a xlink:href="FlyBehavior_8h.html" target="_top" xlink:title="FlyBehavior.h">
<polygon fill="#ffffff" stroke="#000000" points="270.4034,-56.5 270.4034,-75.5 347.4034,-75.5 347.4034,-56.5 270.4034,-56.5"/>
<text text-anchor="middle" x="308.9034" y="-63.5" font-family="Helvetica,sans-Serif" font-size="10.00" fill="#000000">FlyBehavior.h</text>
</a>
</g>
</g>
<!-- Node2&#45;&gt;Node3 -->
<g id="edge4" class="edge">
<title>Node2&#45;&gt;Node3</title>
<path fill="none" stroke="#191970" d="M247.7932,-112.2455C258.8287,-103.8943 274.9326,-91.7076 287.8387,-81.9408"/>
<polygon fill="#191970" stroke="#191970" points="290.2992,-84.4681 296.1612,-75.6427 286.0751,-78.8862 290.2992,-84.4681"/>
</g>
<!-- Node4 -->
<g id="node5" class="node">
<title>Node4</title>
<g id="a_node5"><a xlink:href="QuackBehavior_8h.html" target="_top" xlink:title="QuackBehavior.h">
<polygon fill="#ffffff" stroke="#000000" points="121.9034,-56.5 121.9034,-75.5 213.9034,-75.5 213.9034,-56.5 121.9034,-56.5"/>
<text text-anchor="middle" x="167.9034" y="-63.5" font-family="Helvetica,sans-Serif" font-size="10.00" fill="#000000">QuackBehavior.h</text>
</a>
</g>
</g>
<!-- Node2&#45;&gt;Node4 -->
<g id="edge6" class="edge">
<title>Node2&#45;&gt;Node4</title>
<path fill="none" stroke="#191970" d="M223.2328,-112.2455C213.3373,-103.9746 198.9407,-91.9416 187.3133,-82.2232"/>
<polygon fill="#191970" stroke="#191970" points="189.3576,-79.3703 179.4401,-75.6427 184.8684,-84.7413 189.3576,-79.3703"/>
</g>
<!-- Node3&#45;&gt;Node1 -->
<g id="edge5" class="edge">
<title>Node3&#45;&gt;Node1</title>
<path fill="none" stroke="#191970" d="M297.2328,-56.2455C287.3373,-47.9746 272.9407,-35.9416 261.3133,-26.2232"/>
<polygon fill="#191970" stroke="#191970" points="263.3576,-23.3703 253.4401,-19.6427 258.8684,-28.7413 263.3576,-23.3703"/>
</g>
<!-- Node4&#45;&gt;Node1 -->
<g id="edge7" class="edge">
<title>Node4&#45;&gt;Node1</title>
<path fill="none" stroke="#191970" d="M180.7932,-56.2455C191.8287,-47.8943 207.9326,-35.7076 220.8387,-25.9408"/>
<polygon fill="#191970" stroke="#191970" points="223.2992,-28.4681 229.1612,-19.6427 219.0751,-22.8862 223.2992,-28.4681"/>
</g>
<!-- Node5&#45;&gt;Node2 -->
<g id="edge9" class="edge">
<title>Node5&#45;&gt;Node2</title>
<path fill="none" stroke="#191970" d="M93.2993,-168.3733C123.4573,-158.4969 170.2887,-143.1603 201.7493,-132.8575"/>
<polygon fill="#191970" stroke="#191970" points="202.969,-136.141 211.3831,-129.7026 200.7904,-129.4887 202.969,-136.141"/>
</g>
<!-- Node6 -->
<g id="node7" class="node">
<title>Node6</title>
<g id="a_node7"><a xlink:href="FlyWithWings_8h.html" target="_top" xlink:title="FlyWithWings.h">
<polygon fill="#ffffff" stroke="#000000" points="30.4034,-112.5 30.4034,-131.5 115.4034,-131.5 115.4034,-112.5 30.4034,-112.5"/>
<text text-anchor="middle" x="72.9034" y="-119.5" font-family="Helvetica,sans-Serif" font-size="10.00" fill="#000000">FlyWithWings.h</text>
</a>
</g>
</g>
<!-- Node5&#45;&gt;Node6 -->
<g id="edge10" class="edge">
<title>Node5&#45;&gt;Node6</title>
<path fill="none" stroke="#191970" d="M65.471,-168.2455C66.6454,-160.9382 68.2918,-150.6944 69.7365,-141.7046"/>
<polygon fill="#191970" stroke="#191970" points="73.2224,-142.0714 71.3536,-131.6427 66.3111,-140.9606 73.2224,-142.0714"/>
</g>
<!-- Node7 -->
<g id="node8" class="node">
<title>Node7</title>
<g id="a_node8"><a xlink:href="Quack_8h.html" target="_top" xlink:title="Quack.h">
<polygon fill="#ffffff" stroke="#000000" points="138.4034,-112.5 138.4034,-131.5 191.4034,-131.5 191.4034,-112.5 138.4034,-112.5"/>
<text text-anchor="middle" x="164.9034" y="-119.5" font-family="Helvetica,sans-Serif" font-size="10.00" fill="#000000">Quack.h</text>
</a>
</g>
</g>
<!-- Node5&#45;&gt;Node7 -->
<g id="edge13" class="edge">
<title>Node5&#45;&gt;Node7</title>
<path fill="none" stroke="#191970" d="M81.4962,-168.2455C97.2824,-159.4928 120.6672,-146.527 138.6621,-136.5496"/>
<polygon fill="#191970" stroke="#191970" points="140.4636,-139.5528 147.5121,-131.6427 137.0692,-133.4308 140.4636,-139.5528"/>
</g>
<!-- Node6&#45;&gt;Node1 -->
<g id="edge11" class="edge">
<title>Node6&#45;&gt;Node1</title>
<path fill="none" stroke="#191970" d="M75.1745,-112.483C79.0605,-98.2126 88.3231,-71.3152 105.9034,-56 133.8106,-31.6882 175.1007,-20.1035 204.8587,-14.661"/>
<polygon fill="#191970" stroke="#191970" points="205.5803,-18.0889 214.8627,-12.9813 204.4212,-11.1856 205.5803,-18.0889"/>
</g>
<!-- Node6&#45;&gt;Node3 -->
<g id="edge12" class="edge">
<title>Node6&#45;&gt;Node3</title>
<path fill="none" stroke="#191970" d="M113.205,-112.4369C153.9983,-102.7571 217.0935,-87.7854 260.555,-77.4725"/>
<polygon fill="#191970" stroke="#191970" points="261.4123,-80.8663 270.3341,-75.152 259.7961,-74.0554 261.4123,-80.8663"/>
</g>
<!-- Node7&#45;&gt;Node1 -->
<g id="edge14" class="edge">
<title>Node7&#45;&gt;Node1</title>
<path fill="none" stroke="#191970" d="M147.8136,-112.4083C127.556,-99.7796 98.2769,-76.7442 112.9034,-56 123.7372,-40.6347 170.4124,-26.6993 204.5136,-18.2905"/>
<polygon fill="#191970" stroke="#191970" points="205.7311,-21.5979 214.6395,-15.8629 204.0991,-14.7908 205.7311,-21.5979"/>
</g>
<!-- Node7&#45;&gt;Node4 -->
<g id="edge15" class="edge">
<title>Node7&#45;&gt;Node4</title>
<path fill="none" stroke="#191970" d="M165.4259,-112.2455C165.8174,-104.9382 166.3662,-94.6944 166.8477,-85.7046"/>
<polygon fill="#191970" stroke="#191970" points="170.3467,-85.8156 167.3868,-75.6427 163.3567,-85.4411 170.3467,-85.8156"/>
</g>
<!-- Node8&#45;&gt;Node2 -->
<g id="edge17" class="edge">
<title>Node8&#45;&gt;Node2</title>
<path fill="none" stroke="#191970" d="M177.0964,-168.2455C187.5354,-159.8943 202.7688,-147.7076 214.9773,-137.9408"/>
<polygon fill="#191970" stroke="#191970" points="217.2277,-140.6227 222.85,-131.6427 212.8549,-135.1566 217.2277,-140.6227"/>
</g>
<!-- Node8&#45;&gt;Node6 -->
<g id="edge18" class="edge">
<title>Node8&#45;&gt;Node6</title>
<path fill="none" stroke="#191970" d="M148.8782,-168.2455C134.7625,-159.6534 113.977,-147.0014 97.7135,-137.1018"/>
<polygon fill="#191970" stroke="#191970" points="99.1067,-133.8525 88.7449,-131.6427 95.4671,-139.8319 99.1067,-133.8525"/>
</g>
<!-- Node8&#45;&gt;Node7 -->
<g id="edge19" class="edge">
<title>Node8&#45;&gt;Node7</title>
<path fill="none" stroke="#191970" d="M164.9034,-168.2455C164.9034,-160.9382 164.9034,-150.6944 164.9034,-141.7046"/>
<polygon fill="#191970" stroke="#191970" points="168.4035,-141.6426 164.9034,-131.6427 161.4035,-141.6427 168.4035,-141.6426"/>
</g>
<!-- Node9&#45;&gt;Node2 -->
<g id="edge21" class="edge">
<title>Node9&#45;&gt;Node2</title>
<path fill="none" stroke="#191970" d="M370.7107,-168.3733C342.2416,-158.6521 298.28,-143.6408 268.1329,-133.3467"/>
<polygon fill="#191970" stroke="#191970" points="269.0755,-129.9702 258.481,-130.0509 266.8135,-136.5946 269.0755,-129.9702"/>
</g>
<!-- Node10 -->
<g id="node11" class="node">
<title>Node10</title>
<g id="a_node11"><a xlink:href="FlyNoWay_8h.html" target="_top" xlink:title="FlyNoWay.h">
<polygon fill="#ffffff" stroke="#000000" points="276.9034,-112.5 276.9034,-131.5 346.9034,-131.5 346.9034,-112.5 276.9034,-112.5"/>
<text text-anchor="middle" x="311.9034" y="-119.5" font-family="Helvetica,sans-Serif" font-size="10.00" fill="#000000">FlyNoWay.h</text>
</a>
</g>
</g>
<!-- Node9&#45;&gt;Node10 -->
<g id="edge22" class="edge">
<title>Node9&#45;&gt;Node10</title>
<path fill="none" stroke="#191970" d="M383.7491,-168.2455C370.4006,-159.6534 350.7447,-147.0014 335.3651,-137.1018"/>
<polygon fill="#191970" stroke="#191970" points="337.187,-134.1121 326.8839,-131.6427 333.3982,-139.9982 337.187,-134.1121"/>
</g>
<!-- Node11 -->
<g id="node12" class="node">
<title>Node11</title>
<g id="a_node12"><a xlink:href="Squeak_8h.html" target="_top" xlink:title="Squeak.h">
<polygon fill="#ffffff" stroke="#000000" points="364.9034,-112.5 364.9034,-131.5 422.9034,-131.5 422.9034,-112.5 364.9034,-112.5"/>
<text text-anchor="middle" x="393.9034" y="-119.5" font-family="Helvetica,sans-Serif" font-size="10.00" fill="#000000">Squeak.h</text>
</a>
</g>
</g>
<!-- Node9&#45;&gt;Node11 -->
<g id="edge25" class="edge">
<title>Node9&#45;&gt;Node11</title>
<path fill="none" stroke="#191970" d="M398.0324,-168.2455C397.38,-160.9382 396.4653,-150.6944 395.6627,-141.7046"/>
<polygon fill="#191970" stroke="#191970" points="399.1398,-141.2918 394.7643,-131.6427 392.1676,-141.9143 399.1398,-141.2918"/>
</g>
<!-- Node10&#45;&gt;Node1 -->
<g id="edge23" class="edge">
<title>Node10&#45;&gt;Node1</title>
<path fill="none" stroke="#191970" d="M326.3795,-112.3586C343.8729,-99.4832 369.3841,-75.9765 355.9034,-56 338.8297,-30.6994 305.2537,-19.311 278.9423,-14.1868"/>
<polygon fill="#191970" stroke="#191970" points="279.3526,-10.706 268.9039,-12.4594 278.1655,-17.6047 279.3526,-10.706"/>
</g>
<!-- Node10&#45;&gt;Node3 -->
<g id="edge24" class="edge">
<title>Node10&#45;&gt;Node3</title>
<path fill="none" stroke="#191970" d="M311.3808,-112.2455C310.9893,-104.9382 310.4405,-94.6944 309.959,-85.7046"/>
<polygon fill="#191970" stroke="#191970" points="313.45,-85.4411 309.4199,-75.6427 306.46,-85.8156 313.45,-85.4411"/>
</g>
<!-- Node11&#45;&gt;Node1 -->
<g id="edge26" class="edge">
<title>Node11&#45;&gt;Node1</title>
<path fill="none" stroke="#191970" d="M393.2649,-112.1049C391.8234,-97.8404 387.1347,-71.5133 371.9034,-56 347.2554,-30.8957 308.0679,-19.4551 279.1551,-14.2637"/>
<polygon fill="#191970" stroke="#191970" points="279.4451,-10.7651 269.0139,-12.62 278.3251,-17.6749 279.4451,-10.7651"/>
</g>
<!-- Node11&#45;&gt;Node4 -->
<g id="edge27" class="edge">
<title>Node11&#45;&gt;Node4</title>
<path fill="none" stroke="#191970" d="M364.8707,-114.3044C361.8444,-113.5188 358.8126,-112.7387 355.9034,-112 309.115,-100.1205 255.6345,-87.0876 217.7075,-77.937"/>
<polygon fill="#191970" stroke="#191970" points="218.4701,-74.5206 207.9284,-75.5804 216.8301,-81.3258 218.4701,-74.5206"/>
</g>
<!-- Node12&#45;&gt;Node2 -->
<g id="edge29" class="edge">
<title>Node12&#45;&gt;Node2</title>
<path fill="none" stroke="#191970" d="M290.2328,-168.2455C280.3373,-159.9746 265.9407,-147.9416 254.3133,-138.2232"/>
<polygon fill="#191970" stroke="#191970" points="256.3576,-135.3703 246.4401,-131.6427 251.8684,-140.7413 256.3576,-135.3703"/>
</g>
<!-- Node12&#45;&gt;Node7 -->
<g id="edge30" class="edge">
<title>Node12&#45;&gt;Node7</title>
<path fill="none" stroke="#191970" d="M278.3522,-168.3733C256.0643,-159.2629 222.4097,-145.5062 197.5397,-135.3404"/>
<polygon fill="#191970" stroke="#191970" points="198.728,-132.0451 188.1472,-131.5011 196.0794,-138.5247 198.728,-132.0451"/>
</g>
<!-- Node12&#45;&gt;Node10 -->
<g id="edge31" class="edge">
<title>Node12&#45;&gt;Node10</title>
<path fill="none" stroke="#191970" d="M303.6452,-168.2455C304.9501,-160.9382 306.7794,-150.6944 308.3847,-141.7046"/>
<polygon fill="#191970" stroke="#191970" points="311.869,-142.1022 310.1814,-131.6427 304.978,-140.8717 311.869,-142.1022"/>
</g>
<!-- Node13&#45;&gt;Node1 -->
<g id="edge33" class="edge">
<title>Node13&#45;&gt;Node1</title>
<path fill="none" stroke="#191970" d="M482.6836,-112.4674C464.1784,-98.4197 427.5247,-72.0883 392.9034,-56 355.6149,-38.6724 310.1665,-25.8548 278.9317,-18.2127"/>
<polygon fill="#191970" stroke="#191970" points="279.4558,-14.7395 268.9163,-15.8204 277.8295,-21.548 279.4558,-14.7395"/>
</g>
<!-- Node13&#45;&gt;Node3 -->
<g id="edge34" class="edge">
<title>Node13&#45;&gt;Node3</title>
<path fill="none" stroke="#191970" d="M462.9288,-112.3733C431.7321,-102.9807 384.1324,-88.6496 350.1102,-78.4064"/>
<polygon fill="#191970" stroke="#191970" points="351.0451,-75.0327 340.4607,-75.5011 349.027,-81.7355 351.0451,-75.0327"/>
</g>
</g>
</svg>
