<?xml version="1.0" encoding="UTF-8" standalone="no"?>
<!DOCTYPE svg PUBLIC "-//W3C//DTD SVG 1.1//EN"
 "http://www.w3.org/Graphics/SVG/1.1/DTD/svg11.dtd">
<!-- Generated by graphviz version 2.40.1 (20161225.0304)
 -->
<!-- Title: include/Ducks/MallardDuck.h Pages: 1 -->
<svg width="236pt" height="84pt"
 viewBox="0.00 0.00 236.00 84.00" xmlns="http://www.w3.org/2000/svg" xmlns:xlink="http://www.w3.org/1999/xlink">
<g id="graph0" class="graph" transform="scale(1 1) rotate(0) translate(4 80)">
<title>include/Ducks/MallardDuck.h</title>
<polygon fill="#ffffff" stroke="transparent" points="-4,4 -4,-80 232,-80 232,4 -4,4"/>
<!-- Node7 -->
<g id="node1" class="node">
<title>Node7</title>
<polygon fill="#bfbfbf" stroke="#000000" points="58,-56.5 58,-75.5 201,-75.5 201,-56.5 58,-56.5"/>
<text text-anchor="middle" x="129.5" y="-63.5" font-family="Helvetica,sans-Serif" font-size="10.00" fill="#000000">include/Ducks/MallardDuck.h</text>
</g>
<!-- Node8 -->
<g id="node2" class="node">
<title>Node8</title>
<g id="a_node2"><a xlink:href="MallardDuck_8cpp.html" target="_top" xlink:title="src/Ducks/MallardDuck.cpp">
<polygon fill="#ffffff" stroke="#000000" points="0,-.5 0,-19.5 137,-19.5 137,-.5 0,-.5"/>
<text text-anchor="middle" x="68.5" y="-7.5" font-family="Helvetica,sans-Serif" font-size="10.00" fill="#000000">src/Ducks/MallardDuck.cpp</text>
</a>
</g>
</g>
<!-- Node7&#45;&gt;Node8 -->
<g id="edge1" class="edge">
<title>Node7&#45;&gt;Node8</title>
<path fill="none" stroke="#191970" d="M111.3751,-49.3607C100.822,-39.6727 87.8888,-27.7995 79.0036,-19.6427"/>
<polygon fill="#191970" stroke="#191970" points="109.1411,-52.0611 118.8746,-56.2455 113.875,-46.9045 109.1411,-52.0611"/>
</g>
<!-- Node9 -->
<g id="node3" class="node">
<title>Node9</title>
<g id="a_node3"><a xlink:href="main_8cpp.html" target="_top" xlink:title="src/main.cpp">
<polygon fill="#ffffff" stroke="#000000" points="155,-.5 155,-19.5 228,-19.5 228,-.5 155,-.5"/>
<text text-anchor="middle" x="191.5" y="-7.5" font-family="Helvetica,sans-Serif" font-size="10.00" fill="#000000">src/main.cpp</text>
</a>
</g>
</g>
<!-- Node7&#45;&gt;Node9 -->
<g id="edge2" class="edge">
<title>Node7&#45;&gt;Node9</title>
<path fill="none" stroke="#191970" d="M147.9221,-49.3607C158.6481,-39.6727 171.7934,-27.7995 180.8242,-19.6427"/>
<polygon fill="#191970" stroke="#191970" points="145.3746,-46.9453 140.2996,-56.2455 150.0666,-52.14 145.3746,-46.9453"/>
</g>
</g>
</svg>
