<?xml version="1.0" encoding="UTF-8" standalone="no"?>
<!DOCTYPE svg PUBLIC "-//W3C//DTD SVG 1.1//EN"
 "http://www.w3.org/Graphics/SVG/1.1/DTD/svg11.dtd">
<!-- Generated by graphviz version 2.40.1 (20161225.0304)
 -->
<!-- Title: include/Ducks/ModelDuck.h Pages: 1 -->
<svg width="260pt" height="196pt"
 viewBox="0.00 0.00 260.08 196.00" xmlns="http://www.w3.org/2000/svg" xmlns:xlink="http://www.w3.org/1999/xlink">
<g id="graph0" class="graph" transform="scale(1 1) rotate(0) translate(4 192)">
<title>include/Ducks/ModelDuck.h</title>
<polygon fill="#ffffff" stroke="transparent" points="-4,4 -4,-192 256.079,-192 256.079,4 -4,4"/>
<!-- Node0 -->
<g id="node1" class="node">
<title>Node0</title>
<polygon fill="#bfbfbf" stroke="#000000" points="50.0038,-168.5 50.0038,-187.5 188.0038,-187.5 188.0038,-168.5 50.0038,-168.5"/>
<text text-anchor="middle" x="119.0038" y="-175.5" font-family="Helvetica,sans-Serif" font-size="10.00" fill="#000000">include/Ducks/ModelDuck.h</text>
</g>
<!-- Node1 -->
<g id="node2" class="node">
<title>Node1</title>
<g id="a_node2"><a xlink:href="Duck_8h.html" target="_top" xlink:title="Duck.h">
<polygon fill="#ffffff" stroke="#000000" points="18.5038,-112.5 18.5038,-131.5 65.5038,-131.5 65.5038,-112.5 18.5038,-112.5"/>
<text text-anchor="middle" x="42.0038" y="-119.5" font-family="Helvetica,sans-Serif" font-size="10.00" fill="#000000">Duck.h</text>
</a>
</g>
</g>
<!-- Node0&#45;&gt;Node1 -->
<g id="edge1" class="edge">
<title>Node0&#45;&gt;Node1</title>
<path fill="none" stroke="#191970" d="M105.5915,-168.2455C93.9981,-159.814 77.0291,-147.4729 63.536,-137.6598"/>
<polygon fill="#191970" stroke="#191970" points="65.4085,-134.6938 55.2625,-131.6427 61.2913,-140.355 65.4085,-134.6938"/>
</g>
<!-- Node5 -->
<g id="node6" class="node">
<title>Node5</title>
<g id="a_node6"><a xlink:href="Quack_8h.html" target="_top" xlink:title="Quack.h">
<polygon fill="#ffffff" stroke="#000000" points="172.5038,-112.5 172.5038,-131.5 225.5038,-131.5 225.5038,-112.5 172.5038,-112.5"/>
<text text-anchor="middle" x="199.0038" y="-119.5" font-family="Helvetica,sans-Serif" font-size="10.00" fill="#000000">Quack.h</text>
</a>
</g>
</g>
<!-- Node0&#45;&gt;Node5 -->
<g id="edge7" class="edge">
<title>Node0&#45;&gt;Node5</title>
<path fill="none" stroke="#191970" d="M132.9388,-168.2455C145.0985,-159.7337 162.9503,-147.2375 177.0323,-137.3801"/>
<polygon fill="#191970" stroke="#191970" points="179.0434,-140.2447 185.2286,-131.6427 175.0291,-134.51 179.0434,-140.2447"/>
</g>
<!-- Node6 -->
<g id="node7" class="node">
<title>Node6</title>
<g id="a_node7"><a xlink:href="FlyNoWay_8h.html" target="_top" xlink:title="FlyNoWay.h">
<polygon fill="#ffffff" stroke="#000000" points="84.0038,-112.5 84.0038,-131.5 154.0038,-131.5 154.0038,-112.5 84.0038,-112.5"/>
<text text-anchor="middle" x="119.0038" y="-119.5" font-family="Helvetica,sans-Serif" font-size="10.00" fill="#000000">FlyNoWay.h</text>
</a>
</g>
</g>
<!-- Node0&#45;&gt;Node6 -->
<g id="edge10" class="edge">
<title>Node0&#45;&gt;Node6</title>
<path fill="none" stroke="#191970" d="M119.0038,-168.2455C119.0038,-160.9382 119.0038,-150.6944 119.0038,-141.7046"/>
<polygon fill="#191970" stroke="#191970" points="122.5039,-141.6426 119.0038,-131.6427 115.5039,-141.6427 122.5039,-141.6426"/>
</g>
<!-- Node2 -->
<g id="node3" class="node">
<title>Node2</title>
<polygon fill="#ffffff" stroke="#bfbfbf" points="92.0038,-.5 92.0038,-19.5 146.0038,-19.5 146.0038,-.5 92.0038,-.5"/>
<text text-anchor="middle" x="119.0038" y="-7.5" font-family="Helvetica,sans-Serif" font-size="10.00" fill="#000000">iostream</text>
</g>
<!-- Node1&#45;&gt;Node2 -->
<g id="edge2" class="edge">
<title>Node1&#45;&gt;Node2</title>
<path fill="none" stroke="#191970" d="M29.3683,-112.3377C13.811,-99.2387 -9.0422,-75.2695 4.0038,-56 21.2449,-30.5344 55.1133,-19.1654 81.6503,-14.0904"/>
<polygon fill="#191970" stroke="#191970" points="82.4954,-17.4974 91.7745,-12.3839 81.3319,-10.5948 82.4954,-17.4974"/>
</g>
<!-- Node3 -->
<g id="node4" class="node">
<title>Node3</title>
<g id="a_node4"><a xlink:href="FlyBehavior_8h.html" target="_top" xlink:title="FlyBehavior.h">
<polygon fill="#ffffff" stroke="#000000" points="13.5038,-56.5 13.5038,-75.5 90.5038,-75.5 90.5038,-56.5 13.5038,-56.5"/>
<text text-anchor="middle" x="52.0038" y="-63.5" font-family="Helvetica,sans-Serif" font-size="10.00" fill="#000000">FlyBehavior.h</text>
</a>
</g>
</g>
<!-- Node1&#45;&gt;Node3 -->
<g id="edge3" class="edge">
<title>Node1&#45;&gt;Node3</title>
<path fill="none" stroke="#191970" d="M43.7457,-112.2455C45.0506,-104.9382 46.8798,-94.6944 48.4852,-85.7046"/>
<polygon fill="#191970" stroke="#191970" points="51.9694,-86.1022 50.2819,-75.6427 45.0785,-84.8717 51.9694,-86.1022"/>
</g>
<!-- Node4 -->
<g id="node5" class="node">
<title>Node4</title>
<g id="a_node5"><a xlink:href="QuackBehavior_8h.html" target="_top" xlink:title="QuackBehavior.h">
<polygon fill="#ffffff" stroke="#000000" points="147.0038,-56.5 147.0038,-75.5 239.0038,-75.5 239.0038,-56.5 147.0038,-56.5"/>
<text text-anchor="middle" x="193.0038" y="-63.5" font-family="Helvetica,sans-Serif" font-size="10.00" fill="#000000">QuackBehavior.h</text>
</a>
</g>
</g>
<!-- Node1&#45;&gt;Node4 -->
<g id="edge5" class="edge">
<title>Node1&#45;&gt;Node4</title>
<path fill="none" stroke="#191970" d="M65.5976,-113.25C90.3057,-104.0867 129.3888,-89.5923 157.757,-79.0717"/>
<polygon fill="#191970" stroke="#191970" points="159.1443,-82.2902 167.3032,-75.5314 156.7102,-75.727 159.1443,-82.2902"/>
</g>
<!-- Node3&#45;&gt;Node2 -->
<g id="edge4" class="edge">
<title>Node3&#45;&gt;Node2</title>
<path fill="none" stroke="#191970" d="M63.6744,-56.2455C73.5699,-47.9746 87.9665,-35.9416 99.5939,-26.2232"/>
<polygon fill="#191970" stroke="#191970" points="102.0388,-28.7413 107.4671,-19.6427 97.5496,-23.3703 102.0388,-28.7413"/>
</g>
<!-- Node4&#45;&gt;Node2 -->
<g id="edge6" class="edge">
<title>Node4&#45;&gt;Node2</title>
<path fill="none" stroke="#191970" d="M180.114,-56.2455C169.0785,-47.8943 152.9746,-35.7076 140.0685,-25.9408"/>
<polygon fill="#191970" stroke="#191970" points="141.8321,-22.8862 131.7459,-19.6427 137.608,-28.4681 141.8321,-22.8862"/>
</g>
<!-- Node5&#45;&gt;Node2 -->
<g id="edge8" class="edge">
<title>Node5&#45;&gt;Node2</title>
<path fill="none" stroke="#191970" d="M214.9385,-112.4891C234.2132,-99.758 262.3952,-76.4108 248.0038,-56 237.17,-40.6347 190.4948,-26.6993 156.3935,-18.2905"/>
<polygon fill="#191970" stroke="#191970" points="156.8081,-14.7908 146.2677,-15.8629 155.1761,-21.5979 156.8081,-14.7908"/>
</g>
<!-- Node5&#45;&gt;Node4 -->
<g id="edge9" class="edge">
<title>Node5&#45;&gt;Node4</title>
<path fill="none" stroke="#191970" d="M197.9587,-112.2455C197.1758,-104.9382 196.0782,-94.6944 195.1151,-85.7046"/>
<polygon fill="#191970" stroke="#191970" points="198.5825,-85.2129 194.037,-75.6427 191.6223,-85.9587 198.5825,-85.2129"/>
</g>
<!-- Node6&#45;&gt;Node2 -->
<g id="edge11" class="edge">
<title>Node6&#45;&gt;Node2</title>
<path fill="none" stroke="#191970" d="M119.0038,-112.4509C119.0038,-94.184 119.0038,-53.9553 119.0038,-29.6976"/>
<polygon fill="#191970" stroke="#191970" points="122.5039,-29.5249 119.0038,-19.5249 115.5039,-29.5249 122.5039,-29.5249"/>
</g>
<!-- Node6&#45;&gt;Node3 -->
<g id="edge12" class="edge">
<title>Node6&#45;&gt;Node3</title>
<path fill="none" stroke="#191970" d="M107.3333,-112.2455C97.4378,-103.9746 83.0411,-91.9416 71.4138,-82.2232"/>
<polygon fill="#191970" stroke="#191970" points="73.4581,-79.3703 63.5406,-75.6427 68.9689,-84.7413 73.4581,-79.3703"/>
</g>
</g>
</svg>
