<?xml version="1.0" encoding="UTF-8" standalone="no"?>
<!DOCTYPE svg PUBLIC "-//W3C//DTD SVG 1.1//EN"
 "http://www.w3.org/Graphics/SVG/1.1/DTD/svg11.dtd">
<!-- Generated by graphviz version 2.40.1 (20161225.0304)
 -->
<!-- Title: include/QuackBehavior/MuteQuack.h Pages: 1 -->
<svg width="150pt" height="151pt"
 viewBox="0.00 0.00 149.50 151.00" xmlns="http://www.w3.org/2000/svg" xmlns:xlink="http://www.w3.org/1999/xlink">
<g id="graph0" class="graph" transform="scale(1 1) rotate(0) translate(4 147)">
<title>include/QuackBehavior/MuteQuack.h</title>
<polygon fill="#ffffff" stroke="transparent" points="-4,4 -4,-147 145.5,-147 145.5,4 -4,4"/>
<!-- Node0 -->
<g id="node1" class="node">
<title>Node0</title>
<polygon fill="#bfbfbf" stroke="#000000" points="0,-112.5 0,-142.5 117,-142.5 117,-112.5 0,-112.5"/>
<text text-anchor="start" x="8" y="-130.5" font-family="Helvetica,sans-Serif" font-size="10.00" fill="#000000">include/QuackBehavior</text>
<text text-anchor="middle" x="58.5" y="-119.5" font-family="Helvetica,sans-Serif" font-size="10.00" fill="#000000">/MuteQuack.h</text>
</g>
<!-- Node1 -->
<g id="node2" class="node">
<title>Node1</title>
<polygon fill="#ffffff" stroke="#bfbfbf" points="31.5,-.5 31.5,-19.5 85.5,-19.5 85.5,-.5 31.5,-.5"/>
<text text-anchor="middle" x="58.5" y="-7.5" font-family="Helvetica,sans-Serif" font-size="10.00" fill="#000000">iostream</text>
</g>
<!-- Node0&#45;&gt;Node1 -->
<g id="edge1" class="edge">
<title>Node0&#45;&gt;Node1</title>
<path fill="none" stroke="#191970" d="M50.7111,-112.2758C44.2915,-97.8808 36.7975,-75.6225 40.5,-56 42.2441,-46.7566 45.7981,-36.9893 49.2909,-28.844"/>
<polygon fill="#191970" stroke="#191970" points="52.5628,-30.1052 53.5415,-19.5556 46.1976,-27.1923 52.5628,-30.1052"/>
</g>
<!-- Node2 -->
<g id="node3" class="node">
<title>Node2</title>
<g id="a_node3"><a xlink:href="QuackBehavior_8h.html" target="_top" xlink:title="QuackBehavior.h">
<polygon fill="#ffffff" stroke="#000000" points="49.5,-56.5 49.5,-75.5 141.5,-75.5 141.5,-56.5 49.5,-56.5"/>
<text text-anchor="middle" x="95.5" y="-63.5" font-family="Helvetica,sans-Serif" font-size="10.00" fill="#000000">QuackBehavior.h</text>
</a>
</g>
</g>
<!-- Node0&#45;&gt;Node2 -->
<g id="edge2" class="edge">
<title>Node0&#45;&gt;Node2</title>
<path fill="none" stroke="#191970" d="M67.6461,-112.2977C72.6751,-103.9388 78.9555,-93.4997 84.2791,-84.6509"/>
<polygon fill="#191970" stroke="#191970" points="87.4197,-86.2201 89.5758,-75.8469 81.4215,-82.6114 87.4197,-86.2201"/>
</g>
<!-- Node2&#45;&gt;Node1 -->
<g id="edge3" class="edge">
<title>Node2&#45;&gt;Node1</title>
<path fill="none" stroke="#191970" d="M89.0551,-56.2455C83.9618,-48.5367 76.7092,-37.5598 70.548,-28.2348"/>
<polygon fill="#191970" stroke="#191970" points="73.3038,-26.0566 64.8711,-19.6427 67.4635,-29.9155 73.3038,-26.0566"/>
</g>
</g>
</svg>
