<?xml version="1.0" encoding="UTF-8" standalone="no"?>
<!DOCTYPE svg PUBLIC "-//W3C//DTD SVG 1.1//EN"
 "http://www.w3.org/Graphics/SVG/1.1/DTD/svg11.dtd">
<!-- Generated by graphviz version 2.40.1 (20161225.0304)
 -->
<!-- Title: src/QuackBehavior/MuteQuack.cpp Pages: 1 -->
<svg width="180pt" height="196pt"
 viewBox="0.00 0.00 180.00 196.00" xmlns="http://www.w3.org/2000/svg" xmlns:xlink="http://www.w3.org/1999/xlink">
<g id="graph0" class="graph" transform="scale(1 1) rotate(0) translate(4 192)">
<title>src/QuackBehavior/MuteQuack.cpp</title>
<polygon fill="#ffffff" stroke="transparent" points="-4,4 -4,-192 176,-192 176,4 -4,4"/>
<!-- Node0 -->
<g id="node1" class="node">
<title>Node0</title>
<polygon fill="#bfbfbf" stroke="#000000" points="0,-168.5 0,-187.5 172,-187.5 172,-168.5 0,-168.5"/>
<text text-anchor="middle" x="86" y="-175.5" font-family="Helvetica,sans-Serif" font-size="10.00" fill="#000000">src/QuackBehavior/MuteQuack.cpp</text>
</g>
<!-- Node1 -->
<g id="node2" class="node">
<title>Node1</title>
<g id="a_node2"><a xlink:href="MuteQuack_8h.html" target="_top" xlink:title="MuteQuack.h">
<polygon fill="#ffffff" stroke="#000000" points="48.5,-112.5 48.5,-131.5 123.5,-131.5 123.5,-112.5 48.5,-112.5"/>
<text text-anchor="middle" x="86" y="-119.5" font-family="Helvetica,sans-Serif" font-size="10.00" fill="#000000">MuteQuack.h</text>
</a>
</g>
</g>
<!-- Node0&#45;&gt;Node1 -->
<g id="edge1" class="edge">
<title>Node0&#45;&gt;Node1</title>
<path fill="none" stroke="#191970" d="M86,-168.2455C86,-160.9382 86,-150.6944 86,-141.7046"/>
<polygon fill="#191970" stroke="#191970" points="89.5001,-141.6426 86,-131.6427 82.5001,-141.6427 89.5001,-141.6426"/>
</g>
<!-- Node2 -->
<g id="node3" class="node">
<title>Node2</title>
<polygon fill="#ffffff" stroke="#bfbfbf" points="59,-.5 59,-19.5 113,-19.5 113,-.5 59,-.5"/>
<text text-anchor="middle" x="86" y="-7.5" font-family="Helvetica,sans-Serif" font-size="10.00" fill="#000000">iostream</text>
</g>
<!-- Node1&#45;&gt;Node2 -->
<g id="edge2" class="edge">
<title>Node1&#45;&gt;Node2</title>
<path fill="none" stroke="#191970" d="M81.0415,-112.4444C76.622,-103.352 70.4805,-89.1462 68,-76 64.9765,-59.9762 70.3736,-42.1562 76.0286,-29.0756"/>
<polygon fill="#191970" stroke="#191970" points="79.34,-30.2613 80.4633,-19.7262 73.0154,-27.2613 79.34,-30.2613"/>
</g>
<!-- Node3 -->
<g id="node4" class="node">
<title>Node3</title>
<g id="a_node4"><a xlink:href="QuackBehavior_8h.html" target="_top" xlink:title="QuackBehavior.h">
<polygon fill="#ffffff" stroke="#000000" points="77,-56.5 77,-75.5 169,-75.5 169,-56.5 77,-56.5"/>
<text text-anchor="middle" x="123" y="-63.5" font-family="Helvetica,sans-Serif" font-size="10.00" fill="#000000">QuackBehavior.h</text>
</a>
</g>
</g>
<!-- Node1&#45;&gt;Node3 -->
<g id="edge3" class="edge">
<title>Node1&#45;&gt;Node3</title>
<path fill="none" stroke="#191970" d="M92.4449,-112.2455C97.5382,-104.5367 104.7908,-93.5598 110.952,-84.2348"/>
<polygon fill="#191970" stroke="#191970" points="114.0365,-85.9155 116.6289,-75.6427 108.1962,-82.0566 114.0365,-85.9155"/>
</g>
<!-- Node3&#45;&gt;Node2 -->
<g id="edge4" class="edge">
<title>Node3&#45;&gt;Node2</title>
<path fill="none" stroke="#191970" d="M116.5551,-56.2455C111.4618,-48.5367 104.2092,-37.5598 98.048,-28.2348"/>
<polygon fill="#191970" stroke="#191970" points="100.8038,-26.0566 92.3711,-19.6427 94.9635,-29.9155 100.8038,-26.0566"/>
</g>
</g>
</svg>
