<?xml version="1.0" encoding="UTF-8" standalone="no"?>
<!DOCTYPE svg PUBLIC "-//W3C//DTD SVG 1.1//EN"
 "http://www.w3.org/Graphics/SVG/1.1/DTD/svg11.dtd">
<!-- Generated by graphviz version 2.40.1 (20161225.0304)
 -->
<!-- Title: include/QuackBehavior/QuackBehavior.h Pages: 1 -->
<svg width="1338pt" height="218pt"
 viewBox="0.00 0.00 1338.00 218.00" xmlns="http://www.w3.org/2000/svg" xmlns:xlink="http://www.w3.org/1999/xlink">
<g id="graph0" class="graph" transform="scale(1 1) rotate(0) translate(4 214)">
<title>include/QuackBehavior/QuackBehavior.h</title>
<polygon fill="#ffffff" stroke="transparent" points="-4,4 -4,-214 1334,-214 1334,4 -4,4"/>
<!-- Node2 -->
<g id="node1" class="node">
<title>Node2</title>
<polygon fill="#bfbfbf" stroke="#000000" points="833.5,-179.5 833.5,-209.5 950.5,-209.5 950.5,-179.5 833.5,-179.5"/>
<text text-anchor="start" x="841.5" y="-197.5" font-family="Helvetica,sans-Serif" font-size="10.00" fill="#000000">include/QuackBehavior</text>
<text text-anchor="middle" x="892" y="-186.5" font-family="Helvetica,sans-Serif" font-size="10.00" fill="#000000">/QuackBehavior.h</text>
</g>
<!-- Node3 -->
<g id="node2" class="node">
<title>Node3</title>
<g id="a_node2"><a xlink:href="Duck_8h.html" target="_top" xlink:title="include/Ducks/Duck.h">
<polygon fill="#ffffff" stroke="#000000" points="610,-118 610,-137 722,-137 722,-118 610,-118"/>
<text text-anchor="middle" x="666" y="-125" font-family="Helvetica,sans-Serif" font-size="10.00" fill="#000000">include/Ducks/Duck.h</text>
</a>
</g>
</g>
<!-- Node2&#45;&gt;Node3 -->
<g id="edge1" class="edge">
<title>Node2&#45;&gt;Node3</title>
<path fill="none" stroke="#191970" d="M831.504,-176.5654C788.5832,-163.841 732.6676,-147.2643 698.0626,-137.0053"/>
<polygon fill="#191970" stroke="#191970" points="830.6988,-179.9771 841.2812,-179.4639 832.6885,-173.2658 830.6988,-179.9771"/>
</g>
<!-- Node14 -->
<g id="node13" class="node">
<title>Node14</title>
<g id="a_node13"><a xlink:href="MuteQuack_8h.html" target="_top" xlink:title="include/QuackBehavior\l/MuteQuack.h">
<polygon fill="#ffffff" stroke="#000000" points="968.5,-112.5 968.5,-142.5 1085.5,-142.5 1085.5,-112.5 968.5,-112.5"/>
<text text-anchor="start" x="976.5" y="-130.5" font-family="Helvetica,sans-Serif" font-size="10.00" fill="#000000">include/QuackBehavior</text>
<text text-anchor="middle" x="1027" y="-119.5" font-family="Helvetica,sans-Serif" font-size="10.00" fill="#000000">/MuteQuack.h</text>
</a>
</g>
</g>
<!-- Node2&#45;&gt;Node14 -->
<g id="edge16" class="edge">
<title>Node2&#45;&gt;Node14</title>
<path fill="none" stroke="#191970" d="M931.466,-174.9132C952.1555,-164.645 977.1182,-152.2561 996.3374,-142.7177"/>
<polygon fill="#191970" stroke="#191970" points="929.6982,-171.8831 922.2966,-179.4639 932.8101,-178.1534 929.6982,-171.8831"/>
</g>
<!-- Node16 -->
<g id="node15" class="node">
<title>Node16</title>
<g id="a_node15"><a xlink:href="Quack_8h.html" target="_top" xlink:title="include/QuackBehavior\l/Quack.h">
<polygon fill="#ffffff" stroke="#000000" points="351.5,-112.5 351.5,-142.5 468.5,-142.5 468.5,-112.5 351.5,-112.5"/>
<text text-anchor="start" x="359.5" y="-130.5" font-family="Helvetica,sans-Serif" font-size="10.00" fill="#000000">include/QuackBehavior</text>
<text text-anchor="middle" x="410" y="-119.5" font-family="Helvetica,sans-Serif" font-size="10.00" fill="#000000">/Quack.h</text>
</a>
</g>
</g>
<!-- Node2&#45;&gt;Node16 -->
<g id="edge18" class="edge">
<title>Node2&#45;&gt;Node16</title>
<path fill="none" stroke="#191970" d="M823.2881,-184.9488C728.1695,-171.7269 558.0138,-148.0745 468.5893,-135.6442"/>
<polygon fill="#191970" stroke="#191970" points="822.9925,-188.4412 833.3792,-186.3515 823.9564,-181.5079 822.9925,-188.4412"/>
</g>
<!-- Node18 -->
<g id="node17" class="node">
<title>Node18</title>
<g id="a_node17"><a xlink:href="Squeak_8h.html" target="_top" xlink:title="include/QuackBehavior\l/Squeak.h">
<polygon fill="#ffffff" stroke="#000000" points="833.5,-112.5 833.5,-142.5 950.5,-142.5 950.5,-112.5 833.5,-112.5"/>
<text text-anchor="start" x="841.5" y="-130.5" font-family="Helvetica,sans-Serif" font-size="10.00" fill="#000000">include/QuackBehavior</text>
<text text-anchor="middle" x="892" y="-119.5" font-family="Helvetica,sans-Serif" font-size="10.00" fill="#000000">/Squeak.h</text>
</a>
</g>
</g>
<!-- Node2&#45;&gt;Node18 -->
<g id="edge23" class="edge">
<title>Node2&#45;&gt;Node18</title>
<path fill="none" stroke="#191970" d="M892,-169.0249C892,-160.128 892,-150.4287 892,-142.6432"/>
<polygon fill="#191970" stroke="#191970" points="888.5001,-169.2966 892,-179.2967 895.5001,-169.2967 888.5001,-169.2966"/>
</g>
<!-- Node20 -->
<g id="node19" class="node">
<title>Node20</title>
<g id="a_node19"><a xlink:href="QuackBehavior_8cpp.html" target="_top" xlink:title="src/QuackBehavior/QuackBehavior.cpp">
<polygon fill="#ffffff" stroke="#000000" points="1104,-118 1104,-137 1292,-137 1292,-118 1104,-118"/>
<text text-anchor="middle" x="1198" y="-125" font-family="Helvetica,sans-Serif" font-size="10.00" fill="#000000">src/QuackBehavior/QuackBehavior.cpp</text>
</a>
</g>
</g>
<!-- Node2&#45;&gt;Node20 -->
<g id="edge26" class="edge">
<title>Node2&#45;&gt;Node20</title>
<path fill="none" stroke="#191970" d="M960.6728,-179.4638C1019.9799,-166.4782 1103.8709,-148.11 1154.3958,-137.0473"/>
<polygon fill="#191970" stroke="#191970" points="959.6578,-176.103 950.6378,-181.661 961.155,-182.9411 959.6578,-176.103"/>
</g>
<!-- Node4 -->
<g id="node3" class="node">
<title>Node4</title>
<g id="a_node3"><a xlink:href="MallardDuck_8h.html" target="_top" xlink:title="include/Ducks/MallardDuck.h">
<polygon fill="#ffffff" stroke="#000000" points="338.5,-56.5 338.5,-75.5 481.5,-75.5 481.5,-56.5 338.5,-56.5"/>
<text text-anchor="middle" x="410" y="-63.5" font-family="Helvetica,sans-Serif" font-size="10.00" fill="#000000">include/Ducks/MallardDuck.h</text>
</a>
</g>
</g>
<!-- Node3&#45;&gt;Node4 -->
<g id="edge2" class="edge">
<title>Node3&#45;&gt;Node4</title>
<path fill="none" stroke="#191970" d="M616.3034,-115.5612C567.719,-103.8895 494.6925,-86.346 449.8123,-75.5643"/>
<polygon fill="#191970" stroke="#191970" points="615.7399,-119.0253 626.2809,-117.9581 617.3751,-112.219 615.7399,-119.0253"/>
</g>
<!-- Node6 -->
<g id="node5" class="node">
<title>Node6</title>
<g id="a_node5"><a xlink:href="main_8cpp.html" target="_top" xlink:title="src/main.cpp">
<polygon fill="#ffffff" stroke="#000000" points="633.5,-.5 633.5,-19.5 706.5,-19.5 706.5,-.5 633.5,-.5"/>
<text text-anchor="middle" x="670" y="-7.5" font-family="Helvetica,sans-Serif" font-size="10.00" fill="#000000">src/main.cpp</text>
</a>
</g>
</g>
<!-- Node3&#45;&gt;Node6 -->
<g id="edge15" class="edge">
<title>Node3&#45;&gt;Node6</title>
<path fill="none" stroke="#191970" d="M666.6786,-107.5662C667.5461,-82.0834 669.0139,-38.9662 669.6681,-19.7484"/>
<polygon fill="#191970" stroke="#191970" points="663.1697,-107.7712 666.3273,-117.8845 670.1656,-108.0094 663.1697,-107.7712"/>
</g>
<!-- Node7 -->
<g id="node6" class="node">
<title>Node7</title>
<g id="a_node6"><a xlink:href="ModelDuck_8h.html" target="_top" xlink:title="include/Ducks/ModelDuck.h">
<polygon fill="#ffffff" stroke="#000000" points="500,-56.5 500,-75.5 638,-75.5 638,-56.5 500,-56.5"/>
<text text-anchor="middle" x="569" y="-63.5" font-family="Helvetica,sans-Serif" font-size="10.00" fill="#000000">include/Ducks/ModelDuck.h</text>
</a>
</g>
</g>
<!-- Node3&#45;&gt;Node7 -->
<g id="edge5" class="edge">
<title>Node3&#45;&gt;Node7</title>
<path fill="none" stroke="#191970" d="M642.004,-112.286C623.8663,-100.7864 599.5274,-85.355 584.0498,-75.5419"/>
<polygon fill="#191970" stroke="#191970" points="640.524,-115.4919 650.8438,-117.8906 644.2723,-109.58 640.524,-115.4919"/>
</g>
<!-- Node9 -->
<g id="node8" class="node">
<title>Node9</title>
<g id="a_node8"><a xlink:href="RedHeadDuck_8h.html" target="_top" xlink:title="include/Ducks/RedHeadDuck.h">
<polygon fill="#ffffff" stroke="#000000" points="168,-56.5 168,-75.5 320,-75.5 320,-56.5 168,-56.5"/>
<text text-anchor="middle" x="244" y="-63.5" font-family="Helvetica,sans-Serif" font-size="10.00" fill="#000000">include/Ducks/RedHeadDuck.h</text>
</a>
</g>
</g>
<!-- Node3&#45;&gt;Node9 -->
<g id="edge8" class="edge">
<title>Node3&#45;&gt;Node9</title>
<path fill="none" stroke="#191970" d="M599.5955,-117.8226C520.201,-106.252 388.1808,-87.0121 309.2849,-75.5143"/>
<polygon fill="#191970" stroke="#191970" points="599.5614,-121.3545 609.9617,-119.3333 600.571,-114.4277 599.5614,-121.3545"/>
</g>
<!-- Node11 -->
<g id="node10" class="node">
<title>Node11</title>
<g id="a_node10"><a xlink:href="RubberDucky_8h.html" target="_top" xlink:title="include/Ducks/RubberDucky.h">
<polygon fill="#ffffff" stroke="#000000" points="818,-56.5 818,-75.5 966,-75.5 966,-56.5 818,-56.5"/>
<text text-anchor="middle" x="892" y="-63.5" font-family="Helvetica,sans-Serif" font-size="10.00" fill="#000000">include/Ducks/RubberDucky.h</text>
</a>
</g>
</g>
<!-- Node3&#45;&gt;Node11 -->
<g id="edge11" class="edge">
<title>Node3&#45;&gt;Node11</title>
<path fill="none" stroke="#191970" d="M711.2114,-115.1969C754.1255,-103.5189 817.7314,-86.2103 856.9355,-75.5419"/>
<polygon fill="#191970" stroke="#191970" points="710.0426,-111.8876 701.3125,-117.8906 711.8807,-118.642 710.0426,-111.8876"/>
</g>
<!-- Node13 -->
<g id="node12" class="node">
<title>Node13</title>
<g id="a_node12"><a xlink:href="Duck_8cpp.html" target="_top" xlink:title="src/Ducks/Duck.cpp">
<polygon fill="#ffffff" stroke="#000000" points="694.5,-56.5 694.5,-75.5 799.5,-75.5 799.5,-56.5 694.5,-56.5"/>
<text text-anchor="middle" x="747" y="-63.5" font-family="Helvetica,sans-Serif" font-size="10.00" fill="#000000">src/Ducks/Duck.cpp</text>
</a>
</g>
</g>
<!-- Node3&#45;&gt;Node13 -->
<g id="edge14" class="edge">
<title>Node3&#45;&gt;Node13</title>
<path fill="none" stroke="#191970" d="M686.8768,-111.6491C701.9271,-100.222 721.7452,-85.1749 734.4326,-75.5419"/>
<polygon fill="#191970" stroke="#191970" points="684.5042,-109.0559 678.6563,-117.8906 688.7372,-114.6311 684.5042,-109.0559"/>
</g>
<!-- Node5 -->
<g id="node4" class="node">
<title>Node5</title>
<g id="a_node4"><a xlink:href="MallardDuck_8cpp.html" target="_top" xlink:title="src/Ducks/MallardDuck.cpp">
<polygon fill="#ffffff" stroke="#000000" points="329.5,-.5 329.5,-19.5 466.5,-19.5 466.5,-.5 329.5,-.5"/>
<text text-anchor="middle" x="398" y="-7.5" font-family="Helvetica,sans-Serif" font-size="10.00" fill="#000000">src/Ducks/MallardDuck.cpp</text>
</a>
</g>
</g>
<!-- Node4&#45;&gt;Node5 -->
<g id="edge3" class="edge">
<title>Node4&#45;&gt;Node5</title>
<path fill="none" stroke="#191970" d="M405.8115,-46.4538C403.8672,-37.3803 401.6428,-26.9998 400.0663,-19.6427"/>
<polygon fill="#191970" stroke="#191970" points="402.3921,-47.2009 407.9098,-56.2455 409.2367,-45.7341 402.3921,-47.2009"/>
</g>
<!-- Node4&#45;&gt;Node6 -->
<g id="edge4" class="edge">
<title>Node4&#45;&gt;Node6</title>
<path fill="none" stroke="#191970" d="M464.7096,-54.2767C507.9526,-45.0016 569.8409,-31.7077 624,-20 627.0355,-19.3438 630.1834,-18.6621 633.3434,-17.9769"/>
<polygon fill="#191970" stroke="#191970" points="463.7262,-50.9079 454.6824,-56.427 465.1941,-57.7523 463.7262,-50.9079"/>
</g>
<!-- Node7&#45;&gt;Node6 -->
<g id="edge7" class="edge">
<title>Node7&#45;&gt;Node6</title>
<path fill="none" stroke="#191970" d="M595.4719,-51.3225C613.5125,-41.3198 636.8877,-28.3593 652.6087,-19.6427"/>
<polygon fill="#191970" stroke="#191970" points="593.6413,-48.3354 586.5929,-56.2455 597.0357,-54.4574 593.6413,-48.3354"/>
</g>
<!-- Node8 -->
<g id="node7" class="node">
<title>Node8</title>
<g id="a_node7"><a xlink:href="ModelDuck_8cpp.html" target="_top" xlink:title="src/Ducks/ModelDuck.cpp">
<polygon fill="#ffffff" stroke="#000000" points="484.5,-.5 484.5,-19.5 615.5,-19.5 615.5,-.5 484.5,-.5"/>
<text text-anchor="middle" x="550" y="-7.5" font-family="Helvetica,sans-Serif" font-size="10.00" fill="#000000">src/Ducks/ModelDuck.cpp</text>
</a>
</g>
</g>
<!-- Node7&#45;&gt;Node8 -->
<g id="edge6" class="edge">
<title>Node7&#45;&gt;Node8</title>
<path fill="none" stroke="#191970" d="M562.4685,-46.7493C559.3664,-37.6064 555.7949,-27.0798 553.2716,-19.6427"/>
<polygon fill="#191970" stroke="#191970" points="559.163,-47.9003 565.6905,-56.2455 565.7918,-45.6512 559.163,-47.9003"/>
</g>
<!-- Node9&#45;&gt;Node6 -->
<g id="edge10" class="edge">
<title>Node9&#45;&gt;Node6</title>
<path fill="none" stroke="#191970" d="M330.4568,-55.7414C438.1083,-42.9373 609.6975,-22.4149 624,-20 627.0623,-19.483 630.229,-18.8991 633.4016,-18.2796"/>
<polygon fill="#191970" stroke="#191970" points="329.7626,-52.2992 320.2459,-56.9556 330.5892,-59.2502 329.7626,-52.2992"/>
</g>
<!-- Node10 -->
<g id="node9" class="node">
<title>Node10</title>
<g id="a_node9"><a xlink:href="RedHeadDuck_8cpp.html" target="_top" xlink:title="src/Ducks/RedHeadDuck.cpp">
<polygon fill="#ffffff" stroke="#000000" points="166.5,-.5 166.5,-19.5 311.5,-19.5 311.5,-.5 166.5,-.5"/>
<text text-anchor="middle" x="239" y="-7.5" font-family="Helvetica,sans-Serif" font-size="10.00" fill="#000000">src/Ducks/RedHeadDuck.cpp</text>
</a>
</g>
</g>
<!-- Node9&#45;&gt;Node10 -->
<g id="edge9" class="edge">
<title>Node9&#45;&gt;Node10</title>
<path fill="none" stroke="#191970" d="M242.2283,-46.1575C241.4246,-37.155 240.5107,-26.9199 239.861,-19.6427"/>
<polygon fill="#191970" stroke="#191970" points="238.7535,-46.5965 243.1291,-56.2455 245.7258,-45.9739 238.7535,-46.5965"/>
</g>
<!-- Node11&#45;&gt;Node6 -->
<g id="edge13" class="edge">
<title>Node11&#45;&gt;Node6</title>
<path fill="none" stroke="#191970" d="M844.2653,-53.9588C803.0205,-43.5547 744.2803,-28.7374 706.6476,-19.2444"/>
<polygon fill="#191970" stroke="#191970" points="843.5367,-57.3846 854.0891,-56.4369 845.2489,-50.5972 843.5367,-57.3846"/>
</g>
<!-- Node12 -->
<g id="node11" class="node">
<title>Node12</title>
<g id="a_node11"><a xlink:href="RubberDucky_8cpp.html" target="_top" xlink:title="src/Ducks/RubberDucky.cpp">
<polygon fill="#ffffff" stroke="#000000" points="821.5,-.5 821.5,-19.5 962.5,-19.5 962.5,-.5 821.5,-.5"/>
<text text-anchor="middle" x="892" y="-7.5" font-family="Helvetica,sans-Serif" font-size="10.00" fill="#000000">src/Ducks/RubberDucky.cpp</text>
</a>
</g>
</g>
<!-- Node11&#45;&gt;Node12 -->
<g id="edge12" class="edge">
<title>Node11&#45;&gt;Node12</title>
<path fill="none" stroke="#191970" d="M892,-46.1575C892,-37.155 892,-26.9199 892,-19.6427"/>
<polygon fill="#191970" stroke="#191970" points="888.5001,-46.2455 892,-56.2455 895.5001,-46.2456 888.5001,-46.2455"/>
</g>
<!-- Node15 -->
<g id="node14" class="node">
<title>Node15</title>
<g id="a_node14"><a xlink:href="MuteQuack_8cpp.html" target="_top" xlink:title="src/QuackBehavior/MuteQuack.cpp">
<polygon fill="#ffffff" stroke="#000000" points="1158,-56.5 1158,-75.5 1330,-75.5 1330,-56.5 1158,-56.5"/>
<text text-anchor="middle" x="1244" y="-63.5" font-family="Helvetica,sans-Serif" font-size="10.00" fill="#000000">src/QuackBehavior/MuteQuack.cpp</text>
</a>
</g>
</g>
<!-- Node14&#45;&gt;Node15 -->
<g id="edge17" class="edge">
<title>Node14&#45;&gt;Node15</title>
<path fill="none" stroke="#191970" d="M1089.8558,-109.686C1129.1843,-98.5399 1178.2977,-84.6207 1210.3727,-75.5303"/>
<polygon fill="#191970" stroke="#191970" points="1088.7509,-106.3612 1080.0842,-112.4554 1090.6596,-113.096 1088.7509,-106.3612"/>
</g>
<!-- Node16&#45;&gt;Node4 -->
<g id="edge19" class="edge">
<title>Node16&#45;&gt;Node4</title>
<path fill="none" stroke="#191970" d="M410,-102.2849C410,-92.9858 410,-82.9883 410,-75.8469"/>
<polygon fill="#191970" stroke="#191970" points="406.5001,-102.2977 410,-112.2977 413.5001,-102.2978 406.5001,-102.2977"/>
</g>
<!-- Node16&#45;&gt;Node7 -->
<g id="edge20" class="edge">
<title>Node16&#45;&gt;Node7</title>
<path fill="none" stroke="#191970" d="M458.2671,-108.8306C486.6941,-97.8353 521.4562,-84.3896 544.3606,-75.5303"/>
<polygon fill="#191970" stroke="#191970" points="456.9598,-105.5835 448.8958,-112.4554 459.4851,-112.1122 456.9598,-105.5835"/>
</g>
<!-- Node16&#45;&gt;Node9 -->
<g id="edge21" class="edge">
<title>Node16&#45;&gt;Node9</title>
<path fill="none" stroke="#191970" d="M359.9947,-108.9739C330.2452,-97.9523 293.7409,-84.4281 269.7241,-75.5303"/>
<polygon fill="#191970" stroke="#191970" points="358.7987,-112.2633 369.3918,-112.4554 361.2306,-105.6993 358.7987,-112.2633"/>
</g>
<!-- Node17 -->
<g id="node16" class="node">
<title>Node17</title>
<g id="a_node16"><a xlink:href="Quack_8cpp.html" target="_top" xlink:title="src/QuackBehavior/Quack.cpp">
<polygon fill="#ffffff" stroke="#000000" points="0,-56.5 0,-75.5 150,-75.5 150,-56.5 0,-56.5"/>
<text text-anchor="middle" x="75" y="-63.5" font-family="Helvetica,sans-Serif" font-size="10.00" fill="#000000">src/QuackBehavior/Quack.cpp</text>
</a>
</g>
</g>
<!-- Node16&#45;&gt;Node17 -->
<g id="edge22" class="edge">
<title>Node16&#45;&gt;Node17</title>
<path fill="none" stroke="#191970" d="M341.3129,-114.8903C277.6618,-103.2051 184.3798,-86.0802 126.7888,-75.5075"/>
<polygon fill="#191970" stroke="#191970" points="340.7965,-118.3539 351.2641,-116.7171 342.0605,-111.4689 340.7965,-118.3539"/>
</g>
<!-- Node18&#45;&gt;Node11 -->
<g id="edge24" class="edge">
<title>Node18&#45;&gt;Node11</title>
<path fill="none" stroke="#191970" d="M892,-102.2849C892,-92.9858 892,-82.9883 892,-75.8469"/>
<polygon fill="#191970" stroke="#191970" points="888.5001,-102.2977 892,-112.2977 895.5001,-102.2978 888.5001,-102.2977"/>
</g>
<!-- Node19 -->
<g id="node18" class="node">
<title>Node19</title>
<g id="a_node18"><a xlink:href="Squeak_8cpp.html" target="_top" xlink:title="src/QuackBehavior/Squeak.cpp">
<polygon fill="#ffffff" stroke="#000000" points="984.5,-56.5 984.5,-75.5 1139.5,-75.5 1139.5,-56.5 984.5,-56.5"/>
<text text-anchor="middle" x="1062" y="-63.5" font-family="Helvetica,sans-Serif" font-size="10.00" fill="#000000">src/QuackBehavior/Squeak.cpp</text>
</a>
</g>
</g>
<!-- Node18&#45;&gt;Node19 -->
<g id="edge25" class="edge">
<title>Node18&#45;&gt;Node19</title>
<path fill="none" stroke="#191970" d="M943.2103,-108.9739C973.6766,-97.9523 1011.0605,-84.4281 1035.656,-75.5303"/>
<polygon fill="#191970" stroke="#191970" points="941.7996,-105.7622 933.5867,-112.4554 944.1809,-112.3447 941.7996,-105.7622"/>
</g>
</g>
</svg>
