<?xml version="1.0" encoding="UTF-8" standalone="no"?>
<!DOCTYPE svg PUBLIC "-//W3C//DTD SVG 1.1//EN"
 "http://www.w3.org/Graphics/SVG/1.1/DTD/svg11.dtd">
<!-- Generated by graphviz version 2.40.1 (20161225.0304)
 -->
<!-- Title: src/QuackBehavior/Quack.cpp Pages: 1 -->
<svg width="166pt" height="196pt"
 viewBox="0.00 0.00 166.00 196.00" xmlns="http://www.w3.org/2000/svg" xmlns:xlink="http://www.w3.org/1999/xlink">
<g id="graph0" class="graph" transform="scale(1 1) rotate(0) translate(4 192)">
<title>src/QuackBehavior/Quack.cpp</title>
<polygon fill="#ffffff" stroke="transparent" points="-4,4 -4,-192 162,-192 162,4 -4,4"/>
<!-- Node0 -->
<g id="node1" class="node">
<title>Node0</title>
<polygon fill="#bfbfbf" stroke="#000000" points="0,-168.5 0,-187.5 150,-187.5 150,-168.5 0,-168.5"/>
<text text-anchor="middle" x="75" y="-175.5" font-family="Helvetica,sans-Serif" font-size="10.00" fill="#000000">src/QuackBehavior/Quack.cpp</text>
</g>
<!-- Node1 -->
<g id="node2" class="node">
<title>Node1</title>
<g id="a_node2"><a xlink:href="Quack_8h.html" target="_top" xlink:title="Quack.h">
<polygon fill="#ffffff" stroke="#000000" points="48.5,-112.5 48.5,-131.5 101.5,-131.5 101.5,-112.5 48.5,-112.5"/>
<text text-anchor="middle" x="75" y="-119.5" font-family="Helvetica,sans-Serif" font-size="10.00" fill="#000000">Quack.h</text>
</a>
</g>
</g>
<!-- Node0&#45;&gt;Node1 -->
<g id="edge1" class="edge">
<title>Node0&#45;&gt;Node1</title>
<path fill="none" stroke="#191970" d="M75,-168.2455C75,-160.9382 75,-150.6944 75,-141.7046"/>
<polygon fill="#191970" stroke="#191970" points="78.5001,-141.6426 75,-131.6427 71.5001,-141.6427 78.5001,-141.6426"/>
</g>
<!-- Node2 -->
<g id="node3" class="node">
<title>Node2</title>
<polygon fill="#ffffff" stroke="#bfbfbf" points="48,-.5 48,-19.5 102,-19.5 102,-.5 48,-.5"/>
<text text-anchor="middle" x="75" y="-7.5" font-family="Helvetica,sans-Serif" font-size="10.00" fill="#000000">iostream</text>
</g>
<!-- Node1&#45;&gt;Node2 -->
<g id="edge2" class="edge">
<title>Node1&#45;&gt;Node2</title>
<path fill="none" stroke="#191970" d="M70.0415,-112.4444C65.622,-103.352 59.4805,-89.1462 57,-76 53.9765,-59.9762 59.3736,-42.1562 65.0286,-29.0756"/>
<polygon fill="#191970" stroke="#191970" points="68.34,-30.2613 69.4633,-19.7262 62.0154,-27.2613 68.34,-30.2613"/>
</g>
<!-- Node3 -->
<g id="node4" class="node">
<title>Node3</title>
<g id="a_node4"><a xlink:href="QuackBehavior_8h.html" target="_top" xlink:title="QuackBehavior.h">
<polygon fill="#ffffff" stroke="#000000" points="66,-56.5 66,-75.5 158,-75.5 158,-56.5 66,-56.5"/>
<text text-anchor="middle" x="112" y="-63.5" font-family="Helvetica,sans-Serif" font-size="10.00" fill="#000000">QuackBehavior.h</text>
</a>
</g>
</g>
<!-- Node1&#45;&gt;Node3 -->
<g id="edge3" class="edge">
<title>Node1&#45;&gt;Node3</title>
<path fill="none" stroke="#191970" d="M81.4449,-112.2455C86.5382,-104.5367 93.7908,-93.5598 99.952,-84.2348"/>
<polygon fill="#191970" stroke="#191970" points="103.0365,-85.9155 105.6289,-75.6427 97.1962,-82.0566 103.0365,-85.9155"/>
</g>
<!-- Node3&#45;&gt;Node2 -->
<g id="edge4" class="edge">
<title>Node3&#45;&gt;Node2</title>
<path fill="none" stroke="#191970" d="M105.5551,-56.2455C100.4618,-48.5367 93.2092,-37.5598 87.048,-28.2348"/>
<polygon fill="#191970" stroke="#191970" points="89.8038,-26.0566 81.3711,-19.6427 83.9635,-29.9155 89.8038,-26.0566"/>
</g>
</g>
</svg>
