<?xml version="1.0" encoding="UTF-8" standalone="no"?>
<!DOCTYPE svg PUBLIC "-//W3C//DTD SVG 1.1//EN"
 "http://www.w3.org/Graphics/SVG/1.1/DTD/svg11.dtd">
<!-- Generated by graphviz version 2.40.1 (20161225.0304)
 -->
<!-- Title: include/QuackBehavior/Quack.h Pages: 1 -->
<svg width="681pt" height="151pt"
 viewBox="0.00 0.00 680.50 151.00" xmlns="http://www.w3.org/2000/svg" xmlns:xlink="http://www.w3.org/1999/xlink">
<g id="graph0" class="graph" transform="scale(1 1) rotate(0) translate(4 147)">
<title>include/QuackBehavior/Quack.h</title>
<polygon fill="#ffffff" stroke="transparent" points="-4,4 -4,-147 676.5,-147 676.5,4 -4,4"/>
<!-- Node3 -->
<g id="node1" class="node">
<title>Node3</title>
<polygon fill="#bfbfbf" stroke="#000000" points="288,-112.5 288,-142.5 405,-142.5 405,-112.5 288,-112.5"/>
<text text-anchor="start" x="296" y="-130.5" font-family="Helvetica,sans-Serif" font-size="10.00" fill="#000000">include/QuackBehavior</text>
<text text-anchor="middle" x="346.5" y="-119.5" font-family="Helvetica,sans-Serif" font-size="10.00" fill="#000000">/Quack.h</text>
</g>
<!-- Node4 -->
<g id="node2" class="node">
<title>Node4</title>
<g id="a_node2"><a xlink:href="MallardDuck_8h.html" target="_top" xlink:title="include/Ducks/MallardDuck.h">
<polygon fill="#ffffff" stroke="#000000" points="35,-56.5 35,-75.5 178,-75.5 178,-56.5 35,-56.5"/>
<text text-anchor="middle" x="106.5" y="-63.5" font-family="Helvetica,sans-Serif" font-size="10.00" fill="#000000">include/Ducks/MallardDuck.h</text>
</a>
</g>
</g>
<!-- Node3&#45;&gt;Node4 -->
<g id="edge1" class="edge">
<title>Node3&#45;&gt;Node4</title>
<path fill="none" stroke="#191970" d="M278.0856,-109.9688C234.4071,-98.7762 179.4668,-84.6977 143.6915,-75.5303"/>
<polygon fill="#191970" stroke="#191970" points="277.2335,-113.3635 287.7894,-112.4554 278.9712,-106.5826 277.2335,-113.3635"/>
</g>
<!-- Node7 -->
<g id="node5" class="node">
<title>Node7</title>
<g id="a_node5"><a xlink:href="ModelDuck_8h.html" target="_top" xlink:title="include/Ducks/ModelDuck.h">
<polygon fill="#ffffff" stroke="#000000" points="196.5,-56.5 196.5,-75.5 334.5,-75.5 334.5,-56.5 196.5,-56.5"/>
<text text-anchor="middle" x="265.5" y="-63.5" font-family="Helvetica,sans-Serif" font-size="10.00" fill="#000000">include/Ducks/ModelDuck.h</text>
</a>
</g>
</g>
<!-- Node3&#45;&gt;Node7 -->
<g id="edge4" class="edge">
<title>Node3&#45;&gt;Node7</title>
<path fill="none" stroke="#191970" d="M318.3593,-106.1339C304.797,-95.8366 289.1896,-83.9865 278.4691,-75.8469"/>
<polygon fill="#191970" stroke="#191970" points="316.3965,-109.0382 326.4775,-112.2977 320.6295,-103.463 316.3965,-109.0382"/>
</g>
<!-- Node9 -->
<g id="node7" class="node">
<title>Node9</title>
<g id="a_node7"><a xlink:href="RedHeadDuck_8h.html" target="_top" xlink:title="include/Ducks/RedHeadDuck.h">
<polygon fill="#ffffff" stroke="#000000" points="352.5,-56.5 352.5,-75.5 504.5,-75.5 504.5,-56.5 352.5,-56.5"/>
<text text-anchor="middle" x="428.5" y="-63.5" font-family="Helvetica,sans-Serif" font-size="10.00" fill="#000000">include/Ducks/RedHeadDuck.h</text>
</a>
</g>
</g>
<!-- Node3&#45;&gt;Node9 -->
<g id="edge7" class="edge">
<title>Node3&#45;&gt;Node9</title>
<path fill="none" stroke="#191970" d="M374.9881,-106.1339C388.7179,-95.8366 404.518,-83.9865 415.3708,-75.8469"/>
<polygon fill="#191970" stroke="#191970" points="372.6697,-103.4977 366.7697,-112.2977 376.8697,-109.0977 372.6697,-103.4977"/>
</g>
<!-- Node11 -->
<g id="node9" class="node">
<title>Node11</title>
<g id="a_node9"><a xlink:href="Quack_8cpp.html" target="_top" xlink:title="src/QuackBehavior/Quack.cpp">
<polygon fill="#ffffff" stroke="#000000" points="522.5,-56.5 522.5,-75.5 672.5,-75.5 672.5,-56.5 522.5,-56.5"/>
<text text-anchor="middle" x="597.5" y="-63.5" font-family="Helvetica,sans-Serif" font-size="10.00" fill="#000000">src/QuackBehavior/Quack.cpp</text>
</a>
</g>
</g>
<!-- Node3&#45;&gt;Node11 -->
<g id="edge10" class="edge">
<title>Node3&#45;&gt;Node11</title>
<path fill="none" stroke="#191970" d="M414.9537,-110.7275C461.0463,-99.4339 520.18,-84.9449 558.4502,-75.568"/>
<polygon fill="#191970" stroke="#191970" points="413.9113,-107.3793 405.0316,-113.1586 415.5772,-114.1782 413.9113,-107.3793"/>
</g>
<!-- Node5 -->
<g id="node3" class="node">
<title>Node5</title>
<g id="a_node3"><a xlink:href="MallardDuck_8cpp.html" target="_top" xlink:title="src/Ducks/MallardDuck.cpp">
<polygon fill="#ffffff" stroke="#000000" points="0,-.5 0,-19.5 137,-19.5 137,-.5 0,-.5"/>
<text text-anchor="middle" x="68.5" y="-7.5" font-family="Helvetica,sans-Serif" font-size="10.00" fill="#000000">src/Ducks/MallardDuck.cpp</text>
</a>
</g>
</g>
<!-- Node4&#45;&gt;Node5 -->
<g id="edge2" class="edge">
<title>Node4&#45;&gt;Node5</title>
<path fill="none" stroke="#191970" d="M94.2321,-47.9209C87.8512,-38.5176 80.3069,-27.3997 75.0432,-19.6427"/>
<polygon fill="#191970" stroke="#191970" points="91.3697,-49.936 99.8809,-56.2455 97.162,-46.0055 91.3697,-49.936"/>
</g>
<!-- Node6 -->
<g id="node4" class="node">
<title>Node6</title>
<g id="a_node4"><a xlink:href="main_8cpp.html" target="_top" xlink:title="src/main.cpp">
<polygon fill="#ffffff" stroke="#000000" points="155,-.5 155,-19.5 228,-19.5 228,-.5 155,-.5"/>
<text text-anchor="middle" x="191.5" y="-7.5" font-family="Helvetica,sans-Serif" font-size="10.00" fill="#000000">src/main.cpp</text>
</a>
</g>
</g>
<!-- Node4&#45;&gt;Node6 -->
<g id="edge3" class="edge">
<title>Node4&#45;&gt;Node6</title>
<path fill="none" stroke="#191970" d="M130.0419,-50.49C145.039,-40.6096 163.9973,-28.1194 176.8638,-19.6427"/>
<polygon fill="#191970" stroke="#191970" points="127.7309,-47.8212 121.3059,-56.2455 131.5821,-53.6666 127.7309,-47.8212"/>
</g>
<!-- Node7&#45;&gt;Node6 -->
<g id="edge6" class="edge">
<title>Node7&#45;&gt;Node6</title>
<path fill="none" stroke="#191970" d="M244.6343,-50.2097C231.6375,-40.3743 215.3378,-28.0394 204.2421,-19.6427"/>
<polygon fill="#191970" stroke="#191970" points="242.524,-53.002 252.6102,-56.2455 246.7482,-47.4201 242.524,-53.002"/>
</g>
<!-- Node8 -->
<g id="node6" class="node">
<title>Node8</title>
<g id="a_node6"><a xlink:href="ModelDuck_8cpp.html" target="_top" xlink:title="src/Ducks/ModelDuck.cpp">
<polygon fill="#ffffff" stroke="#000000" points="246,-.5 246,-19.5 377,-19.5 377,-.5 246,-.5"/>
<text text-anchor="middle" x="311.5" y="-7.5" font-family="Helvetica,sans-Serif" font-size="10.00" fill="#000000">src/Ducks/ModelDuck.cpp</text>
</a>
</g>
</g>
<!-- Node7&#45;&gt;Node8 -->
<g id="edge5" class="edge">
<title>Node7&#45;&gt;Node8</title>
<path fill="none" stroke="#191970" d="M279.8747,-48.5004C287.6971,-38.9775 297.076,-27.5596 303.5792,-19.6427"/>
<polygon fill="#191970" stroke="#191970" points="277.1555,-46.2967 273.5126,-56.2455 282.5646,-50.7399 277.1555,-46.2967"/>
</g>
<!-- Node9&#45;&gt;Node6 -->
<g id="edge9" class="edge">
<title>Node9&#45;&gt;Node6</title>
<path fill="none" stroke="#191970" d="M378.1953,-54.1137C333.2772,-43.5001 268.5412,-28.2038 228.2991,-18.6951"/>
<polygon fill="#191970" stroke="#191970" points="377.4907,-57.5435 388.0275,-56.4369 379.1004,-50.7311 377.4907,-57.5435"/>
</g>
<!-- Node10 -->
<g id="node8" class="node">
<title>Node10</title>
<g id="a_node8"><a xlink:href="RedHeadDuck_8cpp.html" target="_top" xlink:title="src/Ducks/RedHeadDuck.cpp">
<polygon fill="#ffffff" stroke="#000000" points="395,-.5 395,-19.5 540,-19.5 540,-.5 395,-.5"/>
<text text-anchor="middle" x="467.5" y="-7.5" font-family="Helvetica,sans-Serif" font-size="10.00" fill="#000000">src/Ducks/RedHeadDuck.cpp</text>
</a>
</g>
</g>
<!-- Node9&#45;&gt;Node10 -->
<g id="edge8" class="edge">
<title>Node9&#45;&gt;Node10</title>
<path fill="none" stroke="#191970" d="M441.0908,-47.9209C447.6395,-38.5176 455.3824,-27.3997 460.7846,-19.6427"/>
<polygon fill="#191970" stroke="#191970" points="438.1361,-46.0392 435.2933,-56.2455 443.8804,-50.0397 438.1361,-46.0392"/>
</g>
</g>
</svg>
