<?xml version="1.0" encoding="UTF-8" standalone="no"?>
<!DOCTYPE svg PUBLIC "-//W3C//DTD SVG 1.1//EN"
 "http://www.w3.org/Graphics/SVG/1.1/DTD/svg11.dtd">
<!-- Generated by graphviz version 2.40.1 (20161225.0304)
 -->
<!-- Title: include/Ducks/RedHeadDuck.h Pages: 1 -->
<svg width="260pt" height="196pt"
 viewBox="0.00 0.00 260.38 196.00" xmlns="http://www.w3.org/2000/svg" xmlns:xlink="http://www.w3.org/1999/xlink">
<g id="graph0" class="graph" transform="scale(1 1) rotate(0) translate(4 192)">
<title>include/Ducks/RedHeadDuck.h</title>
<polygon fill="#ffffff" stroke="transparent" points="-4,4 -4,-192 256.3823,-192 256.3823,4 -4,4"/>
<!-- Node0 -->
<g id="node1" class="node">
<title>Node0</title>
<polygon fill="#bfbfbf" stroke="#000000" points="43.2563,-168.5 43.2563,-187.5 195.2563,-187.5 195.2563,-168.5 43.2563,-168.5"/>
<text text-anchor="middle" x="119.2563" y="-175.5" font-family="Helvetica,sans-Serif" font-size="10.00" fill="#000000">include/Ducks/RedHeadDuck.h</text>
</g>
<!-- Node1 -->
<g id="node2" class="node">
<title>Node1</title>
<g id="a_node2"><a xlink:href="Duck_8h.html" target="_top" xlink:title="Duck.h">
<polygon fill="#ffffff" stroke="#000000" points="11.7563,-112.5 11.7563,-131.5 58.7563,-131.5 58.7563,-112.5 11.7563,-112.5"/>
<text text-anchor="middle" x="35.2563" y="-119.5" font-family="Helvetica,sans-Serif" font-size="10.00" fill="#000000">Duck.h</text>
</a>
</g>
</g>
<!-- Node0&#45;&gt;Node1 -->
<g id="edge1" class="edge">
<title>Node0&#45;&gt;Node1</title>
<path fill="none" stroke="#191970" d="M104.6246,-168.2455C91.8569,-159.7337 73.1125,-147.2375 58.3264,-137.3801"/>
<polygon fill="#191970" stroke="#191970" points="59.9823,-134.2775 49.7203,-131.6427 56.0994,-140.1019 59.9823,-134.2775"/>
</g>
<!-- Node5 -->
<g id="node6" class="node">
<title>Node5</title>
<g id="a_node6"><a xlink:href="FlyWithWings_8h.html" target="_top" xlink:title="FlyWithWings.h">
<polygon fill="#ffffff" stroke="#000000" points="76.7563,-112.5 76.7563,-131.5 161.7563,-131.5 161.7563,-112.5 76.7563,-112.5"/>
<text text-anchor="middle" x="119.2563" y="-119.5" font-family="Helvetica,sans-Serif" font-size="10.00" fill="#000000">FlyWithWings.h</text>
</a>
</g>
</g>
<!-- Node0&#45;&gt;Node5 -->
<g id="edge7" class="edge">
<title>Node0&#45;&gt;Node5</title>
<path fill="none" stroke="#191970" d="M119.2563,-168.2455C119.2563,-160.9382 119.2563,-150.6944 119.2563,-141.7046"/>
<polygon fill="#191970" stroke="#191970" points="122.7564,-141.6426 119.2563,-131.6427 115.7564,-141.6427 122.7564,-141.6426"/>
</g>
<!-- Node6 -->
<g id="node7" class="node">
<title>Node6</title>
<g id="a_node7"><a xlink:href="Quack_8h.html" target="_top" xlink:title="Quack.h">
<polygon fill="#ffffff" stroke="#000000" points="179.7563,-112.5 179.7563,-131.5 232.7563,-131.5 232.7563,-112.5 179.7563,-112.5"/>
<text text-anchor="middle" x="206.2563" y="-119.5" font-family="Helvetica,sans-Serif" font-size="10.00" fill="#000000">Quack.h</text>
</a>
</g>
</g>
<!-- Node0&#45;&gt;Node6 -->
<g id="edge10" class="edge">
<title>Node0&#45;&gt;Node6</title>
<path fill="none" stroke="#191970" d="M134.4105,-168.2455C147.759,-159.6534 167.4149,-147.0014 182.7946,-137.1018"/>
<polygon fill="#191970" stroke="#191970" points="184.7614,-139.9982 191.2757,-131.6427 180.9727,-134.1121 184.7614,-139.9982"/>
</g>
<!-- Node2 -->
<g id="node3" class="node">
<title>Node2</title>
<polygon fill="#ffffff" stroke="#bfbfbf" points="92.2563,-.5 92.2563,-19.5 146.2563,-19.5 146.2563,-.5 92.2563,-.5"/>
<text text-anchor="middle" x="119.2563" y="-7.5" font-family="Helvetica,sans-Serif" font-size="10.00" fill="#000000">iostream</text>
</g>
<!-- Node1&#45;&gt;Node2 -->
<g id="edge2" class="edge">
<title>Node1&#45;&gt;Node2</title>
<path fill="none" stroke="#191970" d="M24.4069,-112.0976C11.1017,-98.7264 -8.2347,-74.4497 4.2563,-56 21.4973,-30.5344 55.3657,-19.1654 81.9028,-14.0904"/>
<polygon fill="#191970" stroke="#191970" points="82.7479,-17.4974 92.027,-12.3839 81.5843,-10.5948 82.7479,-17.4974"/>
</g>
<!-- Node3 -->
<g id="node4" class="node">
<title>Node3</title>
<g id="a_node4"><a xlink:href="FlyBehavior_8h.html" target="_top" xlink:title="FlyBehavior.h">
<polygon fill="#ffffff" stroke="#000000" points="13.7563,-56.5 13.7563,-75.5 90.7563,-75.5 90.7563,-56.5 13.7563,-56.5"/>
<text text-anchor="middle" x="52.2563" y="-63.5" font-family="Helvetica,sans-Serif" font-size="10.00" fill="#000000">FlyBehavior.h</text>
</a>
</g>
</g>
<!-- Node1&#45;&gt;Node3 -->
<g id="edge3" class="edge">
<title>Node1&#45;&gt;Node3</title>
<path fill="none" stroke="#191970" d="M38.2175,-112.2455C40.4601,-104.8579 43.614,-94.4689 46.3644,-85.4087"/>
<polygon fill="#191970" stroke="#191970" points="49.7733,-86.2282 49.3291,-75.6427 43.0751,-84.1948 49.7733,-86.2282"/>
</g>
<!-- Node4 -->
<g id="node5" class="node">
<title>Node4</title>
<g id="a_node5"><a xlink:href="QuackBehavior_8h.html" target="_top" xlink:title="QuackBehavior.h">
<polygon fill="#ffffff" stroke="#000000" points="147.2563,-56.5 147.2563,-75.5 239.2563,-75.5 239.2563,-56.5 147.2563,-56.5"/>
<text text-anchor="middle" x="193.2563" y="-63.5" font-family="Helvetica,sans-Serif" font-size="10.00" fill="#000000">QuackBehavior.h</text>
</a>
</g>
</g>
<!-- Node1&#45;&gt;Node4 -->
<g id="edge5" class="edge">
<title>Node1&#45;&gt;Node4</title>
<path fill="none" stroke="#191970" d="M58.9105,-113.6162C84.7434,-104.4603 126.4435,-89.6805 156.5379,-79.0141"/>
<polygon fill="#191970" stroke="#191970" points="158.003,-82.2082 166.2592,-75.5686 155.6645,-75.6104 158.003,-82.2082"/>
</g>
<!-- Node3&#45;&gt;Node2 -->
<g id="edge4" class="edge">
<title>Node3&#45;&gt;Node2</title>
<path fill="none" stroke="#191970" d="M63.9268,-56.2455C73.8224,-47.9746 88.219,-35.9416 99.8464,-26.2232"/>
<polygon fill="#191970" stroke="#191970" points="102.2913,-28.7413 107.7195,-19.6427 97.8021,-23.3703 102.2913,-28.7413"/>
</g>
<!-- Node4&#45;&gt;Node2 -->
<g id="edge6" class="edge">
<title>Node4&#45;&gt;Node2</title>
<path fill="none" stroke="#191970" d="M180.3665,-56.2455C169.3309,-47.8943 153.2271,-35.7076 140.321,-25.9408"/>
<polygon fill="#191970" stroke="#191970" points="142.0846,-22.8862 131.9984,-19.6427 137.8604,-28.4681 142.0846,-22.8862"/>
</g>
<!-- Node5&#45;&gt;Node2 -->
<g id="edge8" class="edge">
<title>Node5&#45;&gt;Node2</title>
<path fill="none" stroke="#191970" d="M119.2563,-112.4509C119.2563,-94.184 119.2563,-53.9553 119.2563,-29.6976"/>
<polygon fill="#191970" stroke="#191970" points="122.7564,-29.5249 119.2563,-19.5249 115.7564,-29.5249 122.7564,-29.5249"/>
</g>
<!-- Node5&#45;&gt;Node3 -->
<g id="edge9" class="edge">
<title>Node5&#45;&gt;Node3</title>
<path fill="none" stroke="#191970" d="M107.5858,-112.2455C97.6902,-103.9746 83.2936,-91.9416 71.6662,-82.2232"/>
<polygon fill="#191970" stroke="#191970" points="73.7105,-79.3703 63.7931,-75.6427 69.2213,-84.7413 73.7105,-79.3703"/>
</g>
<!-- Node6&#45;&gt;Node2 -->
<g id="edge11" class="edge">
<title>Node6&#45;&gt;Node2</title>
<path fill="none" stroke="#191970" d="M220.033,-112.4158C237.0138,-99.4053 262.0308,-75.5359 248.2563,-56 237.4224,-40.6347 190.7473,-26.6993 156.646,-18.2905"/>
<polygon fill="#191970" stroke="#191970" points="157.0606,-14.7908 146.5201,-15.8629 155.4285,-21.5979 157.0606,-14.7908"/>
</g>
<!-- Node6&#45;&gt;Node4 -->
<g id="edge12" class="edge">
<title>Node6&#45;&gt;Node4</title>
<path fill="none" stroke="#191970" d="M203.9919,-112.2455C202.2769,-104.8579 199.8651,-94.4689 197.7619,-85.4087"/>
<polygon fill="#191970" stroke="#191970" points="201.1655,-84.5922 195.4948,-75.6427 194.3468,-86.1751 201.1655,-84.5922"/>
</g>
</g>
</svg>
