<?xml version="1.0" encoding="UTF-8" standalone="no"?>
<!DOCTYPE svg PUBLIC "-//W3C//DTD SVG 1.1//EN"
 "http://www.w3.org/Graphics/SVG/1.1/DTD/svg11.dtd">
<!-- Generated by graphviz version 2.40.1 (20161225.0304)
 -->
<!-- Title: include/Ducks/RedHeadDuck.h Pages: 1 -->
<svg width="244pt" height="84pt"
 viewBox="0.00 0.00 244.00 84.00" xmlns="http://www.w3.org/2000/svg" xmlns:xlink="http://www.w3.org/1999/xlink">
<g id="graph0" class="graph" transform="scale(1 1) rotate(0) translate(4 80)">
<title>include/Ducks/RedHeadDuck.h</title>
<polygon fill="#ffffff" stroke="transparent" points="-4,4 -4,-80 240,-80 240,4 -4,4"/>
<!-- Node7 -->
<g id="node1" class="node">
<title>Node7</title>
<polygon fill="#bfbfbf" stroke="#000000" points="59.5,-56.5 59.5,-75.5 211.5,-75.5 211.5,-56.5 59.5,-56.5"/>
<text text-anchor="middle" x="135.5" y="-63.5" font-family="Helvetica,sans-Serif" font-size="10.00" fill="#000000">include/Ducks/RedHeadDuck.h</text>
</g>
<!-- Node8 -->
<g id="node2" class="node">
<title>Node8</title>
<g id="a_node2"><a xlink:href="RedHeadDuck_8cpp.html" target="_top" xlink:title="src/Ducks/RedHeadDuck.cpp">
<polygon fill="#ffffff" stroke="#000000" points="0,-.5 0,-19.5 145,-19.5 145,-.5 0,-.5"/>
<text text-anchor="middle" x="72.5" y="-7.5" font-family="Helvetica,sans-Serif" font-size="10.00" fill="#000000">src/Ducks/RedHeadDuck.cpp</text>
</a>
</g>
</g>
<!-- Node7&#45;&gt;Node8 -->
<g id="edge1" class="edge">
<title>Node7&#45;&gt;Node8</title>
<path fill="none" stroke="#191970" d="M116.7808,-49.3607C105.8818,-39.6727 92.5245,-27.7995 83.348,-19.6427"/>
<polygon fill="#191970" stroke="#191970" points="114.7268,-52.2178 124.5262,-56.2455 119.3774,-46.9859 114.7268,-52.2178"/>
</g>
<!-- Node9 -->
<g id="node3" class="node">
<title>Node9</title>
<g id="a_node3"><a xlink:href="main_8cpp.html" target="_top" xlink:title="src/main.cpp">
<polygon fill="#ffffff" stroke="#000000" points="163,-.5 163,-19.5 236,-19.5 236,-.5 163,-.5"/>
<text text-anchor="middle" x="199.5" y="-7.5" font-family="Helvetica,sans-Serif" font-size="10.00" fill="#000000">src/main.cpp</text>
</a>
</g>
</g>
<!-- Node7&#45;&gt;Node9 -->
<g id="edge2" class="edge">
<title>Node7&#45;&gt;Node9</title>
<path fill="none" stroke="#191970" d="M154.1914,-49.645C165.3219,-39.9058 179.0663,-27.8795 188.4798,-19.6427"/>
<polygon fill="#191970" stroke="#191970" points="151.869,-47.0264 146.6479,-56.2455 156.4785,-52.2945 151.869,-47.0264"/>
</g>
</g>
</svg>
