<?xml version="1.0" encoding="UTF-8" standalone="no"?>
<!DOCTYPE svg PUBLIC "-//W3C//DTD SVG 1.1//EN"
 "http://www.w3.org/Graphics/SVG/1.1/DTD/svg11.dtd">
<!-- Generated by graphviz version 2.40.1 (20161225.0304)
 -->
<!-- Title: include/QuackBehavior/Squeak.h Pages: 1 -->
<svg width="388pt" height="151pt"
 viewBox="0.00 0.00 388.00 151.00" xmlns="http://www.w3.org/2000/svg" xmlns:xlink="http://www.w3.org/1999/xlink">
<g id="graph0" class="graph" transform="scale(1 1) rotate(0) translate(4 147)">
<title>include/QuackBehavior/Squeak.h</title>
<polygon fill="#ffffff" stroke="transparent" points="-4,4 -4,-147 384,-147 384,4 -4,4"/>
<!-- Node3 -->
<g id="node1" class="node">
<title>Node3</title>
<polygon fill="#bfbfbf" stroke="#000000" points="159,-112.5 159,-142.5 276,-142.5 276,-112.5 159,-112.5"/>
<text text-anchor="start" x="167" y="-130.5" font-family="Helvetica,sans-Serif" font-size="10.00" fill="#000000">include/QuackBehavior</text>
<text text-anchor="middle" x="217.5" y="-119.5" font-family="Helvetica,sans-Serif" font-size="10.00" fill="#000000">/Squeak.h</text>
</g>
<!-- Node4 -->
<g id="node2" class="node">
<title>Node4</title>
<g id="a_node2"><a xlink:href="RubberDucky_8h.html" target="_top" xlink:title="include/Ducks/RubberDucky.h">
<polygon fill="#ffffff" stroke="#000000" points="58.5,-56.5 58.5,-75.5 206.5,-75.5 206.5,-56.5 58.5,-56.5"/>
<text text-anchor="middle" x="132.5" y="-63.5" font-family="Helvetica,sans-Serif" font-size="10.00" fill="#000000">include/Ducks/RubberDucky.h</text>
</a>
</g>
</g>
<!-- Node3&#45;&gt;Node4 -->
<g id="edge1" class="edge">
<title>Node3&#45;&gt;Node4</title>
<path fill="none" stroke="#191970" d="M188.3718,-106.4249C174.047,-96.0605 157.4655,-84.0633 146.1096,-75.8469"/>
<polygon fill="#191970" stroke="#191970" points="186.3353,-109.2715 196.4888,-112.2977 190.4386,-103.6002 186.3353,-109.2715"/>
</g>
<!-- Node7 -->
<g id="node5" class="node">
<title>Node7</title>
<g id="a_node5"><a xlink:href="Squeak_8cpp.html" target="_top" xlink:title="src/QuackBehavior/Squeak.cpp">
<polygon fill="#ffffff" stroke="#000000" points="225,-56.5 225,-75.5 380,-75.5 380,-56.5 225,-56.5"/>
<text text-anchor="middle" x="302.5" y="-63.5" font-family="Helvetica,sans-Serif" font-size="10.00" fill="#000000">src/QuackBehavior/Squeak.cpp</text>
</a>
</g>
</g>
<!-- Node3&#45;&gt;Node7 -->
<g id="edge4" class="edge">
<title>Node3&#45;&gt;Node7</title>
<path fill="none" stroke="#191970" d="M246.6282,-106.4249C260.953,-96.0605 277.5345,-84.0633 288.8904,-75.8469"/>
<polygon fill="#191970" stroke="#191970" points="244.5614,-103.6002 238.5112,-112.2977 248.6647,-109.2715 244.5614,-103.6002"/>
</g>
<!-- Node5 -->
<g id="node3" class="node">
<title>Node5</title>
<g id="a_node3"><a xlink:href="RubberDucky_8cpp.html" target="_top" xlink:title="src/Ducks/RubberDucky.cpp">
<polygon fill="#ffffff" stroke="#000000" points="0,-.5 0,-19.5 141,-19.5 141,-.5 0,-.5"/>
<text text-anchor="middle" x="70.5" y="-7.5" font-family="Helvetica,sans-Serif" font-size="10.00" fill="#000000">src/Ducks/RubberDucky.cpp</text>
</a>
</g>
</g>
<!-- Node4&#45;&gt;Node5 -->
<g id="edge2" class="edge">
<title>Node4&#45;&gt;Node5</title>
<path fill="none" stroke="#191970" d="M114.0779,-49.3607C103.3519,-39.6727 90.2066,-27.7995 81.1758,-19.6427"/>
<polygon fill="#191970" stroke="#191970" points="111.9334,-52.14 121.7004,-56.2455 116.6254,-46.9453 111.9334,-52.14"/>
</g>
<!-- Node6 -->
<g id="node4" class="node">
<title>Node6</title>
<g id="a_node4"><a xlink:href="main_8cpp.html" target="_top" xlink:title="src/main.cpp">
<polygon fill="#ffffff" stroke="#000000" points="159,-.5 159,-19.5 232,-19.5 232,-.5 159,-.5"/>
<text text-anchor="middle" x="195.5" y="-7.5" font-family="Helvetica,sans-Serif" font-size="10.00" fill="#000000">src/main.cpp</text>
</a>
</g>
</g>
<!-- Node4&#45;&gt;Node6 -->
<g id="edge3" class="edge">
<title>Node4&#45;&gt;Node6</title>
<path fill="none" stroke="#191970" d="M151.2192,-49.3607C162.1182,-39.6727 175.4755,-27.7995 184.652,-19.6427"/>
<polygon fill="#191970" stroke="#191970" points="148.6226,-46.9859 143.4738,-56.2455 153.2732,-52.2178 148.6226,-46.9859"/>
</g>
</g>
</svg>
