<?xml version="1.0" encoding="UTF-8" standalone="no"?>
<!DOCTYPE svg PUBLIC "-//W3C//DTD SVG 1.1//EN"
 "http://www.w3.org/Graphics/SVG/1.1/DTD/svg11.dtd">
<!-- Generated by graphviz version 2.40.1 (20161225.0304)
 -->
<!-- Title: src/QuackBehavior/Squeak.cpp Pages: 1 -->
<svg width="169pt" height="196pt"
 viewBox="0.00 0.00 168.50 196.00" xmlns="http://www.w3.org/2000/svg" xmlns:xlink="http://www.w3.org/1999/xlink">
<g id="graph0" class="graph" transform="scale(1 1) rotate(0) translate(4 192)">
<title>src/QuackBehavior/Squeak.cpp</title>
<polygon fill="#ffffff" stroke="transparent" points="-4,4 -4,-192 164.5,-192 164.5,4 -4,4"/>
<!-- Node0 -->
<g id="node1" class="node">
<title>Node0</title>
<polygon fill="#bfbfbf" stroke="#000000" points="0,-168.5 0,-187.5 155,-187.5 155,-168.5 0,-168.5"/>
<text text-anchor="middle" x="77.5" y="-175.5" font-family="Helvetica,sans-Serif" font-size="10.00" fill="#000000">src/QuackBehavior/Squeak.cpp</text>
</g>
<!-- Node1 -->
<g id="node2" class="node">
<title>Node1</title>
<g id="a_node2"><a xlink:href="Squeak_8h.html" target="_top" xlink:title="Squeak.h">
<polygon fill="#ffffff" stroke="#000000" points="48.5,-112.5 48.5,-131.5 106.5,-131.5 106.5,-112.5 48.5,-112.5"/>
<text text-anchor="middle" x="77.5" y="-119.5" font-family="Helvetica,sans-Serif" font-size="10.00" fill="#000000">Squeak.h</text>
</a>
</g>
</g>
<!-- Node0&#45;&gt;Node1 -->
<g id="edge1" class="edge">
<title>Node0&#45;&gt;Node1</title>
<path fill="none" stroke="#191970" d="M77.5,-168.2455C77.5,-160.9382 77.5,-150.6944 77.5,-141.7046"/>
<polygon fill="#191970" stroke="#191970" points="81.0001,-141.6426 77.5,-131.6427 74.0001,-141.6427 81.0001,-141.6426"/>
</g>
<!-- Node2 -->
<g id="node3" class="node">
<title>Node2</title>
<polygon fill="#ffffff" stroke="#bfbfbf" points="50.5,-.5 50.5,-19.5 104.5,-19.5 104.5,-.5 50.5,-.5"/>
<text text-anchor="middle" x="77.5" y="-7.5" font-family="Helvetica,sans-Serif" font-size="10.00" fill="#000000">iostream</text>
</g>
<!-- Node1&#45;&gt;Node2 -->
<g id="edge2" class="edge">
<title>Node1&#45;&gt;Node2</title>
<path fill="none" stroke="#191970" d="M72.5415,-112.4444C68.122,-103.352 61.9805,-89.1462 59.5,-76 56.4765,-59.9762 61.8736,-42.1562 67.5286,-29.0756"/>
<polygon fill="#191970" stroke="#191970" points="70.84,-30.2613 71.9633,-19.7262 64.5154,-27.2613 70.84,-30.2613"/>
</g>
<!-- Node3 -->
<g id="node4" class="node">
<title>Node3</title>
<g id="a_node4"><a xlink:href="QuackBehavior_8h.html" target="_top" xlink:title="QuackBehavior.h">
<polygon fill="#ffffff" stroke="#000000" points="68.5,-56.5 68.5,-75.5 160.5,-75.5 160.5,-56.5 68.5,-56.5"/>
<text text-anchor="middle" x="114.5" y="-63.5" font-family="Helvetica,sans-Serif" font-size="10.00" fill="#000000">QuackBehavior.h</text>
</a>
</g>
</g>
<!-- Node1&#45;&gt;Node3 -->
<g id="edge3" class="edge">
<title>Node1&#45;&gt;Node3</title>
<path fill="none" stroke="#191970" d="M83.9449,-112.2455C89.0382,-104.5367 96.2908,-93.5598 102.452,-84.2348"/>
<polygon fill="#191970" stroke="#191970" points="105.5365,-85.9155 108.1289,-75.6427 99.6962,-82.0566 105.5365,-85.9155"/>
</g>
<!-- Node3&#45;&gt;Node2 -->
<g id="edge4" class="edge">
<title>Node3&#45;&gt;Node2</title>
<path fill="none" stroke="#191970" d="M108.0551,-56.2455C102.9618,-48.5367 95.7092,-37.5598 89.548,-28.2348"/>
<polygon fill="#191970" stroke="#191970" points="92.3038,-26.0566 83.8711,-19.6427 86.4635,-29.9155 92.3038,-26.0566"/>
</g>
</g>
</svg>
